<svg width="800" height="560" viewBox="0 0 800 560" fill="none" xmlns="http://www.w3.org/2000/svg">
<path d="M89.5546 298.549L79.3557 308.741C75.3254 312.771 75.3254 319.368 79.3557 323.398L79.589 323.631C83.6193 327.661 90.2155 327.661 94.2588 323.631L104.451 313.439M89.5546 298.549L99.7535 288.356C103.784 284.326 110.38 284.326 114.41 288.356L114.644 288.589C118.674 292.62 118.674 299.216 114.644 303.246L104.451 313.439M89.5546 298.549L104.451 313.439" stroke="#2C6BAA" stroke-width="1.75" stroke-miterlimit="10" stroke-linejoin="round"/>
<path d="M382.27 160.15C381.53 160.15 381.62 160.7 381.62 161.17C381.62 165.89 381.62 171.6 381.62 176.31C381.62 178.12 380.55 179.5 378.57 179.5C376.59 179.5 375.52 178.17 375.52 176.32C375.52 170.14 375.52 163.97 375.52 157.79C375.52 154.68 375.51 151.57 375.54 148.45C375.55 147.98 375.15 148.2 375.03 148.49C374.09 150.66 373.4 152.94 372.99 155.27C372.69 156.96 372.45 158.92 370.24 158.77C367.8 158.61 367.84 156.15 368.2 154.33C369.13 148.88 371.68 143.42 373.52 141.36C375.05 139.65 377.85 137.89 380.35 137.97H385.64C388.14 137.89 390.95 139.65 392.47 141.36C394.31 143.42 396.86 148.88 397.79 154.33C398.15 156.15 398.19 158.61 395.75 158.77C393.53 158.92 393.29 156.97 393 155.27C392.59 152.94 391.9 150.66 390.96 148.49C390.84 148.21 390.44 147.99 390.45 148.45C390.48 151.56 390.47 154.67 390.47 157.79C390.47 163.97 390.47 170.14 390.47 176.32C390.47 178.17 389.44 179.5 387.47 179.5C385.5 179.5 384.38 178.13 384.38 176.31C384.38 171.59 384.38 165.88 384.38 161.17C384.38 160.71 384.47 160.15 383.73 160.15H382.27ZM376.65 130.83C376.65 134.46 379.43 137.26 383.05 137.26C386.57 137.26 389.36 134.47 389.36 130.93C389.36 127.3 386.67 124.6 383.05 124.6C379.43 124.5 376.65 127.2 376.65 130.83Z" fill="#0C4851" stroke="#0C4851" stroke-width="1.75" stroke-miterlimit="10" stroke-linejoin="round"/>
<path d="M344.938 151.872V154.032H349.906V159H352.09V154.032H357.058V151.872H352.09V146.904H349.906V151.872H344.938Z" fill="#8E909A"/>
<path d="M334.18 128.78C334.18 141.52 307.89 141.1 307.89 151.99C307.89 156.61 311.9 159.12 316.2 161.52" stroke="#0C4851" stroke-width="1.75" stroke-miterlimit="10" stroke-linecap="round"/>
<path d="M307.82 128.78C307.82 133.95 312.07 136.95 317.13 139.42" stroke="#0C4851" stroke-width="1.75" stroke-miterlimit="10" stroke-linecap="round"/>
<path d="M307.819 175.22C307.819 162.48 334.109 162.9 334.109 152.01C334.109 147.39 330.099 144.88 325.799 142.48" stroke="#0C4851" stroke-width="1.75" stroke-miterlimit="10" stroke-linecap="round"/>
<path d="M334.18 175.22C334.18 170.05 329.93 167.05 324.87 164.58" stroke="#0C4851" stroke-width="1.75" stroke-miterlimit="10" stroke-linecap="round"/>
<path d="M326.87 131.7H315.13" stroke="#0C4851" stroke-width="1.75" stroke-miterlimit="10" stroke-linecap="round"/>
<path d="M326.87 152.26H315.13" stroke="#0C4851" stroke-width="1.75" stroke-miterlimit="10" stroke-linecap="round"/>
<path d="M326.87 172.82H315.13" stroke="#0C4851" stroke-width="1.75" stroke-miterlimit="10" stroke-linecap="round"/>
<path d="M382.27 260.15C381.53 260.15 381.62 260.7 381.62 261.17C381.62 265.89 381.62 271.6 381.62 276.31C381.62 278.12 380.55 279.5 378.57 279.5C376.59 279.5 375.52 278.17 375.52 276.32C375.52 270.14 375.52 263.97 375.52 257.79C375.52 254.68 375.51 251.57 375.54 248.45C375.55 247.98 375.15 248.2 375.03 248.49C374.09 250.66 373.4 252.94 372.99 255.27C372.69 256.96 372.45 258.92 370.24 258.77C367.8 258.61 367.84 256.15 368.2 254.33C369.13 248.88 371.68 243.42 373.52 241.36C375.05 239.65 377.85 237.89 380.35 237.97H385.64C388.14 237.89 390.95 239.65 392.47 241.36C394.31 243.42 396.86 248.88 397.79 254.33C398.15 256.15 398.19 258.61 395.75 258.77C393.53 258.92 393.29 256.97 393 255.27C392.59 252.94 391.9 250.66 390.96 248.49C390.84 248.21 390.44 247.99 390.45 248.45C390.48 251.56 390.47 254.67 390.47 257.79C390.47 263.97 390.47 270.14 390.47 276.32C390.47 278.17 389.44 279.5 387.47 279.5C385.5 279.5 384.38 278.13 384.38 276.31C384.38 271.59 384.38 265.88 384.38 261.17C384.38 260.71 384.47 260.15 383.73 260.15H382.27ZM376.65 230.83C376.65 234.46 379.43 237.26 383.05 237.26C386.57 237.26 389.36 234.47 389.36 230.93C389.36 227.3 386.67 224.6 383.05 224.6C379.43 224.5 376.65 227.2 376.65 230.83Z" fill="#128279" stroke="#128279" stroke-width="1.75" stroke-miterlimit="10" stroke-linejoin="round"/>
<path d="M344.938 251.872V254.032H349.906V259H352.09V254.032H357.058V251.872H352.09V246.904H349.906V251.872H344.938Z" fill="#8E909A"/>
<path d="M334.18 228.78C334.18 241.52 307.89 241.1 307.89 251.99C307.89 256.61 311.9 259.12 316.2 261.52" stroke="#128279" stroke-width="1.75" stroke-miterlimit="10" stroke-linecap="round"/>
<path d="M307.82 228.78C307.82 233.95 312.07 236.95 317.13 239.42" stroke="#128279" stroke-width="1.75" stroke-miterlimit="10" stroke-linecap="round"/>
<path d="M307.819 275.22C307.819 262.48 334.109 262.9 334.109 252.01C334.109 247.39 330.099 244.88 325.799 242.48" stroke="#128279" stroke-width="1.75" stroke-miterlimit="10" stroke-linecap="round"/>
<path d="M334.18 275.22C334.18 270.05 329.93 267.05 324.87 264.58" stroke="#128279" stroke-width="1.75" stroke-miterlimit="10" stroke-linecap="round"/>
<path d="M326.87 231.7H315.13" stroke="#128279" stroke-width="1.75" stroke-miterlimit="10" stroke-linecap="round"/>
<path d="M326.87 252.26H315.13" stroke="#128279" stroke-width="1.75" stroke-miterlimit="10" stroke-linecap="round"/>
<path d="M326.87 272.82H315.13" stroke="#128279" stroke-width="1.75" stroke-miterlimit="10" stroke-linecap="round"/>
<path d="M382.27 360.15C381.53 360.15 381.62 360.7 381.62 361.17C381.62 365.89 381.62 371.6 381.62 376.31C381.62 378.12 380.55 379.5 378.57 379.5C376.59 379.5 375.52 378.17 375.52 376.32C375.52 370.14 375.52 363.97 375.52 357.79C375.52 354.68 375.51 351.57 375.54 348.45C375.55 347.98 375.15 348.2 375.03 348.49C374.09 350.66 373.4 352.94 372.99 355.27C372.69 356.96 372.45 358.92 370.24 358.77C367.8 358.61 367.84 356.15 368.2 354.33C369.13 348.88 371.68 343.42 373.52 341.36C375.05 339.65 377.85 337.89 380.35 337.97H385.64C388.14 337.89 390.95 339.65 392.47 341.36C394.31 343.42 396.86 348.88 397.79 354.33C398.15 356.15 398.19 358.61 395.75 358.77C393.53 358.92 393.29 356.97 393 355.27C392.59 352.94 391.9 350.66 390.96 348.49C390.84 348.21 390.44 347.99 390.45 348.45C390.48 351.56 390.47 354.67 390.47 357.79C390.47 363.97 390.47 370.14 390.47 376.32C390.47 378.17 389.44 379.5 387.47 379.5C385.5 379.5 384.38 378.13 384.38 376.31C384.38 371.59 384.38 365.88 384.38 361.17C384.38 360.71 384.47 360.15 383.73 360.15H382.27ZM376.65 330.83C376.65 334.46 379.43 337.26 383.05 337.26C386.57 337.26 389.36 334.47 389.36 330.93C389.36 327.3 386.67 324.6 383.05 324.6C379.43 324.5 376.65 327.2 376.65 330.83Z" fill="#19AC9F" stroke="#19AC9F" stroke-width="1.75" stroke-miterlimit="10" stroke-linejoin="round"/>
<path d="M344.938 351.872V354.032H349.906V359H352.09V354.032H357.058V351.872H352.09V346.904H349.906V351.872H344.938Z" fill="#8E909A"/>
<path d="M334.18 328.78C334.18 341.52 307.89 341.1 307.89 351.99C307.89 356.61 311.9 359.12 316.2 361.52" stroke="#19AC9F" stroke-width="1.75" stroke-miterlimit="10" stroke-linecap="round"/>
<path d="M307.82 328.78C307.82 333.95 312.07 336.95 317.13 339.42" stroke="#19AC9F" stroke-width="1.75" stroke-miterlimit="10" stroke-linecap="round"/>
<path d="M307.819 375.22C307.819 362.48 334.109 362.9 334.109 352.01C334.109 347.39 330.099 344.88 325.799 342.48" stroke="#19AC9F" stroke-width="1.75" stroke-miterlimit="10" stroke-linecap="round"/>
<path d="M334.18 375.22C334.18 370.05 329.93 367.05 324.87 364.58" stroke="#19AC9F" stroke-width="1.75" stroke-miterlimit="10" stroke-linecap="round"/>
<path d="M326.87 331.7H315.13" stroke="#19AC9F" stroke-width="1.75" stroke-miterlimit="10" stroke-linecap="round"/>
<path d="M326.87 352.26H315.13" stroke="#19AC9F" stroke-width="1.75" stroke-miterlimit="10" stroke-linecap="round"/>
<path d="M326.87 372.82H315.13" stroke="#19AC9F" stroke-width="1.75" stroke-miterlimit="10" stroke-linecap="round"/>
<path d="M382.27 460.15C381.53 460.15 381.62 460.7 381.62 461.17C381.62 465.89 381.62 471.6 381.62 476.31C381.62 478.12 380.55 479.5 378.57 479.5C376.59 479.5 375.52 478.17 375.52 476.32C375.52 470.14 375.52 463.97 375.52 457.79C375.52 454.68 375.51 451.57 375.54 448.45C375.55 447.98 375.15 448.2 375.03 448.49C374.09 450.66 373.4 452.94 372.99 455.27C372.69 456.96 372.45 458.92 370.24 458.77C367.8 458.61 367.84 456.15 368.2 454.33C369.13 448.88 371.68 443.42 373.52 441.36C375.05 439.65 377.85 437.89 380.35 437.97H385.64C388.14 437.89 390.95 439.65 392.47 441.36C394.31 443.42 396.86 448.88 397.79 454.33C398.15 456.15 398.19 458.61 395.75 458.77C393.53 458.92 393.29 456.97 393 455.27C392.59 452.94 391.9 450.66 390.96 448.49C390.84 448.21 390.44 447.99 390.45 448.45C390.48 451.56 390.47 454.67 390.47 457.79C390.47 463.97 390.47 470.14 390.47 476.32C390.47 478.17 389.44 479.5 387.47 479.5C385.5 479.5 384.38 478.13 384.38 476.31C384.38 471.59 384.38 465.88 384.38 461.17C384.38 460.71 384.47 460.15 383.73 460.15H382.27ZM376.65 430.83C376.65 434.46 379.43 437.26 383.05 437.26C386.57 437.26 389.36 434.47 389.36 430.93C389.36 427.3 386.67 424.6 383.05 424.6C379.43 424.5 376.65 427.2 376.65 430.83Z" fill="#80D1CA" stroke="#80D1CA" stroke-width="1.75" stroke-miterlimit="10" stroke-linejoin="round"/>
<path d="M344.938 451.872V454.032H349.906V459H352.09V454.032H357.058V451.872H352.09V446.904H349.906V451.872H344.938Z" fill="#8E909A"/>
<path d="M334.18 428.78C334.18 441.52 307.89 441.1 307.89 451.99C307.89 456.61 311.9 459.12 316.2 461.52" stroke="#80D1CA" stroke-width="1.75" stroke-miterlimit="10" stroke-linecap="round"/>
<path d="M307.82 428.78C307.82 433.95 312.07 436.95 317.13 439.42" stroke="#80D1CA" stroke-width="1.75" stroke-miterlimit="10" stroke-linecap="round"/>
<path d="M307.819 475.22C307.819 462.48 334.109 462.9 334.109 452.01C334.109 447.39 330.099 444.88 325.799 442.48" stroke="#80D1CA" stroke-width="1.75" stroke-miterlimit="10" stroke-linecap="round"/>
<path d="M334.18 475.22C334.18 470.05 329.93 467.05 324.87 464.58" stroke="#80D1CA" stroke-width="1.75" stroke-miterlimit="10" stroke-linecap="round"/>
<path d="M326.87 431.7H315.13" stroke="#80D1CA" stroke-width="1.75" stroke-miterlimit="10" stroke-linecap="round"/>
<path d="M326.87 452.26H315.13" stroke="#80D1CA" stroke-width="1.75" stroke-miterlimit="10" stroke-linecap="round"/>
<path d="M326.87 472.82H315.13" stroke="#80D1CA" stroke-width="1.75" stroke-miterlimit="10" stroke-linecap="round"/>
<path d="M93.0769 55.888V48.904H89.5489V67H93.0769V58.96H100.733V67H104.261V48.904H100.733V55.888H93.0769ZM107.288 61.024C107.288 64.744 109.952 67.36 113.96 67.36C117.896 67.36 120.728 64.888 120.728 61.096C120.728 57.448 117.92 54.856 114.032 54.856C110.144 54.856 107.288 57.448 107.288 61.024ZM110.696 61.072C110.696 59.344 112.232 57.832 114.008 57.832C115.832 57.832 117.344 59.344 117.344 61.12C117.344 62.92 115.832 64.408 114.008 64.408C112.16 64.408 110.696 62.944 110.696 61.072ZM124.79 55.24H121.094L127.118 67.24H128.63L131.774 60.088L134.942 67.24H136.454L142.526 55.24H138.854L135.686 62.128L132.494 54.928H131.078L127.886 62.032L124.79 55.24ZM155.584 65.224L151.288 73.288H154.984L164.488 55.24H160.744L157.384 61.936L153.856 55.24H150.016L155.584 65.224ZM164.85 61.024C164.85 64.744 167.514 67.36 171.522 67.36C175.458 67.36 178.29 64.888 178.29 61.096C178.29 57.448 175.482 54.856 171.594 54.856C167.706 54.856 164.85 57.448 164.85 61.024ZM168.258 61.072C168.258 59.344 169.794 57.832 171.57 57.832C173.394 57.832 174.906 59.344 174.906 61.12C174.906 62.92 173.394 64.408 171.57 64.408C169.722 64.408 168.258 62.944 168.258 61.072ZM184.114 55.24H180.802V62.464C180.802 65.608 182.842 67.36 186.49 67.36C190.138 67.36 192.178 65.608 192.178 62.464V55.24H188.89V61.912C188.89 63.688 188.098 64.576 186.49 64.576C184.906 64.576 184.114 63.688 184.114 61.912V55.24ZM195.287 55.24V67H198.599V61.36C198.599 59.008 199.535 57.832 201.407 57.832C201.959 57.832 202.487 57.976 202.991 58.24L203.447 55.144C202.943 54.952 202.463 54.856 202.007 54.856C200.543 54.856 199.415 55.576 198.599 57.016V55.24H195.287ZM212.994 48.904V67H218.13C224.178 67 227.898 62.896 227.898 57.928C227.898 52.864 224.178 48.904 218.178 48.904H212.994ZM216.522 63.952V51.976H217.458C219.738 51.976 221.394 52.432 222.546 53.632C223.65 54.784 224.274 56.248 224.274 57.952C224.274 59.584 223.698 60.928 222.786 62.032C221.634 63.4 219.858 63.952 217.458 63.952H216.522ZM231.158 67H234.686V54.76L245.702 67.36H248.15V48.904H244.622V61.096L233.582 48.496H231.158V67ZM263.144 63.184L264.68 67H268.472L260.84 48.52H258.2L250.352 67H254.096L255.752 63.184H263.144ZM262.04 60.328H256.856L259.496 53.824L262.04 60.328ZM286.482 55.24V56.992C285.474 55.552 284.202 54.856 282.57 54.856C279.306 54.856 276.858 57.592 276.858 61.096C276.858 64.648 279.33 67.36 282.642 67.36C284.322 67.36 285.57 66.64 286.482 65.2V67H289.794V55.24H286.482ZM283.554 64.408C281.706 64.408 280.266 62.944 280.266 61.12C280.266 59.296 281.706 57.832 283.554 57.832C285.354 57.832 286.842 59.32 286.842 61.144C286.842 62.92 285.306 64.408 283.554 64.408ZM296.336 58.072H299.336V55.24H296.336V51.952C296.336 50.08 296.768 49.312 297.848 49.312C298.28 49.312 298.784 49.456 299.336 49.744V46.744C298.832 46.48 298.232 46.36 297.608 46.36C295.328 46.36 293.024 47.824 293.024 51.472V55.24H291.776V58.072H293.024V67H296.336V58.072ZM305.055 58.072H308.055V55.24H305.055V51.952C305.055 50.08 305.487 49.312 306.567 49.312C306.999 49.312 307.503 49.456 308.055 49.744V46.744C307.551 46.48 306.951 46.36 306.327 46.36C304.047 46.36 301.743 47.824 301.743 51.472V55.24H300.495V58.072H301.743V67H305.055V58.072ZM312.562 61.648H321.37V61.216C321.37 57.328 319.138 54.856 315.346 54.856C311.506 54.856 309.202 57.328 309.202 61.144C309.202 64.888 311.674 67.36 315.514 67.36C318.346 67.36 320.266 66.16 321.274 63.736L318.25 63.232C317.554 64.288 316.618 64.816 315.466 64.816C313.642 64.816 312.562 63.616 312.562 61.648ZM318.25 59.56H312.706C312.97 58.048 313.978 57.208 315.442 57.208C316.93 57.208 317.866 58 318.25 59.56ZM332.72 58.816V55.576C331.808 55.096 330.824 54.856 329.744 54.856C326.048 54.856 323.264 57.592 323.264 61.168C323.264 64.672 326.024 67.36 329.696 67.36C330.704 67.36 331.712 67.12 332.72 66.664V63.424C331.88 64.072 330.992 64.408 330.032 64.408C328.112 64.408 326.672 63.04 326.672 61.12C326.672 59.2 328.136 57.832 330.032 57.832C330.968 57.832 331.856 58.144 332.72 58.816ZM333.936 58.072H335.232V62.752C335.232 65.464 336.624 67.36 339.192 67.36C339.552 67.36 340.224 67.336 340.584 67.288V64.408C340.416 64.432 340.2 64.456 339.984 64.456C338.76 64.456 338.544 63.4 338.544 61.576V58.072H340.848V55.24H338.544V51.232H335.232V55.24H333.936V58.072ZM349.399 57.976L351.031 56.056C349.903 55.216 348.631 54.808 347.191 54.808C344.839 54.808 342.991 56.272 342.991 58.552C342.991 60.256 343.567 61.024 346.423 62.032C347.959 62.584 348.223 62.872 348.223 63.52C348.223 64.264 347.575 64.816 346.735 64.816C345.799 64.816 344.863 64.336 343.951 63.424L342.247 65.44C343.423 66.736 344.911 67.384 346.711 67.384C349.591 67.384 351.631 65.632 351.631 63.16C351.631 61.288 350.791 60.472 348.055 59.512C346.495 58.96 346.183 58.768 346.183 58.192C346.183 57.64 346.735 57.208 347.455 57.208C348.079 57.208 348.727 57.472 349.399 57.976ZM360.069 58.072H361.365V62.752C361.365 65.464 362.757 67.36 365.325 67.36C365.685 67.36 366.357 67.336 366.717 67.288V64.408C366.549 64.432 366.333 64.456 366.117 64.456C364.893 64.456 364.677 63.4 364.677 61.576V58.072H366.981V55.24H364.677V51.232H361.365V55.24H360.069V58.072ZM369.076 46.648V67H372.388V60.976C372.388 58.768 373.204 57.664 374.884 57.664C376.516 57.664 377.116 58.456 377.116 60.544V67H380.428V59.608C380.428 58.312 380.236 57.256 379.612 56.464C378.82 55.48 377.74 54.856 376.06 54.856C374.548 54.856 373.324 55.504 372.388 56.776V46.648H369.076ZM386.273 61.648H395.081V61.216C395.081 57.328 392.849 54.856 389.057 54.856C385.217 54.856 382.913 57.328 382.913 61.144C382.913 64.888 385.385 67.36 389.225 67.36C392.057 67.36 393.977 66.16 394.985 63.736L391.961 63.232C391.265 64.288 390.329 64.816 389.177 64.816C387.353 64.816 386.273 63.616 386.273 61.648ZM391.961 59.56H386.417C386.681 58.048 387.689 57.208 389.153 57.208C390.641 57.208 391.577 58 391.961 59.56ZM407.165 55.24H403.469L409.493 67.24H411.005L414.149 60.088L417.317 67.24H418.829L424.901 55.24H421.229L418.061 62.128L414.869 54.928H413.453L410.261 62.032L407.165 55.24ZM434.935 55.24V56.992C433.927 55.552 432.655 54.856 431.023 54.856C427.759 54.856 425.311 57.592 425.311 61.096C425.311 64.648 427.783 67.36 431.095 67.36C432.775 67.36 434.023 66.64 434.935 65.2V67H438.247V55.24H434.935ZM432.007 64.408C430.159 64.408 428.719 62.944 428.719 61.12C428.719 59.296 430.159 57.832 432.007 57.832C433.807 57.832 435.295 59.32 435.295 61.144C435.295 62.92 433.759 64.408 432.007 64.408ZM445.53 65.224L441.234 73.288H444.93L454.434 55.24H450.69L447.33 61.936L443.802 55.24H439.962L445.53 65.224ZM467.467 65.224L463.171 73.288H466.867L476.371 55.24H472.627L469.267 61.936L465.739 55.24H461.899L467.467 65.224ZM476.733 61.024C476.733 64.744 479.397 67.36 483.405 67.36C487.341 67.36 490.173 64.888 490.173 61.096C490.173 57.448 487.365 54.856 483.477 54.856C479.589 54.856 476.733 57.448 476.733 61.024ZM480.141 61.072C480.141 59.344 481.677 57.832 483.453 57.832C485.277 57.832 486.789 59.344 486.789 61.12C486.789 62.92 485.277 64.408 483.453 64.408C481.605 64.408 480.141 62.944 480.141 61.072ZM495.997 55.24H492.685V62.464C492.685 65.608 494.725 67.36 498.373 67.36C502.021 67.36 504.061 65.608 504.061 62.464V55.24H500.773V61.912C500.773 63.688 499.981 64.576 498.373 64.576C496.789 64.576 495.997 63.688 495.997 61.912V55.24ZM514.576 55.24V67H517.888V61.36C517.888 59.008 518.824 57.832 520.696 57.832C521.248 57.832 521.776 57.976 522.28 58.24L522.736 55.144C522.232 54.952 521.752 54.856 521.296 54.856C519.832 54.856 518.704 55.576 517.888 57.016V55.24H514.576ZM527.062 61.648H535.87V61.216C535.87 57.328 533.638 54.856 529.846 54.856C526.006 54.856 523.702 57.328 523.702 61.144C523.702 64.888 526.174 67.36 530.014 67.36C532.846 67.36 534.766 66.16 535.774 63.736L532.75 63.232C532.054 64.288 531.118 64.816 529.966 64.816C528.142 64.816 527.062 63.616 527.062 61.648ZM532.75 59.56H527.206C527.47 58.048 528.478 57.208 529.942 57.208C531.43 57.208 532.366 58 532.75 59.56ZM544.844 57.976L546.476 56.056C545.348 55.216 544.076 54.808 542.636 54.808C540.284 54.808 538.436 56.272 538.436 58.552C538.436 60.256 539.012 61.024 541.868 62.032C543.404 62.584 543.668 62.872 543.668 63.52C543.668 64.264 543.02 64.816 542.18 64.816C541.244 64.816 540.308 64.336 539.396 63.424L537.692 65.44C538.868 66.736 540.356 67.384 542.156 67.384C545.036 67.384 547.076 65.632 547.076 63.16C547.076 61.288 546.236 60.472 543.5 59.512C541.94 58.96 541.628 58.768 541.628 58.192C541.628 57.64 542.18 57.208 542.9 57.208C543.524 57.208 544.172 57.472 544.844 57.976ZM556.604 54.856C554.972 54.856 553.7 55.552 552.692 56.992V55.24H549.38V73.264H552.692V65.2C553.604 66.64 554.852 67.36 556.532 67.36C559.844 67.36 562.316 64.648 562.316 61.096C562.316 57.592 559.868 54.856 556.604 54.856ZM555.62 64.408C553.868 64.408 552.332 62.92 552.332 61.144C552.332 59.32 553.82 57.832 555.62 57.832C557.468 57.832 558.908 59.296 558.908 61.12C558.908 62.944 557.468 64.408 555.62 64.408ZM564.202 61.024C564.202 64.744 566.866 67.36 570.874 67.36C574.81 67.36 577.642 64.888 577.642 61.096C577.642 57.448 574.834 54.856 570.946 54.856C567.058 54.856 564.202 57.448 564.202 61.024ZM567.61 61.072C567.61 59.344 569.146 57.832 570.922 57.832C572.746 57.832 574.258 59.344 574.258 61.12C574.258 62.92 572.746 64.408 570.922 64.408C569.074 64.408 567.61 62.944 567.61 61.072ZM580.154 55.24V67H583.466V60.904C583.466 58.696 584.306 57.664 585.962 57.664C587.642 57.664 588.194 58.576 588.194 60.544V67H591.506V59.392C591.506 56.224 589.514 54.856 587.138 54.856C585.65 54.856 584.426 55.48 583.466 56.704V55.24H580.154ZM603.615 46.648V56.992C602.607 55.552 601.335 54.856 599.703 54.856C596.439 54.856 593.991 57.592 593.991 61.096C593.991 64.648 596.463 67.36 599.775 67.36C601.455 67.36 602.703 66.64 603.615 65.2V67H606.927V46.648H603.615ZM600.687 64.408C598.839 64.408 597.399 62.944 597.399 61.12C597.399 59.296 598.839 57.832 600.687 57.832C602.487 57.832 603.975 59.32 603.975 61.144C603.975 62.92 602.439 64.408 600.687 64.408ZM616.171 58.072H617.467V62.752C617.467 65.464 618.859 67.36 621.427 67.36C621.787 67.36 622.459 67.336 622.819 67.288V64.408C622.651 64.432 622.435 64.456 622.219 64.456C620.995 64.456 620.779 63.4 620.779 61.576V58.072H623.083V55.24H620.779V51.232H617.467V55.24H616.171V58.072ZM624.553 61.024C624.553 64.744 627.217 67.36 631.225 67.36C635.161 67.36 637.993 64.888 637.993 61.096C637.993 57.448 635.185 54.856 631.297 54.856C627.409 54.856 624.553 57.448 624.553 61.024ZM627.961 61.072C627.961 59.344 629.497 57.832 631.273 57.832C633.097 57.832 634.609 59.344 634.609 61.12C634.609 62.92 633.097 64.408 631.273 64.408C629.425 64.408 627.961 62.944 627.961 61.072ZM656.912 46.648V56.992C655.904 55.552 654.632 54.856 653 54.856C649.736 54.856 647.288 57.592 647.288 61.096C647.288 64.648 649.76 67.36 653.072 67.36C654.752 67.36 656 66.64 656.912 65.2V67H660.224V46.648H656.912ZM653.984 64.408C652.136 64.408 650.696 62.944 650.696 61.12C650.696 59.296 652.136 57.832 653.984 57.832C655.784 57.832 657.272 59.32 657.272 61.144C657.272 62.92 655.736 64.408 653.984 64.408ZM663.333 55.24V67H666.645V61.36C666.645 59.008 667.581 57.832 669.453 57.832C670.005 57.832 670.533 57.976 671.037 58.24L671.493 55.144C670.989 54.952 670.509 54.856 670.053 54.856C668.589 54.856 667.461 55.576 666.645 57.016V55.24H663.333ZM676.56 55.24H673.248V62.464C673.248 65.608 675.288 67.36 678.936 67.36C682.584 67.36 684.624 65.608 684.624 62.464V55.24H681.336V61.912C681.336 63.688 680.544 64.576 678.936 64.576C677.352 64.576 676.56 63.688 676.56 61.912V55.24ZM696.684 55.24V56.872C695.7 55.504 694.452 54.856 692.868 54.856C689.508 54.856 687.108 57.616 687.108 61.264C687.108 64.816 689.46 67.36 692.7 67.36C694.476 67.36 695.748 66.664 696.684 65.248V67.192C696.684 69.424 695.652 70.504 693.756 70.504C692.244 70.504 691.308 69.808 690.972 68.392H687.42C687.684 71.176 690.276 73.312 693.684 73.312C696.54 73.312 698.868 71.8 699.612 69.616C699.828 68.992 699.972 67.96 699.972 66.568V55.24H696.684ZM693.804 64.408C692.004 64.408 690.516 62.92 690.516 61.12C690.516 59.272 692.004 57.832 693.804 57.832C695.604 57.832 697.092 59.32 697.092 61.144C697.092 62.92 695.556 64.408 693.804 64.408ZM709.563 57.976L711.195 56.056C710.067 55.216 708.795 54.808 707.355 54.808C705.003 54.808 703.155 56.272 703.155 58.552C703.155 60.256 703.731 61.024 706.587 62.032C708.123 62.584 708.387 62.872 708.387 63.52C708.387 64.264 707.739 64.816 706.899 64.816C705.963 64.816 705.027 64.336 704.115 63.424L702.411 65.44C703.587 66.736 705.075 67.384 706.875 67.384C709.755 67.384 711.795 65.632 711.795 63.16C711.795 61.288 710.955 60.472 708.219 59.512C706.659 58.96 706.347 58.768 706.347 58.192C706.347 57.64 706.899 57.208 707.619 57.208C708.243 57.208 708.891 57.472 709.563 57.976Z" fill="#161616"/>
<path d="M586.555 131.549L576.356 141.741C572.325 145.771 572.325 152.368 576.356 156.398L576.589 156.631C580.619 160.661 587.216 160.661 591.259 156.631L601.451 146.439M586.555 131.549L596.754 121.356C600.784 117.326 607.38 117.326 611.41 121.356L611.644 121.589C615.674 125.62 615.674 132.216 611.644 136.246L601.451 146.439M586.555 131.549L601.451 146.439" stroke="#2C6BAA" stroke-width="1.75" stroke-miterlimit="10" stroke-linejoin="round"/>
<path d="M546.079 177.16V185H548.287V180.936C548.287 179.464 548.847 178.776 549.951 178.776C551.071 178.776 551.439 179.384 551.439 180.696V185H553.647V179.928C553.647 177.816 552.319 176.904 550.735 176.904C549.743 176.904 548.927 177.32 548.287 178.136V177.16H546.079ZM555.304 181.016C555.304 183.496 557.08 185.24 559.752 185.24C562.376 185.24 564.264 183.592 564.264 181.064C564.264 178.632 562.392 176.904 559.8 176.904C557.208 176.904 555.304 178.632 555.304 181.016ZM557.576 181.048C557.576 179.896 558.6 178.888 559.784 178.888C561 178.888 562.008 179.896 562.008 181.08C562.008 182.28 561 183.272 559.784 183.272C558.552 183.272 557.576 182.296 557.576 181.048ZM565.938 177.16V185H568.146V181.24C568.146 179.672 568.77 178.888 570.018 178.888C570.386 178.888 570.738 178.984 571.074 179.16L571.378 177.096C571.042 176.968 570.722 176.904 570.418 176.904C569.442 176.904 568.69 177.384 568.146 178.344V177.16H565.938ZM572.548 177.16V185H574.756V180.984C574.756 179.512 575.252 178.776 576.228 178.776C577.124 178.776 577.556 179.368 577.556 180.696V185H579.764V180.984C579.764 179.512 580.26 178.776 581.236 178.776C582.132 178.776 582.548 179.384 582.548 180.696V185H584.756V179.928C584.756 177.816 583.7 176.904 582.148 176.904C581.044 176.904 580.18 177.384 579.572 178.328C578.996 177.384 578.18 176.904 577.14 176.904C576.212 176.904 575.428 177.288 574.756 178.056V177.16H572.548ZM592.845 177.16V178.328C592.173 177.368 591.325 176.904 590.237 176.904C588.061 176.904 586.429 178.728 586.429 181.064C586.429 183.432 588.077 185.24 590.285 185.24C591.405 185.24 592.237 184.76 592.845 183.8V185H595.053V177.16H592.845ZM590.893 183.272C589.661 183.272 588.701 182.296 588.701 181.08C588.701 179.864 589.661 178.888 590.893 178.888C592.093 178.888 593.085 179.88 593.085 181.096C593.085 182.28 592.061 183.272 590.893 183.272ZM599.206 171.432H596.998V182.072C596.998 183.88 597.846 185.24 599.798 185.24C600.006 185.24 600.294 185.224 600.534 185.192V183.272C600.422 183.288 600.326 183.304 600.23 183.304C599.414 183.304 599.206 182.6 599.206 181.384V171.432ZM612.798 171.432V178.328C612.126 177.368 611.278 176.904 610.19 176.904C608.014 176.904 606.382 178.728 606.382 181.064C606.382 183.432 608.03 185.24 610.238 185.24C611.358 185.24 612.19 184.76 612.798 183.8V185H615.006V171.432H612.798ZM610.846 183.272C609.614 183.272 608.654 182.296 608.654 181.08C608.654 179.864 609.614 178.888 610.846 178.888C612.046 178.888 613.038 179.88 613.038 181.096C613.038 182.28 612.014 183.272 610.846 183.272ZM616.663 181.016C616.663 183.496 618.439 185.24 621.111 185.24C623.735 185.24 625.623 183.592 625.623 181.064C625.623 178.632 623.751 176.904 621.159 176.904C618.567 176.904 616.663 178.632 616.663 181.016ZM618.935 181.048C618.935 179.896 619.959 178.888 621.143 178.888C622.359 178.888 623.367 179.896 623.367 181.08C623.367 182.28 622.359 183.272 621.143 183.272C619.911 183.272 618.935 182.296 618.935 181.048ZM631.602 178.984L632.69 177.704C631.938 177.144 631.09 176.872 630.13 176.872C628.562 176.872 627.33 177.848 627.33 179.368C627.33 180.504 627.714 181.016 629.618 181.688C630.642 182.056 630.818 182.248 630.818 182.68C630.818 183.176 630.386 183.544 629.826 183.544C629.202 183.544 628.578 183.224 627.97 182.616L626.834 183.96C627.618 184.824 628.61 185.256 629.81 185.256C631.73 185.256 633.09 184.088 633.09 182.44C633.09 181.192 632.53 180.648 630.706 180.008C629.666 179.64 629.458 179.512 629.458 179.128C629.458 178.76 629.826 178.472 630.306 178.472C630.722 178.472 631.154 178.648 631.602 178.984ZM636.45 181.432H642.322V181.144C642.322 178.552 640.834 176.904 638.306 176.904C635.746 176.904 634.21 178.552 634.21 181.096C634.21 183.592 635.858 185.24 638.418 185.24C640.306 185.24 641.586 184.44 642.258 182.824L640.242 182.488C639.778 183.192 639.154 183.544 638.386 183.544C637.17 183.544 636.45 182.744 636.45 181.432ZM640.242 180.04H636.546C636.722 179.032 637.394 178.472 638.37 178.472C639.362 178.472 639.986 179 640.242 180.04Z" fill="#161616"/>
<path d="M578.356 242.398L578.589 242.631C582.619 246.661 589.216 246.661 593.259 242.631L603.451 232.438L588.555 217.548L578.356 227.741C574.325 231.771 574.325 238.367 578.356 242.398Z" stroke="#2C6BAA" stroke-width="1.75" stroke-miterlimit="10" stroke-linejoin="round"/>
<path d="M555.847 265.432H553.639V276.072C553.639 277.88 554.487 279.24 556.439 279.24C556.647 279.24 556.935 279.224 557.175 279.192V277.272C557.063 277.288 556.967 277.304 556.871 277.304C556.055 277.304 555.847 276.6 555.847 275.384V265.432ZM558.085 275.016C558.085 277.496 559.861 279.24 562.533 279.24C565.157 279.24 567.045 277.592 567.045 275.064C567.045 272.632 565.173 270.904 562.581 270.904C559.989 270.904 558.085 272.632 558.085 275.016ZM560.357 275.048C560.357 273.896 561.381 272.888 562.565 272.888C563.781 272.888 564.789 273.896 564.789 275.08C564.789 276.28 563.781 277.272 562.565 277.272C561.333 277.272 560.357 276.296 560.357 275.048ZM569.753 271.16H567.289L571.305 279.16H572.313L574.409 274.392L576.521 279.16H577.529L581.577 271.16H579.129L577.017 275.752L574.889 270.952H573.945L571.817 275.688L569.753 271.16ZM584.106 275.432H589.978V275.144C589.978 272.552 588.49 270.904 585.962 270.904C583.402 270.904 581.866 272.552 581.866 275.096C581.866 277.592 583.514 279.24 586.074 279.24C587.962 279.24 589.242 278.44 589.914 276.824L587.898 276.488C587.434 277.192 586.81 277.544 586.042 277.544C584.826 277.544 584.106 276.744 584.106 275.432ZM587.898 274.04H584.202C584.378 273.032 585.05 272.472 586.026 272.472C587.018 272.472 587.642 273 587.898 274.04ZM591.657 271.16V279H593.865V275.24C593.865 273.672 594.489 272.888 595.737 272.888C596.105 272.888 596.457 272.984 596.793 273.16L597.097 271.096C596.761 270.968 596.441 270.904 596.137 270.904C595.161 270.904 594.409 271.384 593.865 272.344V271.16H591.657ZM609.11 265.432V272.328C608.438 271.368 607.59 270.904 606.502 270.904C604.326 270.904 602.694 272.728 602.694 275.064C602.694 277.432 604.342 279.24 606.55 279.24C607.67 279.24 608.502 278.76 609.11 277.8V279H611.318V265.432H609.11ZM607.158 277.272C605.926 277.272 604.966 276.296 604.966 275.08C604.966 273.864 605.926 272.888 607.158 272.888C608.358 272.888 609.35 273.88 609.35 275.096C609.35 276.28 608.326 277.272 607.158 277.272ZM612.976 275.016C612.976 277.496 614.752 279.24 617.424 279.24C620.048 279.24 621.936 277.592 621.936 275.064C621.936 272.632 620.064 270.904 617.472 270.904C614.88 270.904 612.976 272.632 612.976 275.016ZM615.248 275.048C615.248 273.896 616.272 272.888 617.456 272.888C618.672 272.888 619.68 273.896 619.68 275.08C619.68 276.28 618.672 277.272 617.456 277.272C616.224 277.272 615.248 276.296 615.248 275.048ZM627.914 272.984L629.002 271.704C628.25 271.144 627.402 270.872 626.442 270.872C624.874 270.872 623.642 271.848 623.642 273.368C623.642 274.504 624.026 275.016 625.93 275.688C626.954 276.056 627.13 276.248 627.13 276.68C627.13 277.176 626.698 277.544 626.138 277.544C625.514 277.544 624.89 277.224 624.282 276.616L623.146 277.96C623.93 278.824 624.922 279.256 626.122 279.256C628.042 279.256 629.402 278.088 629.402 276.44C629.402 275.192 628.842 274.648 627.018 274.008C625.978 273.64 625.77 273.512 625.77 273.128C625.77 272.76 626.138 272.472 626.618 272.472C627.034 272.472 627.466 272.648 627.914 272.984ZM632.762 275.432H638.634V275.144C638.634 272.552 637.146 270.904 634.618 270.904C632.058 270.904 630.522 272.552 630.522 275.096C630.522 277.592 632.17 279.24 634.73 279.24C636.618 279.24 637.898 278.44 638.57 276.824L636.554 276.488C636.09 277.192 635.466 277.544 634.698 277.544C633.482 277.544 632.762 276.744 632.762 275.432ZM636.554 274.04H632.858C633.034 273.032 633.706 272.472 634.682 272.472C635.674 272.472 636.298 273 636.554 274.04Z" fill="#161616"/>
<path d="M568.555 324.549L558.356 334.741C554.325 338.771 554.325 345.368 558.356 349.398L558.589 349.631C562.619 353.661 569.216 353.661 573.259 349.631L583.451 339.439M568.555 324.549L578.754 314.356C582.784 310.326 589.38 310.326 593.41 314.356L593.644 314.589C597.674 318.62 597.674 325.216 593.644 329.246L583.451 339.439M568.555 324.549L583.451 339.439" stroke="#2C6BAA" stroke-width="1.75" stroke-miterlimit="10" stroke-linejoin="round"/>
<path d="M603.888 324.549L593.689 334.741C589.658 338.771 589.658 345.368 593.689 349.398L593.922 349.631C597.952 353.661 604.549 353.661 608.592 349.631L618.784 339.439M603.888 324.549L614.087 314.356C618.117 310.326 624.713 310.326 628.743 314.356L628.977 314.589C633.007 318.62 633.007 325.216 628.977 329.246L618.784 339.439M603.888 324.549L618.784 339.439" stroke="#2C6BAA" stroke-width="1.75" stroke-miterlimit="10" stroke-linejoin="round"/>
<path d="M549.149 373.432V387H551.357V382.984C551.357 381.512 551.901 380.776 553.021 380.776C554.109 380.776 554.509 381.304 554.509 382.696V387H556.717V382.072C556.717 381.208 556.589 380.504 556.173 379.976C555.645 379.32 554.925 378.904 553.805 378.904C552.797 378.904 551.981 379.336 551.357 380.184V373.432H549.149ZM558.55 375.848C558.55 376.568 559.142 377.16 559.862 377.16C560.582 377.16 561.174 376.568 561.174 375.848C561.174 375.128 560.582 374.536 559.862 374.536C559.142 374.536 558.55 375.128 558.55 375.848ZM560.966 379.16H558.758V387H560.966V379.16ZM568.977 379.16V380.248C568.321 379.336 567.489 378.904 566.433 378.904C564.193 378.904 562.593 380.744 562.593 383.176C562.593 385.544 564.161 387.24 566.321 387.24C567.505 387.24 568.353 386.776 568.977 385.832V387.128C568.977 388.616 568.289 389.336 567.025 389.336C566.017 389.336 565.393 388.872 565.169 387.928H562.801C562.977 389.784 564.705 391.208 566.977 391.208C568.881 391.208 570.433 390.2 570.929 388.744C571.073 388.328 571.169 387.64 571.169 386.712V379.16H568.977ZM567.057 385.272C565.857 385.272 564.865 384.28 564.865 383.08C564.865 381.848 565.857 380.888 567.057 380.888C568.257 380.888 569.249 381.88 569.249 383.096C569.249 384.28 568.225 385.272 567.057 385.272ZM573.259 373.432V387H575.467V382.984C575.467 381.512 576.011 380.776 577.131 380.776C578.219 380.776 578.619 381.304 578.619 382.696V387H580.827V382.072C580.827 381.208 580.699 380.504 580.283 379.976C579.755 379.32 579.035 378.904 577.915 378.904C576.907 378.904 576.091 379.336 575.467 380.184V373.432H573.259ZM584.723 383.432H590.595V383.144C590.595 380.552 589.107 378.904 586.579 378.904C584.019 378.904 582.483 380.552 582.483 383.096C582.483 385.592 584.131 387.24 586.691 387.24C588.579 387.24 589.859 386.44 590.531 384.824L588.515 384.488C588.051 385.192 587.427 385.544 586.659 385.544C585.443 385.544 584.723 384.744 584.723 383.432ZM588.515 382.04H584.819C584.995 381.032 585.667 380.472 586.643 380.472C587.635 380.472 588.259 381 588.515 382.04ZM592.274 379.16V387H594.482V383.24C594.482 381.672 595.106 380.888 596.354 380.888C596.722 380.888 597.074 380.984 597.41 381.16L597.714 379.096C597.378 378.968 597.058 378.904 596.754 378.904C595.778 378.904 595.026 379.384 594.482 380.344V379.16H592.274ZM609.728 373.432V380.328C609.056 379.368 608.208 378.904 607.12 378.904C604.944 378.904 603.312 380.728 603.312 383.064C603.312 385.432 604.96 387.24 607.168 387.24C608.288 387.24 609.12 386.76 609.728 385.8V387H611.936V373.432H609.728ZM607.776 385.272C606.544 385.272 605.584 384.296 605.584 383.08C605.584 381.864 606.544 380.888 607.776 380.888C608.976 380.888 609.968 381.88 609.968 383.096C609.968 384.28 608.944 385.272 607.776 385.272ZM613.593 383.016C613.593 385.496 615.369 387.24 618.041 387.24C620.665 387.24 622.553 385.592 622.553 383.064C622.553 380.632 620.681 378.904 618.089 378.904C615.497 378.904 613.593 380.632 613.593 383.016ZM615.865 383.048C615.865 381.896 616.889 380.888 618.073 380.888C619.289 380.888 620.297 381.896 620.297 383.08C620.297 384.28 619.289 385.272 618.073 385.272C616.841 385.272 615.865 384.296 615.865 383.048ZM628.532 380.984L629.62 379.704C628.868 379.144 628.02 378.872 627.06 378.872C625.492 378.872 624.26 379.848 624.26 381.368C624.26 382.504 624.644 383.016 626.548 383.688C627.572 384.056 627.748 384.248 627.748 384.68C627.748 385.176 627.316 385.544 626.756 385.544C626.132 385.544 625.508 385.224 624.9 384.616L623.764 385.96C624.548 386.824 625.539 387.256 626.74 387.256C628.66 387.256 630.02 386.088 630.02 384.44C630.02 383.192 629.46 382.648 627.636 382.008C626.596 381.64 626.388 381.512 626.388 381.128C626.388 380.76 626.756 380.472 627.236 380.472C627.652 380.472 628.084 380.648 628.532 380.984ZM633.38 383.432H639.252V383.144C639.252 380.552 637.764 378.904 635.236 378.904C632.676 378.904 631.14 380.552 631.14 383.096C631.14 385.592 632.788 387.24 635.348 387.24C637.236 387.24 638.516 386.44 639.188 384.824L637.172 384.488C636.708 385.192 636.084 385.544 635.316 385.544C634.1 385.544 633.38 384.744 633.38 383.432ZM637.172 382.04H633.476C633.652 381.032 634.324 380.472 635.3 380.472C636.292 380.472 636.916 381 637.172 382.04Z" fill="#161616"/>
<path d="M517.188 478.16V479.328C516.516 478.368 515.668 477.904 514.58 477.904C512.404 477.904 510.772 479.728 510.772 482.064C510.772 484.432 512.42 486.24 514.628 486.24C515.748 486.24 516.58 485.76 517.188 484.8V486H519.396V478.16H517.188ZM515.236 484.272C514.004 484.272 513.044 483.296 513.044 482.08C513.044 480.864 514.004 479.888 515.236 479.888C516.436 479.888 517.428 480.88 517.428 482.096C517.428 483.28 516.404 484.272 515.236 484.272ZM523.55 472.432H521.342V483.072C521.342 484.88 522.19 486.24 524.142 486.24C524.35 486.24 524.638 486.224 524.878 486.192V484.272C524.766 484.288 524.67 484.304 524.574 484.304C523.758 484.304 523.55 483.6 523.55 482.384V472.432ZM525.356 480.048H526.22V483.168C526.22 484.976 527.148 486.24 528.86 486.24C529.1 486.24 529.548 486.224 529.788 486.192V484.272C529.676 484.288 529.532 484.304 529.388 484.304C528.572 484.304 528.428 483.6 528.428 482.384V480.048H529.964V478.16H528.428V475.488H526.22V478.16H525.356V480.048ZM533.184 482.432H539.056V482.144C539.056 479.552 537.568 477.904 535.04 477.904C532.48 477.904 530.944 479.552 530.944 482.096C530.944 484.592 532.592 486.24 535.152 486.24C537.04 486.24 538.32 485.44 538.992 483.824L536.976 483.488C536.512 484.192 535.888 484.544 535.12 484.544C533.904 484.544 533.184 483.744 533.184 482.432ZM536.976 481.04H533.28C533.456 480.032 534.128 479.472 535.104 479.472C536.096 479.472 536.72 480 536.976 481.04ZM540.735 478.16V486H542.943V482.24C542.943 480.672 543.567 479.888 544.815 479.888C545.183 479.888 545.535 479.984 545.871 480.16L546.175 478.096C545.839 477.968 545.519 477.904 545.215 477.904C544.239 477.904 543.487 478.384 542.943 479.344V478.16H540.735ZM547.345 478.16V486H549.553V481.936C549.553 480.464 550.113 479.776 551.217 479.776C552.337 479.776 552.705 480.384 552.705 481.696V486H554.913V480.928C554.913 478.816 553.585 477.904 552.001 477.904C551.009 477.904 550.193 478.32 549.553 479.136V478.16H547.345ZM562.985 478.16V479.328C562.313 478.368 561.465 477.904 560.377 477.904C558.201 477.904 556.569 479.728 556.569 482.064C556.569 484.432 558.217 486.24 560.425 486.24C561.545 486.24 562.377 485.76 562.985 484.8V486H565.193V478.16H562.985ZM561.033 484.272C559.801 484.272 558.841 483.296 558.841 482.08C558.841 480.864 559.801 479.888 561.033 479.888C562.233 479.888 563.225 480.88 563.225 482.096C563.225 483.28 562.201 484.272 561.033 484.272ZM566.419 480.048H567.283V483.168C567.283 484.976 568.211 486.24 569.923 486.24C570.163 486.24 570.611 486.224 570.851 486.192V484.272C570.739 484.288 570.595 484.304 570.451 484.304C569.635 484.304 569.491 483.6 569.491 482.384V480.048H571.027V478.16H569.491V475.488H567.283V478.16H566.419V480.048ZM572.183 474.848C572.183 475.568 572.775 476.16 573.495 476.16C574.215 476.16 574.807 475.568 574.807 474.848C574.807 474.128 574.215 473.536 573.495 473.536C572.775 473.536 572.183 474.128 572.183 474.848ZM574.599 478.16H572.391V486H574.599V478.16ZM578.082 478.16H575.618L579.618 486.16H580.626L584.658 478.16H582.21L580.146 482.592L578.082 478.16ZM587.169 482.432H593.041V482.144C593.041 479.552 591.553 477.904 589.025 477.904C586.465 477.904 584.929 479.552 584.929 482.096C584.929 484.592 586.577 486.24 589.137 486.24C591.025 486.24 592.305 485.44 592.977 483.824L590.961 483.488C590.497 484.192 589.873 484.544 589.105 484.544C587.889 484.544 587.169 483.744 587.169 482.432ZM590.961 481.04H587.265C587.441 480.032 588.113 479.472 589.089 479.472C590.081 479.472 590.705 480 590.961 481.04ZM599.657 478.16V486H601.865V481.984C601.865 480.512 602.361 479.776 603.337 479.776C604.233 479.776 604.665 480.368 604.665 481.696V486H606.873V481.984C606.873 480.512 607.369 479.776 608.345 479.776C609.241 479.776 609.657 480.384 609.657 481.696V486H611.865V480.928C611.865 478.816 610.809 477.904 609.257 477.904C608.153 477.904 607.289 478.384 606.681 479.328C606.105 478.384 605.289 477.904 604.249 477.904C603.321 477.904 602.537 478.288 601.865 479.056V478.16H599.657ZM615.778 482.432H621.65V482.144C621.65 479.552 620.162 477.904 617.634 477.904C615.074 477.904 613.538 479.552 613.538 482.096C613.538 484.592 615.186 486.24 617.746 486.24C619.634 486.24 620.914 485.44 621.586 483.824L619.57 483.488C619.106 484.192 618.482 484.544 617.714 484.544C616.498 484.544 615.778 483.744 615.778 482.432ZM619.57 481.04H615.874C616.05 480.032 616.722 479.472 617.698 479.472C618.69 479.472 619.314 480 619.57 481.04ZM629.329 472.432V479.328C628.657 478.368 627.809 477.904 626.721 477.904C624.545 477.904 622.913 479.728 622.913 482.064C622.913 484.432 624.561 486.24 626.769 486.24C627.889 486.24 628.721 485.76 629.329 484.8V486H631.537V472.432H629.329ZM627.377 484.272C626.145 484.272 625.185 483.296 625.185 482.08C625.185 480.864 626.145 479.888 627.377 479.888C628.577 479.888 629.569 480.88 629.569 482.096C629.569 483.28 628.545 484.272 627.377 484.272ZM633.37 474.848C633.37 475.568 633.962 476.16 634.682 476.16C635.402 476.16 635.994 475.568 635.994 474.848C635.994 474.128 635.402 473.536 634.682 473.536C633.962 473.536 633.37 474.128 633.37 474.848ZM635.786 478.16H633.578V486H635.786V478.16ZM643.717 480.544V478.384C643.109 478.064 642.453 477.904 641.733 477.904C639.269 477.904 637.413 479.728 637.413 482.112C637.413 484.448 639.253 486.24 641.701 486.24C642.373 486.24 643.045 486.08 643.717 485.776V483.616C643.157 484.048 642.565 484.272 641.925 484.272C640.645 484.272 639.685 483.36 639.685 482.08C639.685 480.8 640.661 479.888 641.925 479.888C642.549 479.888 643.141 480.096 643.717 480.544ZM651.376 478.16V479.328C650.704 478.368 649.856 477.904 648.768 477.904C646.592 477.904 644.96 479.728 644.96 482.064C644.96 484.432 646.608 486.24 648.816 486.24C649.936 486.24 650.768 485.76 651.376 484.8V486H653.584V478.16H651.376ZM649.424 484.272C648.192 484.272 647.232 483.296 647.232 482.08C647.232 480.864 648.192 479.888 649.424 479.888C650.624 479.888 651.616 480.88 651.616 482.096C651.616 483.28 650.592 484.272 649.424 484.272ZM654.809 480.048H655.673V483.168C655.673 484.976 656.601 486.24 658.313 486.24C658.553 486.24 659.001 486.224 659.241 486.192V484.272C659.129 484.288 658.985 484.304 658.841 484.304C658.025 484.304 657.881 483.6 657.881 482.384V480.048H659.417V478.16H657.881V475.488H655.673V478.16H654.809V480.048ZM660.573 474.848C660.573 475.568 661.165 476.16 661.885 476.16C662.605 476.16 663.197 475.568 663.197 474.848C663.197 474.128 662.605 473.536 661.885 473.536C661.165 473.536 660.573 474.128 660.573 474.848ZM662.989 478.16H660.781V486H662.989V478.16ZM664.616 482.016C664.616 484.496 666.392 486.24 669.064 486.24C671.688 486.24 673.576 484.592 673.576 482.064C673.576 479.632 671.704 477.904 669.112 477.904C666.52 477.904 664.616 479.632 664.616 482.016ZM666.888 482.048C666.888 480.896 667.912 479.888 669.096 479.888C670.312 479.888 671.32 480.896 671.32 482.08C671.32 483.28 670.312 484.272 669.096 484.272C667.864 484.272 666.888 483.296 666.888 482.048ZM675.251 478.16V486H677.459V481.936C677.459 480.464 678.019 479.776 679.123 479.776C680.243 479.776 680.611 480.384 680.611 481.696V486H682.819V480.928C682.819 478.816 681.491 477.904 679.907 477.904C678.915 477.904 678.099 478.32 677.459 479.136V478.16H675.251Z" fill="#161616"/>
<path d="M615.136 440.006C615.136 449.95 607.046 458.011 597.068 458.011C587.089 458.011 579 449.95 579 440.006M615.136 440.006C615.136 430.061 607.046 422 597.068 422C587.089 422 579 430.061 579 440.006M615.136 440.006H579" stroke="#8E2666" stroke-width="1.75" stroke-miterlimit="10" stroke-linejoin="round"/>
<path d="M278.394 153L262.19 154.858L271.056 169.737L278.394 153ZM129.768 272.289L268.568 162.656L267.033 160.079L128.232 269.711L129.768 272.289Z" fill="#8E909A"/>
<path d="M278.394 453L262.19 451.142L271.056 436.263L278.394 453ZM129.768 333.711L268.568 443.344L267.033 445.921L128.232 336.289L129.768 333.711Z" fill="#8E909A"/>
<path d="M539 148L524 139.34V156.66L539 148ZM427 149.5H525.5V146.5H427V149.5Z" fill="#8E909A"/>
<path d="M539 252L524 243.34V260.66L539 252ZM427 253.5H525.5V250.5H427V253.5Z" fill="#8E909A"/>
<path d="M539 353L524 344.34V361.66L539 353ZM427 354.5H525.5V351.5H427V354.5Z" fill="#8E909A"/>
<path d="M539 452L524 443.34V460.66L539 452ZM427 453.5H525.5V450.5H427V453.5Z" fill="#8E909A"/>
<path d="M281 252L264.71 247.939L268.596 264.818L281 252ZM137.154 297.462L268.425 257.402L267.752 254.479L136.481 294.538L137.154 297.462Z" fill="#8E909A"/>
<path d="M281 359L264.71 363.061L268.596 346.182L281 359ZM137.154 313.538L268.425 353.598L267.752 356.521L136.481 316.462L137.154 313.538Z" fill="#8E909A"/>
</svg>
