<svg xmlns="http://www.w3.org/2000/svg" width="80" height="80" viewBox="0 0 80 80">
    <g fill="none" fill-rule="evenodd">
        <g>
            <g>
                <g>
                    <g transform="translate(-341 -1386) translate(0 1088) translate(226 298) translate(115)">
                        <path d="M0 0H80V80H0z"/>
                        <path fill="#F7E0A6" d="M40.37 50.444h1.455c.47 0 .846.14 1.12.42.424.432.413 1.005.406 1.348l-.002.123v15.144c0 1.447.828 2.31 2.215 2.31 1.849 0 2.125-1.447 2.125-2.31V46.876c.004-2.417.006-4.834-.02-7.251-.01-.706.435-1.052.818-1.134.605-.126 1.16.324 1.374.815.969 2.23 1.674 4.58 2.096 6.977l.039.22c.35 2.017.64 2.624 1.795 2.557.49-.032.833-.185 1.047-.465.399-.521.467-1.562.193-2.93-.887-5.218-3.342-10.577-5.11-12.563-1.416-1.59-4.014-3.186-6.151-3.097h-5.317c-2.165-.045-4.762 1.507-6.178 3.097-1.768 1.986-4.223 7.345-5.106 12.539-.28 1.392-.21 2.433.189 2.954.214.28.557.433 1.046.465 1.17.067 1.445-.54 1.796-2.557l.039-.221c.423-2.4 1.129-4.75 2.097-6.978.218-.502.753-.943 1.374-.813.38.082.825.428.818 1.133-.027 2.429-.025 4.857-.023 7.285V67.48c0 .694.213 2.309 2.17 2.309 1.96 0 2.172-1.616 2.172-2.31l-.002-15.267c-.007-.343-.017-.916.406-1.348.273-.28.65-.42 1.12-.42z"/>
                        <circle cx="41.5" cy="21.5" r="5.5" fill="#80D1CA"/>
                        <path fill="#000" d="M39.915 13.467c-1.473 0-2.805.52-3.785 1.478-1.018.99-1.577 2.372-1.577 3.888 0 3.164 2.374 5.55 5.522 5.55 3.045 0 5.431-2.397 5.431-5.457 0-3.162-2.284-5.457-5.431-5.457l-.16-.002zm-.613 33.813h1.454c.47 0 .846.14 1.121.42.423.432.412 1.005.405 1.348l-.002.123v15.144c0 1.447.828 2.31 2.215 2.31 1.849 0 2.125-1.447 2.125-2.31l.001-20.604c.003-2.417.005-4.834-.021-7.251-.009-.706.435-1.052.818-1.134.605-.126 1.161.324 1.374.815.969 2.23 1.674 4.58 2.096 6.977l.039.22c.35 2.017.64 2.624 1.795 2.557.49-.032.833-.185 1.047-.465.399-.521.467-1.562.193-2.93-.887-5.218-3.342-10.577-5.11-12.563-1.416-1.59-4.014-3.186-6.151-3.097h-5.317c-2.165-.045-4.762 1.507-6.178 3.097-1.768 1.986-4.223 7.345-5.106 12.539-.279 1.392-.21 2.433.189 2.954.214.28.557.433 1.046.465 1.171.067 1.445-.54 1.796-2.557l.039-.221c.423-2.4 1.129-4.75 2.097-6.978.218-.502.753-.943 1.374-.813.381.082.825.428.818 1.133-.027 2.429-.025 4.857-.023 7.285l.001 20.572c0 .694.212 2.309 2.17 2.309 1.959 0 2.171-1.616 2.171-2.31l-.002-15.267c-.007-.343-.017-.916.406-1.348.273-.28.65-.42 1.12-.42zm5.193 21.095c-2.334 0-3.965-1.67-3.965-4.06l.002-15.284-1.006-.001.002.14v15.145c0 2.428-1.575 4.06-3.921 4.06-2.344 0-3.92-1.632-3.92-4.06l-.001-20.57c-.001-1.221-.002-2.443 0-3.666-.329 1.097-.594 2.213-.793 3.343l-.038.216c-.273 1.569-.707 4.193-3.636 4.003-1.256-.083-1.954-.67-2.32-1.147-.73-.955-.905-2.414-.52-4.337.943-5.547 3.549-11.17 5.52-13.384 1.435-1.611 3.959-3.3 6.469-3.628-2.149-1.254-3.565-3.586-3.565-6.312 0-1.992.748-3.818 2.105-5.141 1.358-1.323 3.212-1.995 5.19-1.974 4.071 0 7.158 3.1 7.158 7.208 0 2.686-1.393 4.983-3.508 6.224 2.479.34 4.984 2.02 6.41 3.623 1.972 2.215 4.578 7.837 5.525 13.41.38 1.897.206 3.356-.525 4.31-.365.478-1.063 1.065-2.32 1.148-2.902.2-3.362-2.434-3.636-4.003l-.037-.216c-.199-1.13-.464-2.245-.794-3.343.003 1.21.002 2.423 0 3.634l-.001 20.603c0 2.465-1.521 4.059-3.875 4.059z"/>
                    </g>
                </g>
            </g>
        </g>
    </g>
</svg>
