<svg xmlns="http://www.w3.org/2000/svg" width="120" height="120" viewBox="0 0 120 120">
    <g fill="none" fill-rule="evenodd">
        <g>
            <g>
                <g>
                    <g transform="translate(-1033 -793) translate(-1 492) translate(991 301) translate(43)">
                        <path d="M0 0H120V120H0z"/>
                        <rect width="32" height="62" x="42" y="33" fill="#F7E0A6" rx="16"/>
                        <path fill="#000" d="M60.072 26c3.116.013 6.157.822 8.858 2.332 1.51-1.186 3.335-1.862 5.283-1.862h.033c4.758.018 8.614 3.92 8.595 8.696-.012 3.227-1.774 6.093-4.553 7.584.054.59.09 1.181.089 1.769-.015 4.011-1.366 7.847-3.709 10.988l11.496 7.309c1.339.82 2.293 2.132 2.667 3.684.374 1.552.123 3.157-.707 4.52-1.123 1.842-3.084 2.856-5.09 2.856-1.057 0-2.126-.281-3.093-.873l-3.365-2.07.09.33c.21.752.34 1.516.422 2.28 1.359.082 2.65.49 3.759 1.286 1.98 1.423 3.091 3.768 3.129 6.602.034 2.685-.91 5.516-2.66 7.972-1.75 2.456-4.113 4.267-6.655 5.101-1.01.332-2.006.496-2.96.496-1.576 0-3.04-.45-4.274-1.336-1.32-.945-2.241-2.309-2.73-3.945-1.468.363-2.988.565-4.539.565h-.016l-.398-.002c-1.589-.01-3.141-.228-4.626-.616-.488 1.608-1.397 2.99-2.743 3.94-1.234.872-2.681 1.286-4.2 1.286-3.387 0-7.132-2.05-9.659-5.653-1.73-2.47-2.653-5.308-2.597-7.991.058-2.836 1.187-5.172 3.178-6.578 1.121-.792 2.427-1.213 3.83-1.282.085-.756.22-1.51.434-2.255l.19-.664-3.532 2.133c-.938.565-1.988.855-3.054.855-.483 0-.97-.06-1.45-.18-1.544-.387-2.843-1.352-3.662-2.721-.82-1.37-1.059-2.976-.673-4.524.385-1.55 1.348-2.855 2.713-3.676l11.272-7.047c-2.286-3.131-3.557-6.911-3.542-10.928.003-.58.042-1.16.099-1.74-2.807-1.502-4.576-4.398-4.564-7.652.01-2.315.917-4.487 2.551-6.116 1.628-1.622 3.785-2.513 6.076-2.513h.036c1.971.008 3.814.708 5.33 1.927 2.723-1.506 5.765-2.31 8.92-2.286zm17.043 50.156c-.173 2.015-.77 3.995-1.813 5.816-1.764 3.075-4.649 5.507-8.09 6.925.321 1.103.894 2.021 1.739 2.628 1.286.923 3.022 1.093 4.897.48 2.015-.662 3.909-2.129 5.335-4.132 1.43-2.003 2.2-4.28 2.173-6.407-.026-1.976-.747-3.574-2.033-4.497-.652-.467-1.405-.727-2.208-.813zm-34.236-.126c-.845.07-1.62.327-2.273.79-2.8 1.978-2.775 6.87.054 10.904 2.83 4.036 7.408 5.713 10.206 3.732.88-.622 1.449-1.553 1.77-2.635-3.414-1.447-6.266-3.9-7.998-6.98-1.023-1.825-1.603-3.802-1.76-5.811zm27.783-16.56c-.027.018-.05.044-.08.065-3.11 2.2-6.768 3.363-10.584 3.363h-.067c-3.809-.013-7.426-1.19-10.513-3.381l-3.54 12.347c-.171.595-.279 1.194-.352 1.791-.113.915-.119 1.83-.002 2.732.184 1.43.648 2.829 1.397 4.162 1.317 2.345 3.42 4.27 5.964 5.519.839.41 1.722.747 2.644 1.002l.027.01c1.345.37 2.756.563 4.203.572l.389.002h.015c1.415 0 2.805-.18 4.138-.532.015-.003.031-.005.046-.01.92-.243 1.801-.572 2.638-.97 2.57-1.227 4.701-3.139 6.044-5.482.77-1.339 1.249-2.75 1.442-4.193.118-.888.115-1.788.013-2.692-.069-.6-.172-1.204-.341-1.805zm2.267-1.957c-.024.023-.047.048-.07.073l2.68 9.629 5.769 3.544c1.567.963 3.621.461 4.581-1.11.464-.763.603-1.662.395-2.53-.21-.869-.742-1.604-1.503-2.07zm-26.051-.175L35.26 64.6c-.783.47-1.322 1.2-1.539 2.068-.214.868-.08 1.765.377 2.531.948 1.584 2.999 2.097 4.572 1.147l5.947-3.592 2.596-9.057c-.118-.115-.219-.243-.335-.36zM60.06 28.63h-.063c-2.93 0-5.788.813-8.272 2.354-3.948 2.45-6.608 6.484-7.301 11.066-.117.771-.177 1.559-.181 2.34-.02 5.032 2.268 9.658 6.274 12.693 2.73 2.07 5.99 3.17 9.423 3.184h.058c3.273 0 6.41-.996 9.076-2.882 4.165-2.95 6.665-7.765 6.683-12.876.003-.777-.053-1.566-.164-2.339-.657-4.588-3.287-8.642-7.216-11.123-2.485-1.57-5.36-2.405-8.317-2.417zm-1.322 19.233l2.533.01c.777.004 1.406.64 1.403 1.42-.003.78-.636 1.41-1.415 1.406l-2.531-.009c-.779-.003-1.405-.639-1.403-1.417.003-.782.636-1.413 1.413-1.41zm-6.77-3.898c.829 0 1.498.672 1.498 1.503 0 .831-.67 1.503-1.497 1.503-.828 0-1.497-.672-1.497-1.503 0-.831.669-1.503 1.497-1.503zm16.063 0c.827 0 1.497.672 1.497 1.503 0 .831-.67 1.503-1.497 1.503-.828 0-1.498-.672-1.498-1.503 0-.831.67-1.503 1.498-1.503zM74.236 29.1c-1.083.003-2.074.292-2.957.794 3.246 2.532 5.544 6.066 6.54 10.054 1.484-1.113 2.395-2.86 2.402-4.792.013-3.327-2.67-6.044-5.985-6.056zm-28.426-.11h-.024c-3.3 0-5.994 2.69-6.008 6.01-.007 1.959.918 3.731 2.429 4.854 1.016-3.986 3.332-7.508 6.593-10.023-.901-.53-1.918-.836-2.99-.84z"/>
                    </g>
                </g>
            </g>
        </g>
    </g>
</svg>
