<svg xmlns="http://www.w3.org/2000/svg" width="81" height="80" viewBox="0 0 81 80">
    <g fill="none" fill-rule="evenodd">
        <g>
            <g>
                <path fill="#80D1CA" d="M38.153 46.867c.385 0 .771.094 1.152.313 1.816 1.048 1.206 3.637.842 5.184-.53 2.262-1.804 4.14-3.035 5.956-1.016 1.498-1.976 2.913-2.532 4.509-.617 1.768-.688 4.228 1.147 5.341 1.023.619 1.991.76 2.962.425 1.942-.667 3.956-3.324 5.392-7.105.316-.832.585-1.676.776-2.441.781-3.112 1.144-8.076-.407-11.824-.104-.252-.085-.537.051-.772.135-.235.374-.395.643-.43 4.022-.531 8.14-3.327 10.444-5.559.568-.55 1.165-1.204 1.725-1.892 2.557-3.135 3.85-6.208 3.457-8.223-.196-1.008-.802-1.778-1.849-2.352-1.879-1.034-3.976.258-5.199 1.677-1.104 1.28-1.85 2.82-2.64 4.449-.957 1.973-1.946 4.015-3.638 5.605-1.16 1.088-3.1 2.905-4.91 1.863-1.816-1.048-1.206-3.637-.842-5.184.531-2.262 1.804-4.14 3.035-5.956 1.016-1.498 1.976-2.913 2.532-4.509.618-1.768.688-4.228-1.147-5.341-1.022-.619-1.99-.759-2.962-.424-1.94.667-3.956 3.323-5.392 7.104-.316.832-.584 1.676-.776 2.441-.78 3.112-1.143 8.076.407 11.824.104.252.085.537-.05.772-.136.236-.374.395-.644.43-4.02.531-8.139 3.327-10.443 5.559-.569.55-1.165 1.205-1.726 1.892-2.557 3.135-3.85 6.208-3.457 8.223.196 1.008.802 1.778 1.85 2.352 1.877 1.033 3.975-.259 5.198-1.677 1.104-1.28 1.85-2.82 2.64-4.449.958-1.973 1.946-4.014 3.638-5.605.915-.86 2.317-2.176 3.758-2.176" transform="translate(-343 -1915) translate(343.5 1915)"/>
                <g fill="#000" fill-rule="nonzero">
                    <path d="M28.1 1.72c2.346 1.422 2.947 4.39 1.892 7.413-.504 1.444-1.108 2.499-2.52 4.595l-.207.307-.035.052c-1.721 2.538-2.377 3.729-2.754 5.336-.477 2.025-.484 2.98.013 3.266.496.286 1.317-.195 2.837-1.622 1.155-1.085 1.843-2.19 3.089-4.739l.166-.34.023-.048c1.203-2.481 1.83-3.584 2.873-4.794 2.09-2.425 4.962-3.389 7.366-2.07 4.588 2.518 3.311 7.818-1.094 13.216-.613.752-1.253 1.452-1.864 2.043-2.908 2.819-6.791 5.08-10.366 5.851 1.12 3.48 1.103 7.974.116 11.903-.205.822-.492 1.727-.838 2.636-2.472 6.514-6.423 10.27-10.898 7.555-2.345-1.423-2.947-4.391-1.891-7.413.504-1.444 1.108-2.499 2.52-4.595l.207-.307.036-.052c1.72-2.538 2.376-3.729 2.753-5.336.477-2.024.483-2.98-.013-3.266-.496-.286-1.317.195-2.837 1.622-1.155 1.086-1.843 2.191-3.09 4.74l-.166.34-.022.047c-1.203 2.482-1.83 3.584-2.873 4.794-2.09 2.425-4.961 3.389-7.366 2.07-4.589-2.518-3.311-7.818 1.094-13.216.613-.752 1.253-1.452 1.864-2.043 2.908-2.819 6.791-5.08 10.366-5.851-1.12-3.481-1.103-7.975-.116-11.902.205-.82.491-1.725.837-2.638C19.676 2.76 23.626-.995 28.1 1.72zM15.66 45.444c-.81 2.319-.386 4.41 1.147 5.34 2.233 1.354 4.462.22 6.33-2.6l-6.946-4.01c-.21.425-.377.83-.53 1.27zm-5.629-4.827l-6.946-4.01c-1.508 3.028-1.376 5.526.914 6.782 1.572.863 3.594.184 5.198-1.677.305-.353.571-.701.834-1.095l-6.946-4.01 6.946 4.01zm8.807-30.722c-.322.85-.587 1.689-.775 2.442-1.002 3.985-.92 8.618.407 11.823.22.532-.124 1.127-.694 1.202-3.44.455-7.493 2.7-10.443 5.56-.45.434-.919.937-1.381 1.479l-.05.059 6.464 3.73c1.08-2.148 1.807-3.268 2.943-4.373l.167-.16c2.172-2.039 3.378-2.746 4.91-1.862 1.532.885 1.523 2.292.842 5.183-.387 1.648-.992 2.866-2.37 4.962l6.463 3.731c.25-.698.46-1.382.616-2.008 1.002-3.985.92-8.618-.406-11.823-.22-.532.123-1.127.693-1.202 3.44-.455 7.493-2.7 10.443-5.56.562-.543 1.155-1.192 1.726-1.892 3.797-4.653 4.802-8.823 1.608-10.575-1.572-.863-3.594-.184-5.198 1.678-.868 1.006-1.432 1.973-2.465 4.088l-.16.326-.022.048c-1.446 2.984-2.218 4.263-3.632 5.592-2.172 2.039-3.377 2.746-4.91 1.862-1.532-.885-1.523-2.29-.842-5.183.424-1.805 1.11-3.093 2.785-5.585l.224-.332.036-.052c1.476-2.178 2.062-3.176 2.523-4.496.81-2.32.386-4.41-1.148-5.34-3.114-1.89-6.222 1.063-8.354 6.678z" transform="translate(-343 -1915) translate(343.5 1915) translate(18 13)"/>
                </g>
            </g>
        </g>
    </g>
</svg>
