<svg width="80" height="80" viewBox="0 0 80 80" fill="none" xmlns="http://www.w3.org/2000/svg">
<circle cx="37.5" cy="16.5" r="4.5" fill="#80D1CA"/>
<circle cx="45" cy="39" r="12" fill="#F7E0A6"/>
<path d="M36.31 32.3601L36.32 37.2901C38.04 38.7101 40.59 41.4801 41.21 42.1301C43.1 44.0801 39.94 47.62 37.62 45.69C36.65 44.89 35.06 43.2101 33.35 41.5801C31.32 39.6501 31.38 38.9901 31.38 36.2201C31.38 33.9901 31.38 32.63 31.38 31.08C31.38 26.86 34.04 24.55 36 24.55H39.04C41.57 24.55 43.08 27.4 45.09 28.56C47.25 29.82 46.86 33.4 44.72 34.14C54.21 37.21 52.17 47.95 49.04 50.07L50.15 57.09H42.6C42.6 57.09 42.6 60.2501 42.6 65.2201C42.6 68.9901 37.09 68.8801 37.09 65.2201V57.09H30.97L33.36 41.5601" stroke="#161616" stroke-width="1.75" stroke-miterlimit="10" stroke-linecap="round" stroke-linejoin="round"/>
<path d="M38.1799 23.49C41.3556 23.49 43.9299 20.9156 43.9299 17.74C43.9299 14.5644 41.3556 11.99 38.1799 11.99C35.0043 11.99 32.4299 14.5644 32.4299 17.74C32.4299 20.9156 35.0043 23.49 38.1799 23.49Z" stroke="#161616" stroke-width="1.75" stroke-miterlimit="10" stroke-linejoin="round"/>
</svg>
