<svg width="80" height="80" viewBox="0 0 80 80" fill="none" xmlns="http://www.w3.org/2000/svg">
<g style="mix-blend-mode:multiply">
<path fill-rule="evenodd" clip-rule="evenodd" d="M40.9246 22.3266L41.6807 21.5436C46.2748 16.7863 53.8549 16.654 58.6121 21.248C63.3694 25.842 63.5017 33.4222 58.9077 38.1794L58.1515 38.9625L40.9246 22.3266V22.3266Z" fill="#80D1CA"/>
</g>
<g style="mix-blend-mode:multiply">
<path d="M35.5 57.9999C37.9853 57.9999 40 55.9852 40 53.4999C40 51.0147 37.9853 48.9999 35.5 48.9999C33.0147 48.9999 31 51.0147 31 53.4999C31 55.9852 33.0147 57.9999 35.5 57.9999Z" fill="#80D1CA"/>
</g>
<g style="mix-blend-mode:multiply">
<path fill-rule="evenodd" clip-rule="evenodd" d="M35.9778 21.0036L56.7719 40.8034C60.3508 44.1873 60.4468 47.5662 57.0594 50.9406C53.672 54.314 50.2811 53.9939 46.8867 49.9803C41.1892 43.8627 37.0531 40.2537 34.4779 39.1529C31.9022 38.0516 29.336 39.2545 26.7788 42.7609L20.6326 36.3497C16.5536 32.0935 16.6246 25.3577 20.7932 21.1891C24.9658 17.0165 31.7046 16.9345 35.9778 21.0036Z" fill="#F7E0A6"/>
</g>
<path d="M25.5599 47.31L20.3499 42.1C20.2499 42 20.2499 42 20.1499 41.9C18.3499 39.9 17.1499 37.2 17.1499 34.3C17.1499 28 22.2499 23 28.4499 23C31.7499 23 34.7499 24.5 36.8499 26.8L39.9499 29.9" stroke="#161616" stroke-width="1.75" stroke-miterlimit="10"/>
<path d="M56.4998 45.34L59.6498 42.19C59.7498 42.09 59.7498 42.09 59.8498 41.99C61.6498 39.99 62.8498 37.29 62.8498 34.39C62.8498 28.09 57.7498 23.09 51.5498 23.09C48.2498 23.09 45.2498 24.59 43.1498 26.89L41.9098 28.14L33.8098 36.24C35.2098 37.64 38.4098 39.74 41.6098 36.54L43.8698 34.28C46.4998 35.27 49.4998 33.27 49.4998 30.27" stroke="#161616" stroke-width="1.75" stroke-miterlimit="10" stroke-linecap="round" stroke-linejoin="round"/>
<path d="M45.49 34.63L55.45 44.59C56.55 45.69 56.55 47.49 55.45 48.59C54.35 49.69 52.55 49.69 51.45 48.59M51.45 48.59L43.85 40.99M51.45 48.59C53.8447 50.9847 50.5044 55.2644 47.5059 52.775M39.5 44.77L47.5 52.77C47.502 52.7717 47.504 52.7733 47.5059 52.775M47.5059 52.775C49.5 54.77 48 57.77 45 57.27" stroke="#161616" stroke-width="1.75" stroke-miterlimit="10" stroke-linecap="round"/>
<path d="M37.75 60.79C36.75 59.79 36.75 58.09 37.75 57.09L40.25 54.59C41.25 53.59 42.95 53.59 43.95 54.59C44.95 55.59 44.95 57.29 43.95 58.29L41.45 60.79C40.45 61.79 38.75 61.79 37.75 60.79Z" stroke="#161616" stroke-width="1.75" stroke-miterlimit="10"/>
<path d="M33.8499 57.19C32.8499 56.19 32.8499 54.49 33.8499 53.49L36.3499 50.99C37.3499 49.99 39.0499 49.99 40.0499 50.99C41.0499 51.99 41.0499 53.69 40.0499 54.69L37.6499 57.19C36.5499 58.19 34.8499 58.19 33.8499 57.19Z" stroke="#161616" stroke-width="1.75" stroke-miterlimit="10"/>
<path d="M30.1499 53.3899C29.1499 52.3899 29.1499 50.6899 30.1499 49.6899L32.6499 47.1899C33.6499 46.1899 35.3499 46.1899 36.3499 47.1899C37.3499 48.1899 37.3499 49.8899 36.3499 50.8899L35.0999 52.1399L33.8499 53.3899C32.8499 54.3899 31.1499 54.3899 30.1499 53.3899Z" stroke="#161616" stroke-width="1.75" stroke-miterlimit="10"/>
<path d="M26.3499 49.69C25.3499 48.69 25.3499 46.99 26.3499 45.99L28.8499 43.49C29.8499 42.49 31.5499 42.49 32.5499 43.49C33.5499 44.49 33.5499 46.19 32.5499 47.19L30.0499 49.69C29.0499 50.69 27.4499 50.69 26.3499 49.69Z" stroke="#161616" stroke-width="1.75" stroke-miterlimit="10"/>
</svg>
