<svg xmlns="http://www.w3.org/2000/svg" width="80" height="80" viewBox="0 0 80 80">
    <g fill="none" fill-rule="evenodd">
        <g>
            <g>
                <g transform="translate(-341 -1728) translate(0 1488) translate(341 240)">
                    <path d="M0 0H80V80H0z"/>
                    <circle cx="35" cy="30" r="11" fill="#80D1CA"/>
                    <path fill="#F7E0A6" fill-rule="nonzero" d="M48.018 61.446c-.011 1.316-2.304 6.189-7.276 6.723-4.97.534-7.604-4.137-7.66-6.725l-.024-13.785h14.998l.002 13.699-.04.088z" transform="rotate(45 40.558 57.935)"/>
                    <path fill="#000" fill-rule="nonzero" d="M61.9 33.578l.178.177c3.452 3.453 3.452 9.098 0 12.552L46.344 62.04c-3.453 3.452-9.098 3.452-12.55 0l-.178-.177c-3.452-3.453-3.452-9.1 0-12.552L49.35 33.578c3.453-3.453 9.098-3.453 12.55 0zM42.1 43.3l-7.246 7.249c-2.77 2.769-2.77 7.307 0 10.076l.177.177c2.769 2.77 7.306 2.77 10.075 0l7.249-7.25L42.1 43.3zm8.488-8.484l-7.25 7.247 10.254 10.253 7.248-7.247c2.77-2.77 2.77-7.307 0-10.076l-.177-.177c-2.769-2.77-7.306-2.77-10.075 0zM30.37 17.46c6.905 0 12.504 5.581 12.504 12.468 0 6.886-5.599 12.468-12.504 12.468-6.905 0-12.504-5.583-12.504-12.468 0-6.886 5.6-12.468 12.504-12.468zM41.09 30.805H19.652c.447 5.508 5.076 9.842 10.719 9.842 5.644 0 10.271-4.333 10.719-9.842zM30.37 19.21c-5.643 0-10.271 4.334-10.718 9.843H41.09c-.447-5.51-5.075-9.843-10.72-9.843z"/>
                </g>
            </g>
        </g>
    </g>
</svg>
