<svg xmlns="http://www.w3.org/2000/svg" width="120" height="120" viewBox="0 0 120 120">
    <g fill="none" fill-rule="evenodd">
        <g>
            <g>
                <g>
                    <g transform="translate(-278 -2120) translate(0 1788) translate(226 287) translate(52 45)">
                        <path d="M0 0H120V120H0z"/>
                        <circle cx="61.5" cy="69.5" r="10.5" fill="#F7E0A6"/>
                        <path fill="#000" d="M60.043 18.006c6.179.009 10.838 4.652 10.838 10.81 0 4.041-2.12 7.5-5.337 9.355 3.933.532 7.708 3.078 9.812 5.42 2.98 3.324 6.917 11.757 8.347 20.117.578 2.849.312 5.038-.794 6.469-.551.714-1.61 1.59-3.505 1.715-1.79.124-3.397-.797-4.327-2.442-.688-1.219-.97-2.636-1.218-3.885-.09-.46-.18-.912-.287-1.343-.357-1.425-.808-3.072-1.46-4.673.205 1.29.406 2.576.606 3.864l3.373 21.77c.058.377-.053.76-.304 1.053-.251.289-.619.455-1.005.455h-3.35v10.22c0 5.298-3.314 6.089-5.289 6.089-1.961 0-5.253-.79-5.253-6.088V86.69h-1.782v10.22c0 5.298-3.292 6.089-5.251 6.089-1.977 0-5.29-.79-5.29-6.088V86.69h-3.35c-.385 0-.753-.166-1.004-.455-.253-.292-.363-.676-.306-1.053l3.373-21.77c.2-1.285.401-2.569.604-3.855-.667 1.658-1.106 3.268-1.459 4.664-.107.434-.197.89-.289 1.35-.247 1.248-.528 2.662-1.215 3.878-.928 1.646-2.532 2.569-4.325 2.442-1.898-.125-2.954-1-3.506-1.715-1.106-1.43-1.373-3.62-.789-6.508 1.424-8.321 5.362-16.754 8.343-20.077 2.126-2.371 5.964-4.946 9.807-5.431-3.265-1.877-5.419-5.385-5.419-9.484 0-2.992 1.134-5.735 3.192-7.72 2.049-1.976 4.806-3.044 7.819-2.951zm5.03 22.74l-10.29.006c-3.043.338-6.395 2.614-8.16 4.58-2.672 2.98-6.383 11.02-7.717 18.815-.424 2.09-.318 3.654.287 4.436.323.42.84.646 1.579.694 1.012.076 1.588-.664 1.838-1.106.48-.85.708-1.996.928-3.103.1-.505.2-1.004.32-1.478.418-1.669.96-3.632 1.794-5.55 1.272-2.976 2.176-4.195 3.275-4.457.543-.129 1.106.002 1.536.36.783.648.717 1.758.572 2.654-.385 2.402-.765 4.807-1.137 7.214L46.76 84.07h3.13c.733 0 1.325.587 1.325 1.31v11.532c0 3.048 1.27 3.467 2.642 3.467 1.351 0 2.603-.42 2.603-3.467V85.38c0-.723.593-1.31 1.324-1.31h4.43c.731 0 1.325.587 1.325 1.31v11.532c0 3.048 1.251 3.467 2.604 3.467 1.371 0 2.64-.42 2.64-3.467V85.38c0-.723.592-1.31 1.325-1.31h3.13L70.1 63.81c-.372-2.407-.752-4.812-1.136-7.217-.146-.893-.212-2.003.57-2.651.433-.357.988-.487 1.54-.36 1.096.264 2.001 1.483 3.227 4.351.88 2.024 1.423 3.987 1.84 5.656.12.473.22.969.318 1.47.22 1.109.448 2.258.93 3.111.249.442.825 1.173 1.84 1.106.736-.048 1.254-.274 1.576-.694.607-.782.711-2.345.294-4.399-1.34-7.831-5.05-15.871-7.724-18.852-1.765-1.966-5.116-4.242-8.302-4.586zm1.202 21.534c1.71 1.065 2.69 2.842 2.759 5 .036 1.209-.215 2.482-.727 3.68-1.707 3.994-6.475 5.98-7.897 6.493-.146.054-.3.08-.453.08-.154 0-.309-.026-.454-.08-1.422-.513-6.19-2.499-7.898-6.493-.511-1.198-.762-2.471-.725-3.679.067-2.16 1.048-3.936 2.758-5 1.96-1.223 4.532-1.044 6.32.395 1.786-1.441 4.356-1.62 6.317-.396zm-9.749 1.784c-.513 0-1.024.15-1.48.433-1.204.752-1.492 1.973-1.517 2.865-.028.833.151 1.726.514 2.578.963 2.251 3.605 3.957 5.914 4.878 2.308-.921 4.95-2.628 5.912-4.878.364-.852.542-1.745.516-2.58-.027-.89-.313-2.111-1.519-2.863-1.248-.777-2.887-.433-3.847.846-.499.665-1.625.665-2.126 0-.61-.811-1.472-1.279-2.367-1.279zm3.23-43.44c-2.19 0-4.2.78-5.683 2.21-1.542 1.488-2.392 3.562-2.392 5.843 0 4.748 3.588 8.33 8.345 8.33 4.602 0 8.207-3.599 8.207-8.19 0-4.746-3.452-8.19-8.207-8.19h-.034c-.08-.003-.158-.003-.236-.003z"/>
                    </g>
                </g>
            </g>
        </g>
    </g>
</svg>
