<svg xmlns="http://www.w3.org/2000/svg" width="80" height="80" viewBox="0 0 80 80">
    <g fill="none" fill-rule="evenodd">
        <g>
            <g>
                <g>
                    <g transform="translate(-681 -1386) translate(0 1088) translate(598 298) translate(83)">
                        <path d="M0 0H80V80H0z"/>
                        <circle cx="40.5" cy="46.5" r="19.5" fill="#80D1CA"/>
                        <circle cx="41.5" cy="42.5" r="5.5" fill="#F7E0A6"/>
                        <path fill="#000" fill-rule="nonzero" d="M50.293 19.675c1.817.892 3.486 2.002 4.982 3.292l2.316-2.317c.342-.342.896-.342 1.238 0 .313.313.34.805.078 1.148l-.078.09-2.272 2.273c4.275 4.286 6.82 10.165 6.82 16.501 0 12.91-10.466 23.375-23.375 23.375-12.91 0-23.375-10.465-23.375-23.375 0-6.324 2.535-12.192 6.794-16.477l-2.297-2.298c-.341-.342-.341-.896 0-1.237.314-.313.806-.34 1.148-.078l.09.078 2.34 2.34c1.502-1.3 3.18-2.418 5.008-3.315.434-.213.958-.034 1.171.4.213.433.034.957-.4 1.17-7.349 3.61-12.104 11.085-12.104 19.417 0 11.943 9.681 21.625 21.625 21.625 11.942 0 21.625-9.682 21.625-21.625 0-8.332-4.756-15.807-12.105-19.417-.434-.213-.613-.737-.4-1.17.213-.434.738-.613 1.171-.4zM40.002 58.338c.414 0 .75.335.75.75 0 .414-.336.75-.75.75s-.75-.336-.75-.75c0-.415.336-.75.75-.75zm12.721-5.312c.293.293.293.768 0 1.06-.293.294-.768.294-1.06 0-.294-.292-.294-.767 0-1.06.292-.293.767-.293 1.06 0zm-24.392 0c.293.293.293.768 0 1.06-.293.294-.769.294-1.062 0-.292-.292-.292-.767 0-1.06.293-.293.77-.293 1.062 0zM40.002 29.87c.446 0 .814.334.868.765l.007.11v6c0 .102-.017.2-.05.29 2.3.39 4.05 2.394 4.05 4.805 0 2.692-2.183 4.875-4.875 4.875s-4.875-2.183-4.875-4.875c0-2.411 1.75-4.414 4.05-4.806-.021-.06-.037-.123-.044-.188l-.006-.1v-6c0-.484.392-.876.875-.876zm0 8.845c-1.726 0-3.125 1.399-3.125 3.125s1.4 3.125 3.125 3.125c1.726 0 3.125-1.4 3.125-3.125 0-1.726-1.4-3.125-3.125-3.125zm17.242 2.375c.414 0 .75.336.75.75s-.336.75-.75.75-.75-.336-.75-.75.336-.75.75-.75zm-34.495 0c.414 0 .75.336.75.75s-.336.75-.75.75c-.415 0-.75-.336-.75-.75s.335-.75.75-.75zm5.582-12.456c.293.292.293.768 0 1.061-.293.293-.768.293-1.061 0-.293-.293-.293-.769 0-1.06.293-.294.768-.294 1.061 0zm24.392 0c.293.292.293.768 0 1.061-.293.293-.768.293-1.061 0-.293-.293-.293-.769 0-1.06.293-.294.768-.294 1.06 0zm-12.721-4.792c.414 0 .75.336.75.75 0 .415-.336.75-.75.75s-.75-.335-.75-.75c0-.414.336-.75.75-.75zm5.006-4.918c0 .109-.006.183-.023.333l-.008.077c-.043.481-.469.836-.95.792-.481-.043-.836-.47-.792-.95l.011-.113c.01-.084.012-.115.012-.14 0-2.064-1.882-3.62-3.964-3.196-1.08.22-2.005 1.032-2.374 2.083-.16.452-.213.904-.173 1.37.04.482-.316.906-.798.947-.481.04-.905-.316-.946-.798-.06-.71.023-1.41.266-2.1.573-1.629 1.991-2.874 3.677-3.217 3.17-.645 6.062 1.745 6.062 4.912z"/>
                    </g>
                </g>
            </g>
        </g>
    </g>
</svg>
