<svg width="80" height="80" viewBox="0 0 80 80" fill="none" xmlns="http://www.w3.org/2000/svg">
<path d="M35.496 49.0963C34.0408 50.5515 32.1917 51.0617 30.7398 49.6098C29.288 48.1579 29.7982 46.3088 31.2534 44.8536C32.7086 43.3984 35.6519 41.794 37.1038 43.2458C38.5557 44.6977 36.9512 47.6411 35.496 49.0963Z" fill="#80D1CA"/>
<path d="M32.2985 49.2684C32.6959 48.9934 32.795 48.4483 32.5199 48.051C32.2448 47.6536 31.6997 47.5545 31.3024 47.8296L32.2985 49.2684ZM20.7166 57.2288C20.2382 57.2971 19.9058 57.7403 19.9741 58.2187C20.0425 58.6971 20.4857 59.0295 20.9641 58.9612L20.7166 57.2288ZM31.3024 47.8296C28.8219 49.5469 27.7869 51.9313 26.653 53.6322C26.067 54.5112 25.4331 55.2729 24.5444 55.8815C23.658 56.4885 22.4649 56.979 20.7166 57.2288L20.9641 58.9612C22.9281 58.6806 24.3867 58.1105 25.5332 57.3254C26.6774 56.5419 27.4578 55.5799 28.1091 54.6029C29.4501 52.5914 30.1829 50.7331 32.2985 49.2684L31.3024 47.8296Z" fill="#80D1CA"/>
<path d="M44.6863 54.6358C43.6574 56.418 42.0033 57.3895 40.2252 56.3628C38.447 55.3362 38.4612 53.418 39.4902 51.6358C40.5192 49.8536 42.947 47.542 44.7252 48.5686C46.5033 49.5952 45.7153 52.8536 44.6863 54.6358Z" fill="#80D1CA"/>
<path d="M41.6424 55.6298C41.955 55.2613 41.9097 54.7091 41.5411 54.3965C41.1726 54.0839 40.6205 54.1293 40.3079 54.4978L41.6424 55.6298ZM32.5154 66.3165C32.071 66.5064 31.8647 67.0205 32.0545 67.4649C32.2443 67.9093 32.7585 68.1157 33.2029 67.9259L32.5154 66.3165ZM40.3079 54.4978C38.3563 56.7987 37.9738 59.3697 37.3187 61.306C36.9802 62.3068 36.5651 63.2066 35.8641 64.0245C35.165 64.8402 34.1395 65.6228 32.5154 66.3165L33.2029 67.9259C35.0273 67.1465 36.2887 66.2183 37.1929 65.1632C38.0953 64.1103 38.6001 62.9792 38.9764 61.8668C39.7511 59.5768 39.978 57.5922 41.6424 55.6298L40.3079 54.4978Z" fill="#80D1CA"/>
<path d="M28.7136 40.8594C26.9313 41.8884 25.0132 41.9026 23.9865 40.1244C22.9599 38.3463 23.9313 36.6922 25.7136 35.6632C27.4958 34.6343 30.7541 33.8463 31.7808 35.6244C32.8074 37.4026 30.4958 39.8304 28.7136 40.8594Z" fill="#80D1CA"/>
<path d="M25.5805 40.1981C26.0354 40.0353 26.2722 39.5344 26.1094 39.0794C25.9465 38.6245 25.4457 38.3877 24.9907 38.5505L25.5805 40.1981ZM12.3329 44.8896C11.8531 44.8318 11.4173 45.1739 11.3595 45.6536C11.3017 46.1334 11.6438 46.5692 12.1235 46.627L12.3329 44.8896ZM24.9907 38.5505C22.1502 39.5673 20.5334 41.6026 18.9979 42.952C18.2043 43.6494 17.3949 44.2211 16.379 44.5789C15.3656 44.9358 14.0863 45.1009 12.3329 44.8896L12.1235 46.627C14.0932 46.8644 15.6497 46.6912 16.9603 46.2295C18.2684 45.7689 19.2711 45.0417 20.1532 44.2665C21.9691 42.6706 23.1578 41.0653 25.5805 40.1981L24.9907 38.5505Z" fill="#80D1CA"/>
<circle cx="52" cy="28" r="11.125" stroke="#80D1CA" stroke-width="1.75"/>
<circle cx="52" cy="28" r="7" fill="#80D1CA"/>
</svg>
