<svg width="81" height="80" viewBox="0 0 81 80" fill="none" xmlns="http://www.w3.org/2000/svg">
<path fill-rule="evenodd" clip-rule="evenodd" d="M56.99 60C62.41 59.8 62.37 54.13 60.27 50.62C56.3551 44.0629 49.009 40.1094 41.3521 39.8353V60H56.99Z" fill="#80D1CA"/>
<path d="M41.3521 39.8353C49.009 40.1094 56.3551 44.0629 60.27 50.62C62.37 54.13 62.41 59.8 56.99 60H41.3521M41.3521 39.8353C41.0685 39.8251 40.7844 39.82 40.5 39.82C32.54 39.82 24.79 43.82 20.73 50.62C18.63 54.14 18.59 59.8 24.01 60H40.5H41.3521M41.3521 39.8353V60" stroke="#80D1CA" stroke-width="1.75" stroke-miterlimit="10" stroke-linejoin="round"/>
<path fill-rule="evenodd" clip-rule="evenodd" d="M51.5 28C51.5 22.2148 47.034 17.4728 41.3616 17.0332V38.9668C47.034 38.5272 51.5 33.7852 51.5 28Z" fill="#80D1CA"/>
<path d="M41.3616 17.0332C41.0773 17.0112 40.79 17 40.5 17C34.4249 17 29.5 21.9249 29.5 28C29.5 34.0751 34.4249 39 40.5 39C40.79 39 41.0773 38.9888 41.3616 38.9668M41.3616 17.0332C47.034 17.4728 51.5 22.2148 51.5 28C51.5 33.7852 47.034 38.5272 41.3616 38.9668M41.3616 17.0332V38.9668" stroke="#80D1CA" stroke-width="1.75" stroke-miterlimit="10"/>
</svg>
