<svg width="81" height="80" viewBox="0 0 81 80" fill="none" xmlns="http://www.w3.org/2000/svg">
<path d="M32.0698 59.68C33.2698 56.63 34.0598 53.45 34.6398 50.23C35.1598 47.37 35.0498 44.03 37.0198 41.65C38.8498 39.43 42.4998 39.33 44.4098 41.53C45.7198 43.05 45.9798 45.03 45.9298 46.97C45.8198 51.71 45.1498 56.46 44.2798 61.11" stroke="#194066" stroke-width="1.75" stroke-miterlimit="10" stroke-linecap="round"/>
<path d="M27.1899 55.4199C28.0599 52.3799 28.5399 49.2499 29.2299 46.1699C29.8599 43.3299 30.6199 40.42 32.6299 38.22C34.6699 35.99 37.6599 34.7 40.6799 34.7C44.2899 34.7 47.7999 36.51 49.7699 39.56C51.5599 42.35 51.7399 45.87 51.6799 49.09C51.6099 52.64 51.3499 56.2 50.6599 59.68" stroke="#194066" stroke-width="1.75" stroke-miterlimit="10" stroke-linecap="round"/>
<path d="M23.1299 47.2C23.3799 41.54 25.3999 35.7 30.1099 32.27C34.7199 28.92 40.9799 28.32 46.3299 30.04C54.9899 32.84 58.7599 40.51 57.8699 49.25" stroke="#194066" stroke-width="1.75" stroke-miterlimit="10" stroke-linecap="round"/>
<path d="M51.0699 21.18C47.8999 19.72 44.3099 18.89 40.4999 18.89C36.6899 18.89 33.1099 19.72 29.9299 21.18" stroke="#194066" stroke-width="1.75" stroke-miterlimit="10" stroke-linecap="round"/>
<path d="M22.8899 30.92C27.1799 26 34.1499 24 40.5099 24C47.1699 24 54.0899 26.63 58.3199 31.91" stroke="#194066" stroke-width="1.75" stroke-miterlimit="10" stroke-linecap="round"/>
<path d="M40.7499 46.24C40.7999 48.58 38.7499 59.8 38.1399 61.11" stroke="#194066" stroke-width="1.75" stroke-miterlimit="10" stroke-linecap="round"/>
</svg>
