<svg xmlns="http://www.w3.org/2000/svg" width="80" height="80" viewBox="0 0 80 80">
    <g fill="none" fill-rule="evenodd">
        <g>
            <g>
                <g transform="translate(-680 -1728) translate(0 1488) translate(680 240)">
                    <rect width="46" height="8" x="19" y="26" fill="#F7E0A6" rx="4"/>
                    <rect width="42" height="31" x="23" y="34" fill="#80D1CA" rx="15.5"/>
                    <path fill="#000" fill-rule="nonzero" d="M50 18.125c.483 0 .875.392.875.875v2.082l7.127.001c1.582 0 2.873 1.29 2.873 2.873V57.96c0 1.582-1.29 2.873-2.873 2.873H21.998c-1.582 0-2.873-1.29-2.873-2.873V23.956c0-1.582 1.29-2.873 2.873-2.873l7.127-.001V19c0-.446.334-.814.766-.868l.11-.007c.483 0 .874.392.874.875v2.082h18.25V19c0-.446.334-.814.765-.868zm9.125 12.75h-38.25V57.96c0 .616.507 1.123 1.123 1.123h36.004c.616 0 1.123-.507 1.123-1.123V30.875zm-25.99 4.228c2.958 0 5.375 2.417 5.375 5.375v9.002c0 2.958-2.417 5.375-5.375 5.374-2.959 0-5.375-2.416-5.375-5.374v-9.002c0-2.957 2.416-5.373 5.375-5.375zm11.064 19.55c-.483 0-.875-.392-.875-.876 0-.483.392-.875.875-.875h3.625V38.114l-2.323 2.292c-.344.34-.898.336-1.238-.008-.34-.344-.335-.898.009-1.238l3.813-3.762c.553-.545 1.49-.153 1.49.623l-.001 16.881h3.625c.446 0 .814.334.868.766l.007.11c0 .483-.392.874-.875.874zm-11.064-17.8c-1.992.001-3.625 1.634-3.625 3.625v9.002c0 1.991 1.633 3.624 3.625 3.624s3.625-1.633 3.625-3.624v-9.002c0-1.991-1.633-3.625-3.625-3.625zm-4.01-14.021l-7.127.001c-.616 0-1.123.507-1.123 1.123v5.169h38.25v-5.169c0-.616-.507-1.123-1.123-1.123l-7.127-.001V25c0 .446-.334.814-.765.868l-.11.007c-.483 0-.875-.392-.875-.875v-2.168h-18.25V25c0 .446-.333.814-.765.868l-.11.007c-.483 0-.875-.392-.875-.875v-2.168z"/>
                </g>
            </g>
        </g>
    </g>
</svg>
