<svg xmlns="http://www.w3.org/2000/svg" width="80" height="80" viewBox="0 0 80 80">
    <g fill="none" fill-rule="evenodd">
        <g>
            <g>
                <g>
                    <g>
                        <path d="M0 0H80V80H0z" transform="translate(-1022 -3498) translate(0 3231) translate(906 267) translate(116)"/>
                        <g>
                            <path fill="#80D1CA" d="M12.127 34c-2.19.932-4.995 1.875-7.888 2.395C2.77 36.655 0 38.102 0 41.713v5.784C0 48.877 1.124 50 2.505 50h37.098C40.925 50 42 48.926 42 47.606v-5.893c0-3.611-2.774-5.057-4.239-5.318-2.893-.52-5.693-1.456-7.883-2.382-.89 3.626-4.527 6.352-8.873 6.352-4.352 0-7.995-2.732-8.878-6.365z" transform="translate(-1022 -3498) translate(0 3231) translate(906 267) translate(116) translate(19 12)"/>
                            <g fill="#161616">
                                <path d="M19.71.267c1.026 0 2.067.155 3.1.462.605-.187 1.221-.282 1.834-.282 6.42 0 9.332 9.294 9.974 14.208.466 3.557-.144 6.42-1.812 8.51-1.506 1.885-3.737 3.013-6.634 3.354v1.469c1.161.748 4.972 2.564 9.34 3.339 1.79.312 5.175 2.033 5.175 6.311v5.099c0 2.1-1.735 3.809-3.868 3.809H4.268c-2.185 0-3.963-1.752-3.963-3.903v-5.005c0-4.277 3.384-6 5.172-6.311 4.346-.77 8.147-2.589 9.307-3.339v-1.477c-2.862-.35-5.071-1.475-6.564-3.345-1.669-2.09-2.28-4.954-1.814-8.512C7.31 7.736 12.655.268 19.71.267zm-7 30.697c-1.92.807-4.382 1.623-6.921 2.073-1.289.225-3.72 1.476-3.72 4.601v5.005c0 1.193.987 2.165 2.199 2.165h32.551c1.16 0 2.103-.93 2.103-2.071v-5.099c0-3.125-2.434-4.376-3.719-4.601-2.539-.45-4.996-1.26-6.917-2.062-.78 3.138-3.972 5.496-7.785 5.496-3.82 0-7.016-2.363-7.79-5.507zm18.558 6.215c1.243 0 1.829 1.08 2.347 2.031.584 1.075.998 1.727 1.828 1.728.277 0 .503.224.503.498 0 .273-.227.495-.504.495h-.001c-1.491-.002-2.17-1.25-2.715-2.253-.51-.936-.862-1.505-1.46-1.506h-.002c-.325 0-.579.12-.848.4-.193.199-.51.21-.713.02-.203-.189-.21-.503-.02-.701.46-.48.978-.712 1.58-.712h.005zm-2.402 3.19c.209.182.228.497.044.701-.515.572-1.11.85-1.823.85-.279 0-.504-.222-.504-.496s.225-.497.504-.497c.418 0 .747-.158 1.068-.515.184-.208.504-.225.711-.043zm-1.777-3.205c1.492.002 2.172 1.25 2.716 2.252.51.938.862 1.507 1.46 1.508h.001c.322 0 .574-.119.842-.394.194-.197.513-.205.713-.016.2.19.208.505.016.702-.458.472-.972.7-1.57.7h-.005c-1.242-.001-1.828-1.08-2.346-2.031-.584-1.074-.998-1.727-1.829-1.728-.277 0-.503-.223-.503-.497 0-.273.227-.496.504-.496h.001zm7.814 1.594c.27-.017.507.212.512.487l.013.685c.005.274-.217.5-.495.505h-.009c-.274 0-.5-.217-.504-.488l-.013-.685c-.005-.273.217-.5.496-.504zm-3.7-.05c.268.033.509.214.514.488l.012.684c.005.275-.218.5-.495.505h-.01c-.273 0-.498-.217-.503-.487l-.012-.685c-.005-.274.217-.5.495-.505zm-3.697-.048c.263-.01.507.212.512.487l.013.685c.005.274-.217.5-.495.505h-.01c-.273 0-.498-.217-.503-.488l-.013-.685c-.005-.273.216-.5.496-.504zm7.938-1.485c.279 0 .504.221.504.497 0 .274-.225.496-.504.496-.396 0-.708.139-1.012.455-.097.102-.232.154-.365.154-.125 0-.249-.046-.347-.137-.202-.188-.21-.503-.018-.702.488-.506 1.074-.763 1.742-.763zM16.548 26.729v2.077l-.289.258c-.313.282-.981.693-1.9 1.15.42 2.55 3.01 4.52 6.142 4.52 3.124 0 5.709-1.961 6.136-4.503-.94-.465-1.624-.882-1.94-1.167l-.29-.257v-2.05c-1.062.706-2.348 1.165-3.909 1.165-1.581 0-2.879-.47-3.95-1.193zm7.163-18.418c-3.795 4.926-10.728 5.538-10.698 5.935-.198-.188-.39-.293-.563-.293-.047 0-.092.009-.136.024-.567.208-.469 1.958.032 3.592.45 1.476 1.075 2.345 1.608 2.345.036 0 .069-.004.101-.011 1.206 3.865 3.323 6.281 6.443 6.281 3.074 0 5.177-2.345 6.39-6.111.05.015.1.023.15.023.535 0 1.16-.873 1.613-2.352.499-1.632.598-3.382.032-3.591-.045-.017-.093-.025-.14-.025-.177 0-.372.109-.574.303-.996-2.81-2.296-4.297-4.258-6.12zm-3.999-6.306c-6.097 0-10.746 6.682-11.556 12.871-.402 3.078.085 5.505 1.45 7.215 1.104 1.384 2.741 2.255 4.862 2.613-.823-1.112-1.408-2.35-1.808-3.435-.717-.454-1.451-1.389-2.003-3.197-.442-1.444-1.226-4.89 1.051-5.726.24-.087.49-.13.742-.13.19 0 .421.024.678.104.168-.051.334-.096.49-.137 2.007-.542 6.18-1.667 8.688-4.922l1.187-1.54 1.428 1.327c1.858 1.725 3.147 3.192 4.151 5.409.077.018.153.041.232.07 2.255.835 1.477 4.277 1.035 5.719-.575 1.882-1.345 2.822-2.087 3.256-.393 1.016-.95 2.164-1.722 3.206 2.134-.354 3.78-1.229 4.89-2.617 1.363-1.71 1.852-4.137 1.448-7.215-.641-4.907-3.44-12.691-8.224-12.691-.504 0-1.016.092-1.522.275l-.289.104-.29-.096c-.948-.307-1.9-.463-2.83-.463z" transform="translate(-1022 -3498) translate(0 3231) translate(906 267) translate(116) translate(19 12) translate(1)"/>
                            </g>
                        </g>
                    </g>
                </g>
            </g>
        </g>
    </g>
</svg>
