<svg xmlns="http://www.w3.org/2000/svg" width="80" height="80" viewBox="0 0 80 80">
    <g fill="none" fill-rule="evenodd">
        <g>
            <g>
                <g>
                    <path fill="#F7E0A6" d="M42.814 32.109c3.739-2.027 8.13-1.004 9.062 0 .933 1.004 1.82 4.62.91 7.677-.44 1.482-.262 2.554.538 3.214H54c2.761 0 5 2.239 5 5v4c0 2.761-2.239 5-5 5H27c-2.761 0-5-2.239-5-5v-4c0-2.761 2.239-5 5-5h1.754c1.833-1.02 3.589-2.748 3.589-3.214 0-.573-2.735-3.501-2.735-5.336 0-1.835.697-8.695 4.76-9.656 4.062-.962 8.446 1.665 8.446 7.315z" transform="translate(-1021 -1728) translate(0 1488) translate(1021 240)"/>
                    <path fill="#80D1CA" d="M44 36c3 4 3 7 0 13 1.217.608 2.225 1.217 3.026 1.825 1.244.946 1.974 2.418 1.974 3.98V57c0 2.21-1.79 4-4 4h-8.315c-2.762 0-5-2.239-5-5 0-.371.041-.741.123-1.103.613-2.71 2.344-4.676 5.192-5.897-2-3-7-10 0-13 4.674-2.003 4-4 7 0z" transform="translate(-1021 -1728) translate(0 1488) translate(1021 240)"/>
                    <path fill="#000" fill-rule="nonzero" d="M34.886 18.796c5.38 0 8.677 3.83 8.677 8.035 0 .048-.002.096-.004.135l-.005.052-.075 1.264.078.107c.533-.234 1.127-.388 1.786-.45 1.185-.769 2.623-1.186 4.09-1.186 3.145 0 5.926 1.86 7.425 4.931.863 1.765.697 4.286-.135 6.297-.684 1.648-1.027 3.256-.634 3.844.136.203.412.347.842.377l.168.005h.501c.576 0 .984.542.85 1.082l-.031.102-.166.44-.048.107c-.79 1.467-2.228 2.411-3.667 2.67.833.596 1.676 1.022 2.489 1.217 2.684.642 4.388 2.286 4.495 4.574l.005.231v3.663c0 .446-.334.814-.765.868l-.11.007H49.331c-.065.1-.14.191-.225.276-.328.329-.773.513-1.237.513H32.196c-.7 0-1.303-.41-1.583-1.003h-11.44c-.445 0-.813-.335-.867-.766l-.007-.11v-6.464c0-2.857 1.172-4.729 3.19-5.93.582-.348.891-.484 1.953-.912 2.332-.94 3.976-1.83 4.972-2.822l.169-.177v-.756c-.996-1.084-1.577-2.355-1.679-3.697-.834-.665-1.411-1.691-1.641-2.877l-.044-.256-.014-.09c-.149-1.006-.026-2.021.354-2.867.138-.306.307-.587.507-.839l.156-.183-.115-1.167c-.007-.07-.01-.14-.01-.21 0-4.207 3.343-8.035 8.789-8.035zm5.147 16.832c-3.479 0-5.117 2.828-5.116 4.812l.222 1.542c-.6.247-1.019 1.082-.877 2.037l.01.06c.131.9.754 1.058 1.24 1.103l.045.45c0 .946.956 1.727 1.723 2.355l.087.07v1.715c-.672.305-3.19 1.452-3.575 1.645-.955.483-1.596 1.399-1.596 2.28v2.51H47.87v-2.51c0-.85-.625-1.743-1.59-2.276-.168-.093-.893-.428-1.662-.78l-.42-.19c-.628-.286-1.222-.555-1.5-.68v-1.713l.083-.07c.77-.627 1.725-1.408 1.724-2.328l.047-.478c.487-.044 1.11-.2 1.243-1.101l.01-.066c.14-.957-.284-1.797-.88-2.035l.222-1.567c0-1.957-1.635-4.785-5.113-4.785zm9.4-7.125c-1.198 0-2.367.36-3.29 1.007-.134.093-.29.147-.452.157-1.793.105-2.888 1.115-3.501 2.735-.16.426-.267 1-.325 1.593l-.008.107c3.155.805 5.04 3.648 5.04 6.31 0 .084-.007.167-.018.249l-.088.619c.613.778.91 1.87.743 2.993l-.01.064c-.077.52-.358 1.563-1.383 2.16-.252.922-.89 1.65-1.52 2.224 1.498.68 2.078.954 2.323 1.075l.112.056.07.037c1.537.849 2.492 2.308 2.492 3.808v1.721h10.16V52.63c0-1.503-1.105-2.612-3.159-3.103-1.17-.28-2.312-.89-3.41-1.725-.525-.4-1.007-.827-1.436-1.254-.26-.26-.448-.464-.554-.59-.595-.7.155-1.727 1.003-1.374.376.157.774.264 1.212.325.87.12 1.95-.278 2.703-1.074-.64-.173-1.16-.527-1.502-1.037-.527-.788-.56-1.848-.287-3.13.172-.806.44-1.59.758-2.357.657-1.588.79-3.61.18-4.859-1.215-2.488-3.4-3.949-5.853-3.949zm-14.547-7.957c-4.423 0-7.04 2.996-7.04 6.285l.001.022.001.02.156 1.58c.024.233-.049.465-.197.644l-.08.084-.101.094c-.19.176-.349.4-.47.672-.213.472-.3 1.06-.247 1.662l.026.226.014.09c.13.878.517 1.603 1.047 2.026l.136.1.12.082c.202.136.336.35.374.586l.01.12.003.145c.023.989.424 1.947 1.183 2.794l.182.194.08.082c.133.136.217.311.241.498l.008.113v1.513c0 .27-.124.521-.332.686l-.094.065-.022.013c-1.202 1.324-3.078 2.36-5.788 3.453-.973.392-1.237.508-1.713.792-1.447.862-2.265 2.108-2.331 4.156l-.004.271v5.59h10.397v-1.507c0-1.48.918-2.925 2.36-3.736l.2-.106c.27-.137 1.386-.651 2.44-1.131-.628-.573-1.266-1.3-1.52-2.227-1.028-.596-1.308-1.633-1.38-2.132l-.016-.091c-.165-1.115.13-2.207.741-2.985l-.086-.6c-.012-.082-.018-.165-.018-.248 0-1.5.632-3.111 1.691-4.31 1.284-1.452 3.122-2.253 5.175-2.253h.086l-.025.297c.06-.856.197-1.697.459-2.391.362-.959.874-1.784 1.546-2.423l-.22-.305c-.096-.13-.152-.285-.165-.445v-.12l.096-1.61.003-.05c0-3.292-2.577-6.285-6.927-6.285z" transform="translate(-1021 -1728) translate(0 1488) translate(1021 240)"/>
                </g>
            </g>
        </g>
    </g>
</svg>
