<svg width="81" height="80" viewBox="0 0 81 80" fill="none" xmlns="http://www.w3.org/2000/svg">
<path d="M32.5399 34.0499C34.6999 31.7399 34.4099 28.0199 32.8899 25.3899C29.9399 20.2899 24.1499 20.8499 20.4799 24.6199C15.2999 29.9399 14.3899 39.6799 16.8499 46.6699C18.0399 50.0599 20.6199 52.9899 23.8999 53.9999C27.2599 55.0299 31.2899 53.9699 32.8899 50.2899C34.2199 47.2399 33.0799 44.0399 31.8699 41.1999C30.8799 38.8599 30.7199 35.9999 32.5399 34.0499Z" stroke="#194066" stroke-width="1.75" stroke-miterlimit="10" stroke-linecap="round" stroke-linejoin="round"/>
<path d="M37.9 61.97C37.9 61.97 37.9 54.38 37.9 54.37C37.9 46.79 38.67 43.14 34.91 40.49C30.83 37.63 27.25 41.62 27.41 45.62" stroke="#194066" stroke-width="1.75" stroke-miterlimit="10" stroke-linecap="round" stroke-linejoin="round"/>
<path d="M31.2398 38.9598C28.6298 38.6098 26.8198 36.4298 27.5798 33.0898" stroke="#194066" stroke-width="1.75" stroke-miterlimit="10" stroke-linecap="round" stroke-linejoin="round"/>
<path d="M24.27 41.35C24.27 41.35 27.85 38.15 30.9 39.73" stroke="#194066" stroke-width="1.75" stroke-miterlimit="10" stroke-linecap="round" stroke-linejoin="round"/>
<path d="M24.8198 36.4299C24.8198 36.4299 27.8398 40.4399 30.8898 38.8599" stroke="#194066" stroke-width="1.75" stroke-miterlimit="10" stroke-linecap="round" stroke-linejoin="round"/>
<path d="M48.4599 34.0499C46.2999 31.7399 46.5899 28.0199 48.1099 25.3899C51.0599 20.2899 56.8499 20.8499 60.5199 24.6199C65.6999 29.9399 66.6099 39.6799 64.1499 46.6699C62.9599 50.0599 60.3799 52.9899 57.0999 53.9999C53.7399 55.0299 49.7099 53.9699 48.1099 50.2899C46.7799 47.2399 47.9199 44.0399 49.1299 41.1999C50.1199 38.8599 50.2799 35.9999 48.4599 34.0499Z" stroke="#194066" stroke-width="1.75" stroke-miterlimit="10" stroke-linecap="round" stroke-linejoin="round"/>
<path d="M43.0999 61.97C43.0999 61.97 43.0999 54.38 43.0999 54.37C43.0999 46.79 42.3299 43.14 46.0899 40.49C50.1699 37.63 53.7499 41.62 53.5899 45.62" stroke="#194066" stroke-width="1.75" stroke-miterlimit="10" stroke-linecap="round" stroke-linejoin="round"/>
<path d="M49.76 38.9598C52.37 38.6098 54.18 36.4298 53.42 33.0898" stroke="#194066" stroke-width="1.75" stroke-miterlimit="10" stroke-linecap="round" stroke-linejoin="round"/>
<path d="M56.7299 41.35C56.7299 41.35 53.1499 38.15 50.0999 39.73" stroke="#194066" stroke-width="1.75" stroke-miterlimit="10" stroke-linecap="round" stroke-linejoin="round"/>
<path d="M56.1799 36.4299C56.1799 36.4299 53.1599 40.4399 50.1099 38.8599" stroke="#194066" stroke-width="1.75" stroke-miterlimit="10" stroke-linecap="round" stroke-linejoin="round"/>
</svg>
