<svg width="81" height="80" viewBox="0 0 81 80" fill="none" xmlns="http://www.w3.org/2000/svg">
<path d="M29.1 42.8899C29.62 42.4799 30.03 41.8599 30.13 41.2399C30.23 40.6199 30.03 39.8999 29.72 39.3799C29.31 38.8599 28.69 38.4499 28.07 38.3499C27.45 38.2499 26.73 38.4499 26.21 38.7599" stroke="#194066" stroke-width="1.75" stroke-miterlimit="10" stroke-linecap="round" stroke-linejoin="round"/>
<path d="M47.36 27.82C46.43 27.41 45.4 27.41 44.57 27.82C43.64 28.23 42.92 28.85 42.61 29.78C42.2 30.71 42.2 31.74 42.61 32.57" stroke="#194066" stroke-width="1.75" stroke-miterlimit="10" stroke-linecap="round" stroke-linejoin="round"/>
<path d="M61.29 36.91C61.29 34.33 59.64 32.27 57.27 31.65C55.21 26.9 49.32 23.5 42.41 23.5C39.62 23.5 37.04 24.12 34.77 25.05C34.36 24.95 33.94 24.95 33.53 24.95C31.26 24.95 29.2 25.98 27.75 27.63C27.34 28.04 27.03 28.46 26.72 28.87C22.6 29.79 19.5 33.5 19.5 37.94C19.5 43.1 23.73 47.33 28.89 47.33C30.03 47.33 31.06 47.12 32.09 46.81L32.4 47.64C33.95 49.29 36.32 50.32 38.9 50.32C41.17 50.32 43.34 49.6 44.89 48.26L50.88 56.41H52.53V51.97C53.25 51.97 53.25 52.07 53.56 52.07C57.89 52.07 61.51 48.36 61.51 43.71C61.51 42.27 61.2 41.03 60.58 39.89C60.98 39.07 61.29 38.04 61.29 36.91Z" stroke="#194066" stroke-width="1.75" stroke-miterlimit="10" stroke-linecap="round" stroke-linejoin="round"/>
<path d="M51.3899 48.98C51.1799 48.46 51.1799 47.84 51.1799 47.12C51.4899 44.85 53.5499 43.3 55.8199 43.61C56.3399 43.71 56.8499 43.92 57.3699 44.13" stroke="#194066" stroke-width="1.75" stroke-miterlimit="10" stroke-linecap="round" stroke-linejoin="round"/>
<path d="M39 34.9499C37.76 36.0899 35.7999 35.9799 34.6699 34.7399C34.2599 34.3299 34.05 33.9099 33.95 33.3999" stroke="#194066" stroke-width="1.75" stroke-miterlimit="10" stroke-linecap="round" stroke-linejoin="round"/>
<path d="M35.8001 28.1299C35.9001 28.7499 35.9001 29.4699 35.8001 30.1899C35.1801 32.6699 32.7001 34.2099 30.2301 33.5999C29.6101 33.4999 29.0901 33.1899 28.5801 32.8799" stroke="#194066" stroke-width="1.75" stroke-miterlimit="10" stroke-linecap="round" stroke-linejoin="round"/>
<path d="M45.8099 45.3699C44.1599 46.2999 41.9899 45.6799 41.0599 44.0299C40.7499 43.5099 40.6499 42.8899 40.6499 42.3799" stroke="#194066" stroke-width="1.75" stroke-miterlimit="10" stroke-linecap="round" stroke-linejoin="round"/>
<path d="M44.0601 36.9099C44.0601 37.6299 43.8501 38.4599 43.5401 39.1799C42.3001 41.7599 39.1001 42.8899 36.5201 41.5499C35.9001 41.2399 35.2801 40.8299 34.8701 40.3099" stroke="#194066" stroke-width="1.75" stroke-miterlimit="10" stroke-linecap="round" stroke-linejoin="round"/>
<path d="M46.54 34.5299C46.95 35.0499 47.37 35.4599 47.98 35.7699C50.04 36.7999 52.62 35.9799 53.76 33.8099C54.07 33.2899 54.17 32.6699 54.17 32.1599" stroke="#194066" stroke-width="1.75" stroke-miterlimit="10" stroke-linecap="round" stroke-linejoin="round"/>
<path d="M50.3599 40.93C51.7999 40.31 52.4199 38.56 51.6999 37.11C51.5999 36.9 51.4899 36.7 51.2899 36.49" stroke="#194066" stroke-width="1.75" stroke-miterlimit="10" stroke-linecap="round" stroke-linejoin="round"/>
</svg>
