<svg width="81" height="80" viewBox="0 0 81 80" fill="none" xmlns="http://www.w3.org/2000/svg">
<path d="M30.87 44.79L26.7 47.3C25.23 48.18 23.33 47.71 22.45 46.24C21.57 44.77 22.04 42.87 23.51 41.98L31.7761 36.8354" stroke="#194066" stroke-width="1.75" stroke-miterlimit="10"/>
<path d="M50.1299 45.03L54.2799 47.57C55.7399 48.46 57.6499 48 58.5399 46.54C59.4299 45.08 58.9699 43.17 57.5099 42.28L49.1758 37" stroke="#194066" stroke-width="1.75" stroke-miterlimit="10"/>
<path d="M47.8299 38L50.2199 45.3601L50.7899 47.4001C50.9872 48.1061 51.0885 48.8093 51.102 49.5M33.2599 38L30.7999 45.39L30.2399 47.32C30.0279 48.0524 29.9201 48.7827 29.9072 49.5M36.4999 58.2763C36.7643 58.3703 37.0345 58.455 37.3099 58.53C38.2599 58.79 39.2799 58.93 40.3399 58.94H40.5999C41.6599 58.94 42.6799 58.8 43.6299 58.55C43.8645 58.4878 44.0954 58.4185 44.3222 58.3425" stroke="#194066" stroke-width="1.75" stroke-miterlimit="10"/>
<path d="M26.8693 58.6221C29.0406 61.7069 32.6387 62.914 34.906 61.3181C35.7898 60.6961 36.341 59.74 36.5559 58.6221C36.8924 56.872 36.4049 54.7254 35.08 52.843C33.6413 50.7989 31.576 49.5793 29.6866 49.4534C28.7246 49.3892 27.8082 49.6086 27.0433 50.147C24.776 51.7428 24.6981 55.5372 26.8693 58.6221Z" stroke="#194066" stroke-width="1.75" stroke-miterlimit="10"/>
<path d="M54.0213 58.7256C56.2159 55.6578 56.1671 51.8632 53.9122 50.2502C53.2112 49.7487 52.3795 49.5171 51.5001 49.5283C49.551 49.553 47.3681 50.7703 45.8558 52.8844C44.5549 54.7028 44.0423 56.7766 44.3101 58.5C44.4941 59.6842 45.0465 60.7029 45.9648 61.3598C48.2197 62.9729 51.8267 61.7935 54.0213 58.7256Z" stroke="#194066" stroke-width="1.75" stroke-miterlimit="10"/>
<path d="M33.6399 38.43C30.8699 36.34 29.0899 33.02 29.0999 29.28C29.0999 28.71 29.1499 28.14 29.2299 27.6C29.7399 24.23 31.7299 21.35 34.5099 19.62C36.2599 18.54 38.3299 17.91 40.5399 17.92C42.7499 17.93 44.8099 18.57 46.5599 19.66C49.3299 21.4 51.2999 24.3 51.7799 27.68C51.8599 28.23 51.8999 28.79 51.8999 29.36C51.8899 33.2 49.9799 36.58 47.0599 38.64C45.1899 39.96 42.9099 40.73 40.4499 40.72C37.8999 40.71 35.5399 39.86 33.6399 38.43Z" stroke="#194066" stroke-width="1.75" stroke-miterlimit="10"/>
<path d="M34.4899 19.6199C33.6099 18.7199 32.3899 18.1699 31.0299 18.1599C28.3299 18.1499 26.1299 20.3299 26.1199 23.0399C26.1099 25.1099 27.3899 26.8799 29.2099 27.5999" stroke="#194066" stroke-width="1.75" stroke-miterlimit="10"/>
<path d="M51.76 27.68C53.58 26.97 54.87 25.21 54.88 23.14C54.89 20.44 52.71 18.24 50.01 18.23C48.66 18.22 47.43 18.77 46.54 19.66" stroke="#194066" stroke-width="1.75" stroke-miterlimit="10"/>
<path d="M35.1401 31C35.6924 31 36.1401 30.5523 36.1401 30C36.1401 29.4477 35.6924 29 35.1401 29C34.5879 29 34.1401 29.4477 34.1401 30C34.1401 30.5523 34.5879 31 35.1401 31Z" fill="#194066"/>
<path d="M45.8601 31C46.4124 31 46.8601 30.5523 46.8601 30C46.8601 29.4477 46.4124 29 45.8601 29C45.3078 29 44.8601 29.4477 44.8601 30C44.8601 30.5523 45.3078 31 45.8601 31Z" fill="#194066"/>
<path d="M39.6502 33.47L41.3402 33.48C41.8602 33.48 42.2802 33.06 42.2802 32.54C42.2802 32.02 41.8602 31.6 41.3402 31.6L39.6502 31.59C39.1302 31.59 38.7102 32.01 38.7102 32.53C38.7102 33.05 39.1302 33.47 39.6502 33.47Z" fill="#194066"/>
</svg>
