<svg xmlns="http://www.w3.org/2000/svg" width="120" height="120" viewBox="0 0 120 120">
    <g fill="none" fill-rule="evenodd">
        <g>
            <g>
                <g>
                    <g>
                        <path fill="#80D1CA" d="M64.88 47.814c5.483-2.918 11.923-1.445 13.29 0 1.368 1.445 2.67 6.652 1.335 11.056-.777 2.564-.24 4.275 1.61 5.131l.598-.001C85.738 64 89 67.262 89 71.287v5.426C89 80.738 85.738 84 81.713 84H42.287C38.262 84 35 80.738 35 76.713v-5.426C35 67.262 38.262 64 42.287 64l.95.001c3.016-1.315 6.284-4.375 6.284-5.131 0-.827-4.011-5.043-4.011-7.685 0-2.642 1.023-12.52 6.981-13.905 5.959-1.385 12.388 2.398 12.388 10.534z" transform="translate(-486 -1302) translate(0 963) translate(395 294) translate(91 45)"/>
                        <path fill="#F7E0A6" d="M66.834 54.384c4.3 5.858 4.3 10.252 0 19.04 1.756.897 3.208 1.794 4.359 2.69C72.964 77.497 74 79.617 74 81.863v3.28C74 88.376 71.377 91 68.141 91H56.46c-4.025 0-7.287-3.262-7.287-7.287 0-.5.051-1 .154-1.49.846-4.054 3.338-6.987 7.476-8.799-2.867-4.394-10.032-14.646 0-19.04 6.698-2.934 5.732-5.859 10.031 0z" transform="translate(-486 -1302) translate(0 963) translate(395 294) translate(91 45)"/>
                        <path fill="#000" fill-rule="nonzero" d="M53.173 29c7.84 0 12.646 5.575 12.646 11.695 0 .07-.002.14-.006.197l-.006.076-.11 1.838.113.157c.776-.34 1.643-.565 2.603-.656 1.727-1.118 3.823-1.725 5.962-1.725 4.583 0 8.636 2.707 10.82 7.177 1.258 2.568 1.016 6.238-.196 9.165-.997 2.399-1.497 4.74-.924 5.596.204.304.625.518 1.286.551l.186.005h.73c.848 0 1.448.807 1.232 1.603l-.039.12-.242.641-.07.155c-1.15 2.136-3.246 3.51-5.344 3.886 1.214.868 2.442 1.488 3.627 1.772 3.944.942 6.435 3.367 6.555 6.74l.004.254v5.332c0 .659-.502 1.201-1.145 1.267l-.13.006-16.5.002c-.095.142-.204.277-.327.4-.478.478-1.126.746-1.803.746H49.254c-1.02 0-1.9-.597-2.307-1.46H30.275c-.66 0-1.203-.502-1.268-1.144l-.007-.13v-9.41c0-4.157 1.708-6.882 4.649-8.632.85-.505 1.3-.704 2.847-1.327 3.448-1.388 5.865-2.7 7.309-4.171l.183-.193v-1.101c-1.452-1.578-2.298-3.428-2.446-5.382-1.23-.979-2.078-2.496-2.404-4.248l-.053-.311-.02-.131c-.216-1.465-.038-2.942.516-4.173.209-.464.468-.889.776-1.267l.19-.22-.168-1.7c-.01-.1-.014-.203-.014-.305C40.365 34.572 45.237 29 53.173 29zm7.502 24.5c-5.07 0-7.457 4.115-7.456 7.003l.324 2.245c-.874.36-1.485 1.575-1.278 2.965l.013.088c.192 1.31 1.1 1.539 1.809 1.604l.065.657c0 1.375 1.393 2.512 2.511 3.426l.127.104v2.494l-2.145.976-.74.34c-1.064.486-2.055.944-2.325 1.079-1.392.703-2.326 2.036-2.326 3.318v3.654h22.841l-.001-3.654c0-1.237-.91-2.537-2.316-3.312-.49-.27-4.228-1.955-5.222-2.402v-2.493l.123-.1c1.12-.915 2.514-2.052 2.512-3.39l.069-.697c.71-.064 1.616-.29 1.811-1.602l.015-.096c.204-1.393-.414-2.616-1.284-2.962l.325-2.281c0-2.849-2.383-6.965-7.452-6.965zm13.7-10.37c-1.747 0-3.45.521-4.796 1.464-.194.136-.421.215-.657.229-2.615.153-4.21 1.622-5.104 3.98-.242.644-.4 1.518-.482 2.416l-.005.058c4.6 1.172 7.346 5.31 7.346 9.187 0 .12-.008.242-.024.361l-.129.9c.894 1.133 1.325 2.723 1.083 4.357l-.014.094c-.113.758-.522 2.275-2.016 3.144-.367 1.342-1.297 2.401-2.215 3.237 2.17.984 3.018 1.384 3.38 1.561l.143.072.1.053.026.014c2.241 1.235 3.633 3.36 3.633 5.542l.001 2.505 14.805.001v-4.058c0-2.188-1.61-3.802-4.603-4.517-1.704-.408-3.37-1.295-4.97-2.512-.765-.582-1.467-1.203-2.092-1.825-.38-.377-.653-.675-.807-.857-.868-1.02.225-2.514 1.461-2 .548.227 1.129.383 1.766.472 1.268.176 2.842-.404 3.94-1.563-.933-.252-1.692-.767-2.19-1.509-.767-1.147-.816-2.69-.417-4.558.25-1.171.641-2.314 1.105-3.429.957-2.312 1.15-5.254.261-7.072-1.77-3.622-4.953-5.748-8.53-5.748zM53.173 31.546c-6.445 0-10.258 4.36-10.258 9.148v.032l.003.028.227 2.3c.034.348-.076.692-.301.954l-.104.107-.147.136c-.277.256-.508.583-.685.979-.317.703-.444 1.581-.354 2.478l.033.27.02.13c.194 1.3.77 2.367 1.562 2.979l.161.116.177.12c.304.205.503.53.549.89l.01.137.004.21c.033 1.46.633 2.872 1.77 4.119l.219.231.117.12c.199.204.323.467.354.748l.008.141v2.202c0 .398-.186.77-.498 1.01l-.122.083-.032.02c-1.753 1.926-4.487 3.434-8.436 5.025-1.418.57-1.802.74-2.496 1.153-2.125 1.264-3.32 3.096-3.4 6.116l-.004.328v8.135l15.153-.001v-2.192c0-2.172 1.36-4.29 3.49-5.465l.24-.127c.334-.17 1.56-.735 2.863-1.33l.462-.21.23-.106c-.913-.834-1.843-1.89-2.214-3.241-1.497-.868-1.905-2.377-2.012-3.104l-.021-.132c-.24-1.623.19-3.213 1.08-4.345l-.126-.872c-.017-.12-.026-.241-.026-.362-.001-2.184.921-4.528 2.464-6.274 1.872-2.113 4.55-3.279 7.542-3.279h.125c.1-1.092.295-2.154.632-3.048.529-1.395 1.274-2.596 2.255-3.527l-.322-.443c-.145-.199-.228-.434-.242-.677v-.147l.142-2.342c.003-.032.004-.052.004-.073 0-4.791-3.756-9.148-10.096-9.148z" transform="translate(-486 -1302) translate(0 963) translate(395 294) translate(91 45)"/>
                    </g>
                </g>
            </g>
        </g>
    </g>
</svg>
