<svg xmlns="http://www.w3.org/2000/svg" width="120" height="120" viewBox="0 0 120 120">
    <g fill="none" fill-rule="evenodd">
        <g>
            <g>
                <g>
                    <g transform="translate(-830 -1302) translate(0 963) translate(735 294) translate(95 45)">
                        <path d="M0 0H120V120H0z"/>
                        <ellipse cx="65" cy="56.5" fill="#F7E0A6" rx="9" ry="5.5" transform="rotate(25 65 56.5)"/>
                        <ellipse cx="46" cy="77.5" fill="#F7E0A6" rx="6" ry="5.5" transform="rotate(25 46 77.5)"/>
                        <ellipse cx="62" cy="74" fill="#F7E0A6" rx="6" ry="4" transform="rotate(-10 62 74)"/>
                        <ellipse cx="48" cy="62.5" fill="#80D1CA" rx="6" ry="5.5" transform="rotate(25 48 62.5)"/>
                        <path fill="#000" fill-rule="nonzero" d="M56.744 29c9.043 0 17.162 3.981 22.792 10.27l19.622-9.178c.656-.305 1.428-.02 1.733.641.287.625.035 1.347-.548 1.684-.031.018-.052.048-.086.065l-19.001 8.886-2.416 1.13-12.002 5.614 7.98 2.31 6.98-3.266 2.365-1.105 18.886-8.836.097-.045c.654-.304 1.428-.018 1.733.641.302.66.02 1.443-.636 1.749L85.25 48.443c1.432 3.575 2.239 7.47 2.239 11.557 0 17.093-13.792 31-30.745 31C39.793 91 26 77.093 26 60s13.793-31 30.744-31zm0 2.633C41.23 31.633 28.61 44.358 28.61 60c0 15.642 12.62 28.367 28.134 28.367C72.257 88.367 84.88 75.642 84.88 60c0-3.69-.724-7.209-2.003-10.445l-7.402 3.46c-.173.082-.361.122-.55.122-.12 0-.24-.016-.359-.05l-11.812-3.42c-.525-.151-.899-.615-.94-1.164-.043-.548.257-1.065.75-1.295l14.496-6.78c-5.127-5.406-12.33-8.795-20.315-8.795zm-9.2 38.323c3.079 1.98 4.175 5.906 2.347 8.794-1.827 2.888-5.815 3.538-8.892 1.555-3.078-1.98-4.175-5.904-2.348-8.792 1.828-2.889 5.815-3.538 8.894-1.557zm-6.693 2.974c-1.013 1.601-.364 3.923 1.552 5.156 1.915 1.233 4.274.85 5.288-.753 1.014-1.602.365-3.926-1.55-5.157-1.916-1.233-4.276-.85-5.29.754zm27.164-4.652c.696 1.352.705 2.933.06 4.278-.44.916-1.158 1.669-2.07 2.146-2.329 1.224-4.82 2.098-7.402 2.596-2.561.495-5.034-1.199-5.525-3.783-.49-2.584 1.189-5.08 3.75-5.574 1.682-.326 3.304-.894 4.817-1.688 2.312-1.216 5.165-.31 6.37 2.025zm-5.165.31c-1.739.913-3.6 1.565-5.532 1.939-1.145.221-1.896 1.338-1.676 2.493.22 1.156 1.325 1.913 2.47 1.692 2.334-.45 4.583-1.24 6.69-2.347.41-.214.727-.547.923-.955.29-.605.286-1.311-.026-1.917-.538-1.043-1.814-1.449-2.849-.904zm-12.52-12.01c.998 1.405 2.19 2.652 3.54 3.704 2.063 1.609 2.442 4.601.848 6.681-.923 1.207-2.344 1.88-3.826 1.852-1.009-.02-1.986-.361-2.798-.996-2.079-1.622-3.91-3.537-5.44-5.692-1.518-2.138-1.03-5.113 1.087-6.645 2.12-1.534 5.07-1.042 6.59 1.096zm-5.068 1.044c-.947.685-1.165 2.016-.487 2.972 1.383 1.947 3.037 3.676 4.917 5.143.365.285.797.436 1.249.445.664.012 1.297-.287 1.711-.828.714-.931.544-2.27-.378-2.989-1.551-1.208-2.92-2.641-4.065-4.253-.68-.957-1.998-1.176-2.947-.49zm7.984-5.32c1.295-2.59 4.258-3.52 6.877-2.187l4.17 2.29c2.96-1.756 6.523-.198 7.436 2.887 1.079 3.365-1.423 7.363-6.562 8.034-1.253.155-3.215-.604-5.996-2.033-.9-.463-1.818-.966-2.677-1.458-.316-.182-.606-.351-.838-.49l-.24-.146-.054-.033c-2.512-1.327-3.406-4.284-2.116-6.864zm5.665.145c-1.313-.668-2.697-.234-3.334 1.04-.662 1.323-.23 2.721 1.032 3.365.058.03.112.062.17.102l.208.126c.219.13.495.292.798.466.825.474 1.709.958 2.57 1.4 2.2 1.13 3.988 1.823 4.481 1.768 3.515-.46 4.986-2.813 4.401-4.64-.488-1.651-2.47-2.397-4.037-1.105-.41.339-.984.393-1.45.137z"/>
                    </g>
                </g>
            </g>
        </g>
    </g>
</svg>
