<svg width="81" height="80" viewBox="0 0 81 80" fill="none" xmlns="http://www.w3.org/2000/svg">
<path d="M63.7949 48.7163C62.9521 45.6434 61.0646 42.0252 58.5225 40.0067C61.0572 37.9925 62.9524 34.3662 63.7946 31.2927C63.963 30.6646 64.1249 29.9253 64.2548 29.1285C64.8645 25.2063 64.5941 19.9212 60.4209 20.0095C58.4835 20.0555 57.2 21.8393 56.8093 23.962C56.2164 27.1837 56.8093 30 56.4952 33.7295C56.3841 35.0484 55.6551 36.5908 54.5052 36.5879C53.3554 36.5849 52.6224 35.0484 52.5105 33.7242C52.196 30 52.7888 27.181 52.196 23.9586C51.8029 21.8251 50.525 20.0479 48.5822 20.0012C44.4092 19.9072 44.1335 25.1927 44.7492 29.1206C44.8779 29.9162 45.0323 30.6582 45.2051 31.2837C46.0479 34.3566 47.9354 37.9748 50.4775 39.9933C47.9428 42.0074 46.0476 45.6338 45.2054 48.7073C45.037 49.3354 44.8751 50.0747 44.7452 50.8715C44.1355 54.7937 44.4059 60.0788 48.5791 59.9905C50.5166 59.9445 51.8 58.1607 52.1907 56.038C52.7836 52.8163 52.4927 50 52.5048 46.2705C52.5105 44.5 53.3449 43.4092 54.4948 43.4121C55.6446 43.4151 56.4952 44.5 56.4895 46.2758C56.4774 50.0183 56.2112 52.819 56.804 56.0414C57.1971 58.1749 58.475 59.9521 60.4178 59.9988C64.5908 60.0928 64.8665 54.8073 64.2508 50.8794C64.122 50.0838 63.9677 49.3418 63.7949 48.7163Z" stroke="#194066" stroke-width="1.75" stroke-miterlimit="10" stroke-linecap="round" stroke-linejoin="round"/>
<path d="M38.7244 50.0238C37.7973 46.4899 35.7211 42.329 32.9247 40.0077C35.7129 37.6914 37.7976 33.5211 38.724 29.9866C38.9093 29.2643 39.0874 28.4141 39.2302 27.4978C39.901 22.9872 39.6036 16.9094 35.013 17.0109C32.8818 17.0638 31.47 19.1152 31.0402 21.5563C30.388 25.2613 31.0402 28.5 30.6947 32.789C30.5725 34.3057 29.7706 36.0794 28.5057 36.0761C27.2409 36.0727 26.4346 34.3057 26.3116 32.7829C25.9656 28.5 26.6176 25.2581 25.9656 21.5524C25.5332 19.0988 24.1275 17.0551 21.9905 17.0014C17.4001 16.8932 17.0969 22.9716 17.7741 27.4887C17.9157 28.4037 18.0856 29.2569 18.2756 29.9762C19.2027 33.5101 21.2789 37.671 24.0753 39.9923C21.2871 42.3086 19.2024 46.4789 18.276 50.0134C18.0907 50.7357 17.9126 51.5859 17.7698 52.5022C17.099 57.0128 17.3964 63.0906 21.987 62.9891C24.1182 62.9362 25.53 60.8848 25.9598 58.4437C26.612 54.7387 26.292 51.5 26.3053 47.211C26.3116 45.175 27.2294 43.9206 28.4943 43.9239C29.7591 43.9273 30.6947 45.175 30.6884 47.2171C30.6751 51.521 30.3824 54.7419 31.0344 58.4476C31.4668 60.9012 32.8725 62.9449 35.0095 62.9986C39.5999 63.1068 39.9031 57.0284 39.2259 52.5113C39.0843 51.5963 38.9144 50.7431 38.7244 50.0238Z" stroke="#194066" stroke-width="1.75" stroke-miterlimit="10" stroke-linecap="round" stroke-linejoin="round"/>
</svg>
