<svg xmlns="http://www.w3.org/2000/svg" width="80" height="80" viewBox="0 0 80 80">
    <g fill="none" fill-rule="evenodd">
        <g>
            <g>
                <g>
                    <path d="M0 0H80V80H0z" transform="translate(-1024 -2383) translate(1 2188) translate(1023 195)"/>
                    <path fill="#80D1CA" d="M22 21H64V47H22z" transform="translate(-1024 -2383) translate(1 2188) translate(1023 195)"/>
                    <path fill="#F7E0A6" d="M19 50H66V54H19z" transform="translate(-1024 -2383) translate(1 2188) translate(1023 195)"/>
                    <path fill="#000" fill-rule="nonzero" d="M63 51.835c.483 0 .875.392.875.875v3c0 .483-.392.875-.875.875H17c-.483 0-.875-.392-.875-.875v-3c0-.483.392-.875.875-.875s.875.392.875.875v2.125h44.25V52.71c0-.483.392-.875.875-.875zm-5-28.42c1.036 0 1.875.839 1.875 1.875v24c0 1.036-.839 1.875-1.875 1.875H22c-1.036 0-1.875-.839-1.875-1.875v-24c0-1.036.839-1.875 1.875-1.875h36zm0 1.75H22c-.07 0-.125.055-.125.125v24c0 .07.055.125.125.125h36c.07 0 .125-.055.125-.125v-24c0-.07-.055-.125-.125-.125zm-4.519 7.457c.352-.332.905-.316 1.237.035.332.351.316.905-.035 1.237l-6.5 6.138c-.335.317-.858.319-1.196.004l-4.548-4.23-5.902 5.902c-.342.341-.896.341-1.238 0l-4.381-4.382-4.381 4.382c-.342.341-.896.341-1.238 0-.341-.342-.341-.896 0-1.238l5-5c.342-.342.896-.342 1.238 0l4.381 4.381 5.88-5.88c.333-.333.87-.343 1.215-.022l4.565 4.248z" transform="translate(-1024 -2383) translate(1 2188) translate(1023 195)"/>
                </g>
            </g>
        </g>
    </g>
</svg>
