<svg width="81" height="80" viewBox="0 0 81 80" fill="none" xmlns="http://www.w3.org/2000/svg">
<path d="M68.6699 39.9999C68.6699 39.9999 56.0799 56.1199 40.5499 56.1199C25.0199 56.1199 12.4199 39.9999 12.4199 39.9999C12.4199 39.9999 25.0099 23.8799 40.5399 23.8799C56.0699 23.8799 68.6699 39.9999 68.6699 39.9999Z" stroke="#194066" stroke-width="1.75" stroke-miterlimit="10" stroke-linecap="round" stroke-linejoin="round"/>
<path d="M40.5499 49.1199C45.5868 49.1199 49.6699 45.0367 49.6699 39.9999C49.6699 34.963 45.5868 30.8799 40.5499 30.8799C35.5131 30.8799 31.4299 34.963 31.4299 39.9999C31.4299 45.0367 35.5131 49.1199 40.5499 49.1199Z" stroke="#194066" stroke-width="1.75" stroke-miterlimit="10"/>
<path d="M36.52 39.3499C36.52 37.4299 38.05 35.8799 39.94 35.8799" stroke="#194066" stroke-width="1.75" stroke-miterlimit="10" stroke-linecap="round" stroke-linejoin="round"/>
</svg>
