<svg xmlns="http://www.w3.org/2000/svg" width="81" height="80" viewBox="0 0 81 80">
    <g fill="none" fill-rule="evenodd">
        <g>
            <g>
                <g transform="translate(-343 -2383) translate(1 2188) translate(342.5 195)">
                    <ellipse cx="43" cy="37.5" fill="#80D1CA" rx="6" ry="3.5" transform="rotate(25 43 37.5)"/>
                    <ellipse cx="31" cy="51.5" fill="#80D1CA" rx="4" ry="3.5" transform="rotate(25 31 51.5)"/>
                    <ellipse cx="41.174" cy="49.485" fill="#80D1CA" rx="4" ry="2.5" transform="rotate(-10 41.174 49.485)"/>
                    <ellipse cx="32" cy="41.5" fill="#F7E0A6" rx="4" ry="3.5" transform="rotate(25 32 41.5)"/>
                    <path fill="#000" fill-rule="nonzero" d="M37.86 19.406c6.063 0 11.507 2.646 15.282 6.826l13.156-6.1c.44-.203.958-.013 1.162.426.193.415.024.895-.367 1.119-.021.012-.035.032-.058.043l-12.74 5.906-1.62.75-8.047 3.732 5.35 1.535 4.68-2.17 1.586-.735 12.663-5.872.065-.03c.439-.202.958-.012 1.162.426.203.438.013.959-.426 1.162l-12.735 5.904c.96 2.376 1.5 4.965 1.5 7.68 0 11.36-9.246 20.604-20.613 20.604-11.366 0-20.614-9.243-20.614-20.603 0-11.36 9.248-20.603 20.614-20.603zm0 1.75c-10.402 0-18.864 8.457-18.864 18.853s8.462 18.853 18.864 18.853c10.4 0 18.864-8.457 18.864-18.853 0-2.453-.485-4.791-1.343-6.942l-4.963 2.3c-.116.054-.242.08-.368.08-.081 0-.162-.01-.241-.033l-7.92-2.272c-.352-.101-.603-.41-.631-.774-.028-.364.173-.708.504-.861L51.48 27c-3.438-3.593-8.267-5.845-13.621-5.845zm-6.169 25.47c2.064 1.315 2.8 3.925 1.574 5.844-1.225 1.92-3.9 2.351-5.963 1.034s-2.799-3.924-1.574-5.844c1.226-1.92 3.9-2.351 5.963-1.035zm-4.487 1.976c-.68 1.064-.245 2.607 1.04 3.427 1.284.82 2.866.564 3.545-.5.68-1.065.245-2.61-1.038-3.428-1.285-.82-2.868-.564-3.547.5zm18.213-3.092c.466.899.472 1.95.04 2.844-.295.608-.776 1.109-1.387 1.426-1.562.814-3.232 1.394-4.964 1.725-1.717.329-3.375-.796-3.704-2.514-.33-1.717.797-3.376 2.513-3.705 1.129-.216 2.216-.594 3.23-1.121 1.551-.809 3.464-.206 4.272 1.345zm-3.463.207c-1.166.606-2.415 1.04-3.71 1.288-.767.147-1.27.889-1.124 1.657.148.768.889 1.271 1.657 1.124 1.565-.299 3.073-.823 4.485-1.56.275-.142.488-.363.62-.634.194-.402.191-.872-.018-1.274-.36-.694-1.216-.963-1.91-.601zm-8.394-7.982c.668.933 1.467 1.762 2.373 2.46 1.383 1.07 1.637 3.059.568 4.442-.619.802-1.572 1.248-2.565 1.23-.677-.013-1.332-.24-1.876-.662-1.394-1.078-2.621-2.35-3.648-3.783-1.017-1.42-.691-3.398.73-4.416 1.42-1.02 3.399-.693 4.418.729zm-3.399.693c-.635.456-.781 1.34-.327 1.975.928 1.294 2.037 2.444 3.297 3.419.245.189.535.29.838.295.445.008.87-.19 1.147-.55.478-.619.365-1.508-.253-1.986-1.04-.803-1.958-1.756-2.726-2.827-.456-.636-1.34-.782-1.976-.326zm5.353-3.535c.869-1.722 2.855-2.34 4.611-1.454l2.796 1.522c1.985-1.167 4.374-.132 4.986 1.918.723 2.237-.954 4.894-4.4 5.34-.84.103-2.155-.401-4.02-1.351-.604-.307-1.22-.642-1.795-.97-.212-.12-.406-.232-.562-.325l-.056-.033-.065-.04-.04-.023-.036-.023c-1.685-.881-2.284-2.847-1.419-4.561zm3.799.096c-.88-.444-1.809-.155-2.236.692-.444.879-.155 1.808.692 2.236.039.019.075.04.114.067l-.005-.003.094.057.05.03c.147.087.332.194.535.31.554.315 1.146.636 1.724.93 1.475.752 2.674 1.212 3.004 1.175 2.357-.306 3.344-1.87 2.951-3.084-.327-1.097-1.656-1.593-2.706-.734-.276.225-.66.261-.973.091z"/>
                </g>
            </g>
        </g>
    </g>
</svg>
