<svg width="81" height="80" viewBox="0 0 81 80" fill="none" xmlns="http://www.w3.org/2000/svg">
<path d="M24.0599 42.91C23.4699 43.05 22.7099 42.92 21.9699 42.98C20.7499 43.08 19.3299 43.29 18.0799 43.39C17.1199 43.39 16.1499 43.39 15.1899 43.4" stroke="#194066" stroke-width="1.75" stroke-miterlimit="10"/>
<path d="M61.2598 46.61C60.9698 46.63 60.6298 46.47 60.2798 46.43C59.6998 46.36 59.0098 46.34 58.4198 46.27C57.9798 46.17 57.5298 46.07 57.0898 45.96" stroke="#194066" stroke-width="1.75" stroke-miterlimit="10"/>
<path d="M58.8899 19.09C58.4999 19.61 57.7799 20.07 57.2099 20.65C56.2699 21.6 55.2399 22.78 54.2699 23.75C53.4699 24.44 52.6799 25.14 51.8799 25.83" stroke="#194066" stroke-width="1.75" stroke-miterlimit="10"/>
<path d="M64.73 37.9C64.31 38.08 63.73 38 63.2 38.11C62.31 38.29 61.27 38.6 60.36 38.78C59.65 38.85 58.94 38.91 58.24 38.98" stroke="#194066" stroke-width="1.75" stroke-miterlimit="10"/>
<path d="M57.47 34.4C57.66 34.42 58.38 34.37 58.57 34.39C59.22 34.27 59.84 33.96 60.45 33.63C61.04 33.31 61.7 33.08 62.28 32.75C62.55 32.59 62.6 32.35 62.77 32.11C62.93 31.89 63.17 31.71 63.39 31.56C63.8 31.27 64.34 30.97 64.8 30.96" stroke="#194066" stroke-width="1.75" stroke-miterlimit="10"/>
<path d="M21.1099 52.69C21.4499 52.41 21.9899 52.33 22.4499 52.08C23.2099 51.67 24.0699 51.11 24.8499 50.69C25.4799 50.44 26.0999 50.19 26.7299 49.94" stroke="#194066" stroke-width="1.75" stroke-miterlimit="10"/>
<path d="M29.0599 52C28.8299 52.08 28.0099 52.45 27.7699 52.54C27.0899 52.92 26.5799 53.4 26.0899 53.88C25.6099 54.35 24.9999 54.79 24.5599 55.25C24.3499 55.47 24.4699 55.63 24.4299 55.85C24.3999 56.05 24.2399 56.27 24.0899 56.45C23.7999 56.81 23.3899 57.24 22.8599 57.47" stroke="#194066" stroke-width="1.75" stroke-miterlimit="10"/>
<path d="M35.1899 66.08C35.3499 65.88 35.8499 65.07 36.0099 64.87C36.3699 64.1 36.5099 63.26 36.6199 62.43C36.7299 61.62 36.9799 60.79 37.0599 59.99C37.0999 59.62 36.8699 59.44 36.7499 59.13C36.6299 58.84 36.6299 58.49 36.6299 58.18C36.6399 57.58 36.7199 56.85 37.0499 56.34" stroke="#194066" stroke-width="1.75" stroke-miterlimit="10"/>
<path d="M56.8699 59.35C56.7799 59.15 56.3699 58.46 56.2799 58.26C55.8799 57.69 55.3999 57.28 54.9299 56.89C54.4699 56.51 54.0099 56.01 53.5599 55.66C53.3499 55.5 53.2099 55.61 53.0099 55.6C52.8199 55.59 52.6099 55.47 52.4299 55.35C52.0799 55.13 51.6599 54.8 51.3999 54.35" stroke="#194066" stroke-width="1.75" stroke-miterlimit="10"/>
<path d="M58.1898 53.01C58.0898 52.91 57.6898 52.6 57.5898 52.5C57.2298 52.26 56.8498 52.12 56.4798 52C56.1198 51.88 55.7398 51.69 55.3898 51.59C55.2298 51.54 55.1698 51.64 55.0498 51.68C54.9298 51.72 54.7798 51.69 54.6498 51.67C54.3898 51.62 54.0698 51.52 53.8198 51.31" stroke="#194066" stroke-width="1.75" stroke-miterlimit="10"/>
<path d="M42.6999 56.72C42.6499 56.91 42.5499 57.63 42.4999 57.82C42.4799 58.47 42.6499 59.1 42.8299 59.71C42.9999 60.31 43.0799 60.97 43.2699 61.55C43.3599 61.82 43.5699 61.87 43.7499 62.05C43.9199 62.21 44.0299 62.46 44.1199 62.67C44.2999 63.09 44.4699 63.62 44.3899 64.09" stroke="#194066" stroke-width="1.75" stroke-miterlimit="10"/>
<path d="M31.9799 24.37L29.6299 16.77" stroke="#194066" stroke-width="1.75" stroke-miterlimit="10"/>
<path d="M36.1301 22.79L35.8 17.79" stroke="#194066" stroke-width="1.75" stroke-miterlimit="10"/>
<path d="M48.52 23.47L50.58 20.6" stroke="#194066" stroke-width="1.75" stroke-miterlimit="10"/>
<path d="M26.13 30.84L19.05 25.88" stroke="#194066" stroke-width="1.75" stroke-miterlimit="10"/>
<path d="M19.27 33.14L24.79 35.16" stroke="#194066" stroke-width="1.75" stroke-miterlimit="10"/>
<path fill-rule="evenodd" clip-rule="evenodd" d="M46.3399 23.28C50.5999 24.95 54.4999 28.08 56.2799 32.25C56.6999 33.24 56.9799 34.2 57.4699 35.15C58.5099 37.18 57.9799 39.96 57.8799 42.16C57.7799 44.48 56.6999 46.25 55.6799 48.28C54.4999 50.62 52.7199 53.17 50.4399 54.54C47.5499 56.27 43.7599 56.87 40.4299 56.89C39.1499 56.9 37.8499 56.75 36.6199 56.39C35.4399 56.04 34.4099 55.39 33.2699 54.97C31.1599 54.17 28.8799 53.2 27.6799 51.17C25.5699 47.6 23.3899 44.26 23.7499 39.9C23.9099 38 24.3199 36.13 24.7599 34.27C25.1599 32.6 26.0099 31.08 26.6499 29.5C27.3799 27.68 28.4099 27.05 30.0399 26.09C31.7899 25.06 33.3899 23.59 35.4099 23.1C37.4799 22.59 39.8199 21.78 41.9599 22.1C43.4099 22.31 44.8999 22.71 46.3399 23.28Z" stroke="#194066" stroke-width="1.75" stroke-miterlimit="10"/>
<path d="M29.707 15.7527L29.7026 15.7511C29.1804 15.5656 28.5675 15.7995 28.3493 16.3924L29.707 15.7527ZM29.707 15.7527C29.8976 15.8184 30.0757 15.9453 30.2182 16.1376C30.4839 16.4963 30.4963 16.9082 30.2736 17.3547C30.0934 17.7071 29.7084 17.9139 29.2781 17.8723L29.2778 17.8723M29.707 15.7527L29.2778 17.8723M29.2778 17.8723C28.5653 17.8038 28.1019 17.0662 28.3492 16.3926L29.2778 17.8723Z" fill="#194066" stroke="#194066"/>
<path d="M35.2519 18.2173L35.2519 18.2173L35.2499 18.2156C35.0478 18.0475 34.9949 17.8676 35.0076 17.696C35.0219 17.5039 35.1244 17.2863 35.2996 17.1088C35.4752 16.931 35.6831 16.834 35.8623 16.8239C36.0185 16.8151 36.2031 16.8676 36.3884 17.1008C36.6569 17.4395 36.5612 17.9818 36.1909 18.2186C35.861 18.4291 35.4876 18.4155 35.2519 18.2173Z" fill="#194066" stroke="#194066"/>
<path d="M43.9018 65.4273L43.9018 65.4273L43.8998 65.4256C43.6977 65.2575 43.6448 65.0775 43.6575 64.906C43.6718 64.7138 43.7743 64.4963 43.9495 64.3187C44.1251 64.1409 44.333 64.0439 44.5122 64.0339C44.6679 64.0251 44.8519 64.0772 45.0366 64.3086C45.2986 64.6491 45.2003 65.1935 44.8391 65.4297C44.5096 65.6391 44.1371 65.6252 43.9018 65.4273Z" fill="#194066" stroke="#194066"/>
<path d="M61.1821 47.2541L61.1798 47.2527C60.8074 47.0264 60.6576 46.6638 60.7415 46.3651L60.7416 46.3651L60.7441 46.3552C60.8111 46.0966 60.9588 45.9651 61.1401 45.8995C61.3418 45.8265 61.611 45.8298 61.8734 45.9218C62.1365 46.0141 62.334 46.1745 62.4297 46.3452C62.5124 46.4925 62.5447 46.6881 62.406 46.9602C62.2008 47.3501 61.6061 47.515 61.1821 47.2541Z" fill="#194066" stroke="#194066"/>
<path d="M57.3098 58.9199C57.6964 58.9199 58.0036 59.1287 58.1042 59.4341C58.1835 59.6824 58.1316 59.8611 58.029 59.998C57.9138 60.1518 57.7104 60.2798 57.4672 60.3347C57.2236 60.3897 56.9966 60.3592 56.8407 60.2708C56.7051 60.194 56.5776 60.0498 56.5475 59.7512C56.5072 59.3245 56.8857 58.9199 57.3098 58.9199Z" fill="#194066" stroke="#194066"/>
<path d="M59.5565 20.0352L59.5557 20.0357C59.0975 20.3211 58.5273 20.3158 58.1295 19.9854L58.1291 19.985C57.8107 19.7213 57.7171 19.4318 57.732 19.1654C57.7479 18.8794 57.8934 18.5746 58.1345 18.334C58.3756 18.0934 58.675 17.9538 58.9553 17.9448C59.2157 17.9365 59.5154 18.038 59.8 18.3929L59.8 18.3929L59.8022 18.3956C60.2275 18.9185 60.083 19.7086 59.5565 20.0352Z" fill="#194066" stroke="#194066"/>
<path d="M51.2468 20.7283L51.2468 20.7283L51.2452 20.7297C50.9838 20.9529 50.594 21.0124 50.2623 20.8184L50.2588 20.8164C49.9965 20.6658 49.906 20.4848 49.8845 20.3264C49.8605 20.1508 49.9149 19.9446 50.0452 19.7656C50.1752 19.5872 50.3546 19.4716 50.5344 19.4408C50.6987 19.4126 50.9171 19.4453 51.1703 19.666C51.5509 20.0013 51.5036 20.5111 51.2468 20.7283Z" fill="#194066" stroke="#194066"/>
<path d="M64.7918 30.07L64.7919 30.07C65.2451 30.0772 65.6569 30.3284 65.8495 30.7273C66.1201 31.2899 65.8624 32.0159 65.3091 32.2767C64.8456 32.4892 64.3873 32.3483 64.065 31.9987C63.7338 31.6395 63.6019 31.114 63.7924 30.6499L63.7925 30.6499L63.7951 30.6431C63.9381 30.2798 64.3171 30.0624 64.7918 30.07Z" fill="#194066" stroke="#194066"/>
<path d="M65.0953 36.8756L65.0953 36.8756L65.1031 36.8745C65.488 36.8175 65.8184 36.9665 65.9722 37.1948C66.1854 37.5263 66.0821 38.088 65.6117 38.3717L65.6117 38.3717L65.6099 38.3728C64.8399 38.8415 64.0781 38.1263 64.3042 37.448L64.3043 37.448L64.3077 37.4369C64.3932 37.1593 64.694 36.9286 65.0953 36.8756Z" fill="#194066" stroke="#194066"/>
<path d="M23.7415 57.727C23.8261 58.1141 23.63 58.5152 23.2435 58.7733C22.8576 59.0277 22.3808 59.0541 21.9989 58.8364C21.455 58.5219 21.2552 57.779 21.5705 57.2441C21.8304 56.8046 22.2857 56.662 22.7492 56.7685C23.2259 56.8781 23.6339 57.2383 23.7415 57.727Z" fill="#194066" stroke="#194066"/>
<path d="M19.7777 53.8026L19.7777 53.8026L19.774 53.7995C19.4823 53.5509 19.4205 52.9739 19.7958 52.5708L19.7958 52.5708L19.7979 52.5685C20.4055 51.9075 21.3401 52.3837 21.3102 53.0993L21.3101 53.1016C21.2993 53.3957 21.0692 53.7053 20.6967 53.8732C20.3318 54.0331 19.9791 53.9775 19.7777 53.8026Z" fill="#194066" stroke="#194066"/>
<path d="M35.9567 67.1808L35.9555 67.1812C35.4696 67.3276 35.0356 67.1254 34.7647 66.734C34.4876 66.3338 34.4293 65.7978 34.6794 65.3658C34.8885 65.0251 35.3085 64.8667 35.7629 64.9339C36.2123 65.0074 36.5852 65.3175 36.713 65.7203C36.9023 66.3245 36.5489 67.0038 35.9567 67.1808Z" fill="#194066" stroke="#194066"/>
<path d="M19.8518 25.0665L19.8517 25.0665L19.8545 25.075C20.0108 25.5543 19.8401 26.0704 19.4842 26.4038C19.1382 26.7281 18.6721 26.834 18.2248 26.584C17.6931 26.2836 17.4891 25.5348 17.8025 24.9906C18.0219 24.6142 18.4562 24.3904 18.9077 24.4189C19.3736 24.4496 19.7394 24.6997 19.8518 25.0665Z" fill="#194066" stroke="#194066"/>
<path d="M18.9603 32.0752L18.9603 32.0753L18.9659 32.076C19.4496 32.1384 19.8895 32.4316 20.0569 32.8387C20.2508 33.3194 20.104 33.7584 19.8166 34.0104C19.5386 34.2541 19.0856 34.3584 18.5657 34.0504C17.9186 33.6633 17.7293 32.9006 17.9572 32.4826C18.1175 32.1984 18.4829 32.0081 18.9603 32.0752Z" fill="#194066" stroke="#194066"/>
<path d="M15.2399 44.9199C14.3099 44.8999 13.5299 44.1699 13.5499 43.3599L15.2399 44.9199ZM15.2399 44.9199C16.8199 44.9599 17.4099 43.1799 16.3199 42.2699L15.2399 44.9199ZM14.7415 42.5157L14.7416 42.5158L14.747 42.5135C15.1904 42.3346 15.6807 42.3805 15.9945 42.6495L15.9945 42.6495L15.9995 42.6537C16.7258 43.26 16.3591 44.448 15.2526 44.42L15.2507 44.42C14.5394 44.4047 14.0397 43.8517 14.0497 43.3746C14.0627 43.0298 14.3041 42.6862 14.7415 42.5157Z" fill="#194066" stroke="#194066"/>
<path d="M58.2002 52.4858L58.2002 52.4858L58.202 52.4831C58.275 52.3769 58.477 52.2348 58.7675 52.1541C59.0492 52.0759 59.2755 52.0938 59.3843 52.1414C59.5374 52.2364 59.6485 52.4205 59.6837 52.6515C59.7174 52.9993 59.6 53.4473 59.3689 53.7605C59.15 54.0571 58.8938 54.1664 58.5893 54.0727C58.3698 54.0028 58.1155 53.7811 58.0215 53.445L58.0158 53.425L58.0086 53.4055C57.974 53.3127 57.9649 53.1558 58.0076 52.9575C58.0492 52.7637 58.1279 52.5895 58.2002 52.4858Z" fill="#194066" stroke="#194066"/>
</svg>
