<svg width="81" height="80" viewBox="0 0 81 80" fill="none" xmlns="http://www.w3.org/2000/svg">
<path fill-rule="evenodd" clip-rule="evenodd" d="M21.8833 24.1629C22.1519 23.376 22.6309 22.5029 23.2512 21.7456C23.8749 20.9841 24.5992 20.3906 25.3347 20.0913C26.0445 19.8024 26.7642 19.7831 27.4955 20.1539C28.258 20.5406 29.1344 21.4037 29.9987 23.0921C30.1041 23.298 30.2868 23.4538 30.5067 23.5254C31.9519 23.9959 32.6994 25.1641 32.9586 26.4299C33.0886 27.0646 33.0865 27.6941 32.9928 28.2132C32.8943 28.7582 32.7161 29.0729 32.5968 29.1894C32.3932 29.3883 32.299 29.6738 32.3444 29.9548C32.3897 30.2359 32.569 30.4772 32.8249 30.6019C33.7336 31.0448 34.3581 31.9759 34.6894 33.1768C35.0196 34.3733 35.0186 35.7113 34.7853 36.7444C34.5665 37.713 34.713 38.5625 35.1589 39.2582C35.5878 39.9272 36.2388 40.369 36.8846 40.6633C38.1625 41.2457 39.6942 41.375 40.5 41.375C41.3058 41.375 42.8375 41.2457 44.1154 40.6633C44.7612 40.369 45.4122 39.9272 45.8411 39.2582C46.2869 38.5625 46.4334 37.713 46.2147 36.7444C45.9814 35.7113 45.9804 34.3733 46.3105 33.1768C46.6419 31.9759 47.2664 31.0448 48.1751 30.6019C48.431 30.4772 48.6102 30.2359 48.6556 29.9548C48.701 29.6738 48.6068 29.3883 48.4032 29.1894C48.2839 29.0729 48.1057 28.7582 48.0072 28.2132C47.9134 27.6941 47.9114 27.0646 48.0414 26.4299C48.3005 25.1641 49.0481 23.9959 50.4933 23.5254C50.7132 23.4538 50.8959 23.298 51.0013 23.0921C51.8656 21.4037 52.742 20.5406 53.5045 20.1539C54.2358 19.7831 54.9555 19.8024 55.6653 20.0913C56.4007 20.3906 57.1251 20.9841 57.7488 21.7456C58.3691 22.5029 58.8481 23.376 59.1167 24.1629C59.2376 24.5172 59.5705 24.7553 59.9448 24.7553C60.0268 24.7553 60.3253 24.8195 60.7685 25.0692C61.1827 25.3026 61.6355 25.6498 62.0215 26.0897C62.7835 26.958 63.2439 28.1225 62.7626 29.5328C62.6333 29.9117 62.7777 30.3301 63.1133 30.5486C63.8312 31.0161 64.4214 31.813 64.8537 32.8432C65.2837 33.8679 65.5325 35.0666 65.6036 36.2479C65.6749 37.4318 65.5651 38.5526 65.3138 39.42C65.049 40.3338 64.6883 40.7688 64.4221 40.8988C63.9989 41.1054 63.8152 41.6098 64.0063 42.0401C64.7325 43.6756 64.5808 45.5445 63.8887 47.1492C63.1874 48.7754 62.005 49.9665 60.8766 50.353C60.5228 50.4741 60.2851 50.8068 60.2851 51.1808C60.2851 53.4598 58.7135 55.8177 56.5228 57.6664C55.446 58.5751 54.2615 59.3231 53.1362 59.8407C51.9981 60.3641 50.9793 60.625 50.2224 60.625C49.389 60.625 48.8074 60.4851 48.3869 60.2868C47.9731 60.0915 47.6713 59.8188 47.4242 59.4822C47.169 59.1345 46.9698 58.716 46.7735 58.2232C46.7072 58.0564 46.6344 57.862 46.5579 57.6577L46.5579 57.6576C46.4329 57.3236 46.298 56.9632 46.1649 56.6539C45.6935 55.5592 45.0237 54.5604 44.0785 53.8336C43.1215 53.098 41.9314 52.6797 40.5 52.6797C39.0686 52.6797 37.8785 53.098 36.9215 53.8336C35.9763 54.5604 35.3065 55.5592 34.8351 56.6539C34.702 56.9632 34.567 57.3237 34.442 57.6577L34.442 57.6578C34.3656 57.8621 34.2928 58.0564 34.2264 58.2232C34.0302 58.716 33.831 59.1345 33.5758 59.4822C33.3286 59.8188 33.0269 60.0915 32.613 60.2868C32.1926 60.4851 31.611 60.625 30.7776 60.625C30.0207 60.625 29.0018 60.3641 27.8638 59.8407C26.7385 59.3231 25.554 58.5751 24.4772 57.6664C22.2865 55.8177 20.7149 53.4598 20.7149 51.1808C20.7149 50.8068 20.4772 50.4741 20.1234 50.353C18.995 49.9665 17.8126 48.7754 17.1113 47.1492C16.4192 45.5445 16.2675 43.6756 16.9937 42.0401C17.1848 41.6098 17.001 41.1054 16.5779 40.8988C16.3117 40.7688 15.951 40.3338 15.6862 39.42C15.4348 38.5526 15.3251 37.4318 15.3964 36.2479C15.4675 35.0666 15.7163 33.8679 16.1463 32.8432C16.5786 31.813 17.1688 31.0161 17.8867 30.5486C18.2223 30.3301 18.3667 29.9117 18.2374 29.5328C17.7561 28.1225 18.2165 26.958 18.9784 26.0897C19.3645 25.6498 19.8173 25.3026 20.2315 25.0692C20.6747 24.8195 20.9732 24.7553 21.0552 24.7553C21.4295 24.7553 21.7624 24.5172 21.8833 24.1629ZM40.5 54.4297C39.4314 54.4297 38.6215 54.7341 37.9882 55.221C37.3431 55.7169 36.8323 56.4407 36.4425 57.346C36.3176 57.6361 36.2186 57.9025 36.1117 58.1901C36.0338 58.3999 35.9517 58.6209 35.8523 58.8705C35.6379 59.409 35.3736 59.9904 34.9865 60.5178C34.5913 61.0561 34.0719 61.5335 33.3598 61.8694C32.6544 62.2023 31.8054 62.375 30.7776 62.375C29.6733 62.375 28.3943 62.0109 27.1326 61.4306C25.8581 60.8444 24.5408 60.0099 23.3485 59.0038C21.1544 57.1522 19.2325 54.5838 18.9905 51.7738C17.5002 51.0462 16.2419 49.5524 15.5043 47.8422C14.7501 46.0933 14.4806 43.9848 15.1386 41.9923C14.5872 41.4536 14.2297 40.6812 14.0053 39.907C13.687 38.8084 13.5689 37.4812 13.6495 36.1427C13.7303 34.8018 14.0132 33.404 14.5326 32.166C14.9637 31.1387 15.5753 30.1813 16.4068 29.4744C15.9985 27.5988 16.7064 26.0256 17.6631 24.9354C18.1886 24.3366 18.7991 23.8677 19.3724 23.5446C19.7061 23.3566 20.0657 23.1964 20.4151 23.1005C20.7639 22.2589 21.2741 21.3976 21.8974 20.6366C22.641 19.7289 23.5876 18.9129 24.6751 18.4704C25.7883 18.0174 27.0435 17.9625 28.287 18.5932C29.4315 19.1736 30.4745 20.288 31.3941 21.9863C33.3628 22.7712 34.3433 24.4687 34.6731 26.0788C34.8469 26.9279 34.849 27.7821 34.7149 28.5243C34.652 28.8724 34.5541 29.2223 34.414 29.5448C35.4324 30.3462 36.0485 31.5229 36.3764 32.7113C36.7859 34.1952 36.7868 35.8258 36.4923 37.1299C36.3652 37.6928 36.4659 38.0543 36.6322 38.3138C36.8157 38.5999 37.1419 38.8574 37.6104 39.0709C38.5611 39.5042 39.8058 39.625 40.5 39.625C41.1942 39.625 42.4389 39.5042 43.3896 39.0709C43.858 38.8574 44.1843 38.5999 44.3677 38.3138C44.5341 38.0543 44.6348 37.6928 44.5077 37.1299C44.2132 35.8258 44.2141 34.1952 44.6236 32.7113C44.9515 31.5229 45.5675 30.3462 46.586 29.5448C46.4459 29.2223 46.348 28.8724 46.2851 28.5243C46.151 27.7821 46.1531 26.9279 46.3269 26.0788C46.6566 24.4687 47.6371 22.7712 49.6059 21.9863C50.5255 20.288 51.5685 19.1736 52.713 18.5932C53.9565 17.9625 55.2117 18.0174 56.3249 18.4704C57.4123 18.9129 58.359 19.7289 59.1026 20.6366C59.7259 21.3976 60.2361 22.2589 60.5849 23.1005C60.9343 23.1964 61.2939 23.3566 61.6276 23.5446C62.2009 23.8677 62.8114 24.3366 63.3369 24.9354C64.2936 26.0256 65.0015 27.5988 64.5932 29.4744C65.4247 30.1813 66.0363 31.1387 66.4674 32.166C66.9868 33.404 67.2697 34.8018 67.3505 36.1427C67.4311 37.4812 67.313 38.8084 66.9947 39.907C66.7703 40.6812 66.4128 41.4536 65.8614 41.9923C66.5194 43.9848 66.2499 46.0933 65.4957 47.8422C64.7581 49.5524 63.4998 51.0462 62.0095 51.7738C61.7675 54.5838 59.8455 57.1522 57.6515 59.0038C56.4592 60.0099 55.1419 60.8444 53.8674 61.4306C52.6057 62.0109 51.3267 62.375 50.2224 62.375C49.1946 62.375 48.3456 62.2023 47.6402 61.8694C46.9281 61.5335 46.4087 61.0561 46.0135 60.5178C45.6264 59.9904 45.3621 59.409 45.1477 58.8705C45.0483 58.6209 44.9662 58.3999 44.8883 58.1901C44.7814 57.9025 44.6824 57.6361 44.5575 57.346C44.1677 56.4407 43.6569 55.7169 43.0118 55.221C42.3784 54.7341 41.5686 54.4297 40.5 54.4297Z" fill="#194066"/>
<path d="M20.5 39V43" stroke="#194066" stroke-width="1.75" stroke-linecap="round"/>
<path d="M50.5 39V43" stroke="#194066" stroke-width="1.75" stroke-linecap="round"/>
<path d="M25.5 46V50" stroke="#194066" stroke-width="1.75" stroke-linecap="round"/>
<path d="M55.5 46V50" stroke="#194066" stroke-width="1.75" stroke-linecap="round"/>
<path d="M25.5 32V36" stroke="#194066" stroke-width="1.75" stroke-linecap="round"/>
<path d="M55.5 32V36" stroke="#194066" stroke-width="1.75" stroke-linecap="round"/>
<path d="M30.5 39V43" stroke="#194066" stroke-width="1.75" stroke-linecap="round"/>
<path d="M40.5 45V49" stroke="#194066" stroke-width="1.75" stroke-linecap="round"/>
<path d="M60.5 39V43" stroke="#194066" stroke-width="1.75" stroke-linecap="round"/>
</svg>
