<svg width="81" height="80" viewBox="0 0 81 80" fill="none" xmlns="http://www.w3.org/2000/svg">
<path d="M57.57 46.2899C56.07 46.2899 54.7 46.8299 53.63 47.7299L48.64 45.1699C49.57 43.7799 50.11 42.1099 50.11 40.3199C50.11 38.9399 49.79 37.6399 49.22 36.4799L54.16 32.3099C54.63 32.4699 55.13 32.5499 55.65 32.5499C58.22 32.5499 60.31 30.4599 60.31 27.8899C60.31 25.3199 58.22 23.2299 55.65 23.2299C53.08 23.2299 50.99 25.3199 50.99 27.8899C50.99 28.2399 51.03 28.5699 51.1 28.8999L46.2 33.0299C44.82 32.1099 43.16 31.5699 41.37 31.5699C39.37 31.5699 37.53 32.2399 36.05 33.3799L32.99 27.6299C33.97 26.5499 34.57 25.1099 34.57 23.5299C34.57 20.1499 31.83 17.4199 28.46 17.4199C25.08 17.4199 22.35 20.1599 22.35 23.5299C22.35 26.9099 25.09 29.6399 28.46 29.6399C28.6 29.6399 28.74 29.6299 28.88 29.6199L33.09 37.5299C32.8 38.3999 32.64 39.3299 32.64 40.2999C32.64 41.5599 32.91 42.7599 33.39 43.8399L26.22 49.8999C25.43 49.5299 24.56 49.3299 23.63 49.3299C20.25 49.3299 17.52 52.0699 17.52 55.4399C17.52 58.8199 20.26 61.5499 23.63 61.5499C27 61.5499 29.74 58.8099 29.74 55.4399C29.74 54.6699 29.6 53.9299 29.34 53.2599L36.28 47.3999C37.71 48.4299 39.47 49.0399 41.38 49.0399C42.6 49.0399 43.76 48.7899 44.81 48.3399L51.49 51.7599C51.47 51.9699 51.46 52.1799 51.46 52.3899C51.46 55.7699 54.2 58.4999 57.57 58.4999C60.95 58.4999 63.68 55.7599 63.68 52.3899C63.68 49.0199 60.95 46.2899 57.57 46.2899Z" stroke="#194066" stroke-width="1.75" stroke-miterlimit="10" stroke-linecap="round" stroke-linejoin="round"/>
</svg>
