<?xml version="1.0" encoding="UTF-8"?>
<svg width="120px" height="120px" viewBox="0 0 120 120" version="1.1" xmlns="http://www.w3.org/2000/svg" xmlns:xlink="http://www.w3.org/1999/xlink">
    <title>Icons 120px / outline / dsm-question-mark-o-m / green</title>
    <g id="Tablet" stroke="none" stroke-width="1" fill="none" fill-rule="evenodd">
        <g transform="translate(-66.000000, -2906.000000)" id="cards">
            <g transform="translate(0.000000, 2220.000000)">
                <g id="Card-2-Copy" transform="translate(15.000000, 635.000000)">
                    <g id="Icons-120px-/-outline-/-dsm-question-mark-o-m-/-green" transform="translate(51.000000, 51.000000)">
                        <rect id="Rectangle-Copy-10" x="0" y="0" width="120" height="120"></rect>
                        <path d="M58.68,94.72928 C58.14432,94.88864 57.58752,95 57,95 C56.41248,95 55.85568,94.88864 55.32,94.72928 C52.8336,93.99776 51,91.72064 51,89 C51,86.27936 52.8336,84.00032 55.32,83.2688 C55.85568,83.10944 56.41248,83 57,83 C57.58752,83 58.14432,83.10944 58.68,83.2688 C61.1664,84.00032 63,86.27936 63,89 C63,91.72064 61.1664,93.99776 58.68,94.72928" id="Path" fill="#F7E0A6"></path>
                        <path d="M41,47.6072504 C41,44.7254879 41.915967,41.8339492 43.7238386,38.9450112 C45.5296235,36.060056 48.1535595,33.6798686 51.5710521,31.8089657 C55.0033136,29.9333242 58.9826447,29 63.4967378,29 C67.6863434,29 71.4115973,29.7785562 74.6593951,31.3440274 C77.9312489,32.9210938 80.4791811,35.0828515 82.2804405,37.8249063 C84.0906588,40.5707567 85,43.5791724 85,46.819801 C85,49.3742641 84.4752901,51.6424169 83.4159311,53.6085494 C82.4007026,55.4898061 81.1909215,57.1198943 79.7869321,58.4930525 C79.0025911,59.2618268 78.2889662,59.8961 76.9503514,61.0412717 L76.6855346,61.2677444 C74.392897,63.2284853 73.3567545,64.206081 72.2734366,65.5473399 C70.8674817,67.2864822 69.6526562,69.1751254 68.6568111,71.1708365 C68.5745302,71.3359905 68.4919233,71.5105109 68.4046326,71.7027084 C68.2895476,71.9561035 68.3026829,71.9258378 67.9768091,72.6823723 C66.9790252,74.998784 66.26275,76.1028356 64.7312053,77.0919311 C61.4731077,79.1934967 57.2221531,77.4598859 55.8743436,73.8170046 C54.8780746,71.1285482 55.3967242,68.0375764 56.9095263,64.603899 C58.360164,61.3115201 60.2649397,59.1925006 64.8000344,55.1138459 C65.2063961,54.7487174 66.6799208,53.4785971 66.8830982,53.2997647 C69.741846,50.7835555 70.9951494,49.0038778 70.9951494,46.9024531 C70.9951494,45.0655308 70.3279508,43.5544141 68.9524638,42.2835668 C67.5679702,41.0034175 65.7693953,40.3594093 63.4952348,40.3594093 C58.9850675,40.3594093 56.1988207,43.1253217 54.4138038,48.4827297 C53.3176277,52.1179875 51.0642216,54.0916864 47.8175576,54.0916864 C45.9192597,54.0916864 44.2762916,53.4055209 42.9652228,52.0612719 C41.6757391,50.7391078 41,49.2375816 41,47.6072504 Z" id="Path" fill="#80D1CA" fill-rule="nonzero"></path>
                        <path d="M59.4425414,77.4528603 C63.4894303,77.4528603 66.7696123,80.7085286 66.7696123,84.7264301 C66.7696123,88.7433045 63.488962,92 59.4425414,92 C55.3961208,92 52.1154705,88.7433045 52.1154705,84.7264301 C52.1154705,80.7085286 55.3956525,77.4528603 59.4425414,77.4528603 Z M59.4425414,80.0638853 C56.8481871,80.0638853 54.7457011,82.1506589 54.7457011,84.7264301 C54.7457011,87.3012751 56.8487571,89.3889749 59.4425414,89.3889749 C62.0363258,89.3889749 64.1393817,87.3012751 64.1393817,84.7264301 C64.1393817,82.1506589 62.0368958,80.0638853 59.4425414,80.0638853 Z M60.4967378,26 C64.6863434,26 68.4115973,26.7729859 71.6593951,28.3272566 C74.9312489,29.8930396 77.4791811,32.0393307 79.2804405,34.7617669 C81.0906588,37.4879716 82,40.474863 82,43.692306 C82,46.2284927 81.4752901,48.4804175 80.4159311,50.432483 C79.4007026,52.3002799 78.1909215,53.9187054 76.7869321,55.282039 C76.0025911,56.045313 75.2889662,56.6750482 73.9503514,57.8120266 L73.6855346,58.0368789 C71.392897,59.9835914 70.3567545,60.9541927 69.2734366,62.2858552 C67.8674817,64.0125546 66.6526562,65.8876851 65.6568111,67.8691175 C65.5745302,68.0330899 65.4919233,68.2063617 65.4046326,68.397184 C65.2895476,68.6487662 65.3026829,68.618717 64.9768091,69.3698388 C63.9790252,71.6696773 63.26275,72.7658298 61.7312053,73.7478485 C58.4731077,75.8343782 54.2221531,74.1131708 52.8743436,70.4963532 C51.8780746,67.8271318 52.3967242,64.758275 53.9095263,61.3491644 C55.360164,58.0803414 57.2649397,55.9764829 61.8000344,51.9270096 C62.0151671,51.7350893 62.5294008,51.2913356 62.9958915,50.8898408 L63.2960059,50.6316655 C63.5814349,50.3862054 63.8113885,50.1885733 63.8830982,50.1259076 C66.741846,47.627701 67.9951494,45.8607564 67.9951494,43.7743667 C67.9951494,41.950587 67.3279508,40.4502819 65.9524638,39.1885271 C64.5679702,37.9175369 62.7693953,37.2781363 60.4952348,37.2781363 C55.9850675,37.2781363 53.1988207,40.0242595 51.4138038,45.343337 C50.3176277,48.9525857 48.0642216,50.9121633 44.8175576,50.9121633 C42.9192597,50.9121633 41.2762916,50.2309072 39.9652228,48.8962759 C38.6757391,47.5835714 38,46.0927882 38,44.4741215 C38,41.612977 38.915967,38.7421264 40.7238386,35.8738578 C42.5296235,33.0095435 45.1535595,30.6463857 48.5710521,28.7888685 C52.0033136,26.9266466 55.9826447,26 60.4967378,26 Z M60.4967378,28.6110251 C56.4071686,28.6110251 52.8611832,29.4367607 49.8333666,31.0795448 C46.7973661,32.7297092 44.5103962,34.7893901 42.9534991,37.2589214 C41.395645,39.7305261 40.6302306,42.1295106 40.6302306,44.4741215 C40.6302306,45.374721 41.0162295,46.2262934 41.8483221,47.0733701 C42.6621357,47.9018095 43.6251866,48.3011382 44.8175576,48.3011382 C46.8091325,48.3011382 48.1125549,47.1676731 48.9069302,44.5539838 C51.0234464,38.245079 54.6536917,34.6671113 60.4952348,34.6671113 C63.4061664,34.6671113 65.846101,35.5345177 67.7378932,37.2712174 C69.6495038,39.0247662 70.62538,41.2191833 70.62538,43.7743667 C70.62538,46.8464748 69.0094231,49.124699 65.621046,52.0857387 C65.3991952,52.27961 63.9401175,53.5282794 63.5585664,53.8686617 C59.2985592,57.6725042 57.5661359,59.5859964 56.3165489,62.4017779 C55.0536654,65.2476951 54.6380867,67.7066802 55.3409567,69.5898224 C56.1324342,71.7137348 58.5359537,72.6869175 60.3047306,71.5541692 C61.2709715,70.9346203 61.756487,70.1916112 62.5610953,68.3370321 C62.8976058,67.5613933 62.8839485,67.5926366 63.0097615,67.3176023 C63.1093835,67.0998233 63.2052521,66.8987345 63.3028749,66.7041886 C64.3842073,64.5526615 65.7023475,62.5180606 67.2275128,60.6449554 C68.4432847,59.1504743 69.564128,58.1005299 71.9758578,56.0526945 L72.2403788,55.8280934 C73.5359924,54.7276389 74.2159385,54.1276235 74.9466858,53.4165046 C76.1575021,52.2407494 77.2088596,50.8342605 78.1007538,49.1933722 C78.9440842,47.639379 79.3697694,45.8124435 79.3697694,43.692306 C79.3697694,40.9876258 78.6124318,38.500017 77.0831886,36.19696 C75.5507569,33.8808346 73.3717602,32.0453221 70.5172061,30.6792427 C67.6418271,29.3031972 64.3060392,28.6110251 60.4967378,28.6110251 Z" id="Combined-Shape" fill="#000000" fill-rule="nonzero"></path>
                    </g>
                </g>
            </g>
        </g>
    </g>
</svg>