<svg xmlns="http://www.w3.org/2000/svg" width="120" height="120" viewBox="0 0 120 120">
    <g fill="none" fill-rule="evenodd">
        <g>
            <g>
                <g>
                    <g transform="translate(-789 -2120) translate(0 1788) translate(736 287) translate(53 45)">
                        <circle fill="#F7E0A6" fill-rule="nonzero" style="mix-blend-mode:multiply" cx="64.5" cy="59.5" r="17.5"/>
                        <circle fill="#80D0C9" fill-rule="nonzero" style="mix-blend-mode:multiply" cx="52" cy="26" r="7"/>
                        <g fill="#000" fill-rule="nonzero">
                            <path d="M7.512 17.903c-3.198-1.507-5.409-4.747-5.409-8.501C2.103 4.21 6.334 0 11.553 0c5.22 0 9.45 4.21 9.45 9.402 0 4.009-2.52 7.43-6.071 8.783 1.314.483 2.557 1.482 4.326 3.187l.353.34c1.09 1.046 1.727 1.583 2.412 1.98 3.096 1.794 3.418 6.173 1.398 8.655 5.215 2.406 8.064 6.76 8.519 12.041.389 4.522-1.146 9.242-3.572 11.43l1.467 9.256c.12.754-.466 1.436-1.232 1.436h-9.524V76.8c0 3.17-2.305 5.226-5.187 5.199-2.86-.029-5.163-2.1-5.163-5.199V66.51h-7.48c-.766 0-1.35-.679-1.234-1.43l3.309-21.401c-.935-.93-1.53-1.674-1.939-2.448-.695-1.317-.792-2.209-.79-5.3v-7.597c0-5.523 3.203-9.811 6.917-10.43zM5.528 42.348l.312.297c-.27-.257 4.852 4.766 5.702 5.466 2.034 1.675 5.099-1.53 3.434-3.238-.162-.166-1.22-1.28-1.482-1.553-.833-.87-1.584-1.64-2.32-2.372-.25-.248-.493-.487-.73-.716-.9-.873-1.689-1.593-2.344-2.131-.287-.236-.453-.586-.454-.956l-.008-6.996c-.001-.686.557-1.243 1.246-1.244.69 0 1.25.555 1.25 1.24l.008 6.422c.609.525 1.292 1.157 2.044 1.886.244.237.495.483.752.738.753.748 1.517 1.532 2.364 2.417.27.282 1.317 1.383 1.467 1.537 3.881 3.984-2.384 10.532-6.819 6.879-.596-.49-2.896-2.713-4.431-4.207l-2.816 18.21h7.274c.69 0 1.248.555 1.248 1.24v11.534c0 1.672 1.143 2.7 2.691 2.715 1.547.015 2.667-.985 2.667-2.715V65.268c0-.686.559-1.242 1.248-1.242h9.311l-1.353-8.534c-.075-.476.132-.952.533-1.222 1.952-1.315 3.483-5.578 3.13-9.67-.43-5.008-3.36-8.927-8.974-10.734-1.139-.367-1.156-1.963-.025-2.354 2.107-.73 2.421-4.453.314-5.675-.91-.526-1.662-1.159-2.89-2.338l-.356-.343c-2.217-2.136-3.3-2.846-4.752-2.846H8.436c-2.592 0-5.345 3.324-5.345 8.025v7.598c-.001 2.666.07 3.32.504 4.143.32.608.884 1.276 1.909 2.25l.024.022zm12.98-32.946c0-3.82-3.114-6.919-6.955-6.919-3.84 0-6.954 3.098-6.954 6.919 0 3.821 3.113 6.918 6.954 6.918 3.842 0 6.954-3.097 6.954-6.918z" transform="translate(43 20)"/>
                        </g>
                        <path d="M0 0H120V120H0z"/>
                    </g>
                </g>
            </g>
        </g>
    </g>
</svg>
