<svg width="81" height="80" viewBox="0 0 81 80" fill="none" xmlns="http://www.w3.org/2000/svg">
<path d="M40.5 57.64C33.38 55.08 24.86 49.83 21.73 42.52C20.62 39.94 20.01 37.08 20.09 34.33C20.22 30.26 21.87 26.41 25.72 24.03C27.44 22.96 29.44 22.37 31.47 22.37C35.13 22.37 38.37 24.28 40.5 27.1C42.63 24.28 45.86 22.37 49.53 22.37C51.56 22.37 53.56 22.97 55.28 24.03C59.12 26.41 60.78 30.25 60.91 34.33C61 37.08 60.38 39.94 59.27 42.52C56.14 49.82 47.62 55.08 40.5 57.64Z" stroke="#194066" stroke-width="1.75" stroke-miterlimit="10" stroke-linejoin="round"/>
</svg>
