<svg width="80" height="80" viewBox="0 0 80 80" fill="none" xmlns="http://www.w3.org/2000/svg">
<path d="M48.9199 48.85L60.7199 60.65" stroke="#194066" stroke-width="3" stroke-miterlimit="10" stroke-linecap="round"/>
<path d="M35.62 53.02C45.285 53.02 53.12 45.2297 53.12 35.62C53.12 26.0102 45.285 18.22 35.62 18.22C25.955 18.22 18.12 26.0102 18.12 35.62C18.12 45.2297 25.955 53.02 35.62 53.02Z" stroke="#194066" stroke-width="1.75" stroke-miterlimit="10"/>
<path d="M39.89 26.26C39.89 30.23 30.63 30.64 30.63 35.32C30.63 36.64 31.44 37.97 32.67 38.68" stroke="#194066" stroke-width="1.75" stroke-miterlimit="10" stroke-linecap="round"/>
<path d="M30.73 26.26C30.73 27.48 31.54 28.3 32.77 29.01" stroke="#194066" stroke-width="1.75" stroke-miterlimit="10" stroke-linecap="round"/>
<path d="M30.6299 44.8801C30.6299 40.1001 39.8899 39.38 40.4999 35.5201C40.9099 32.7701 38.5699 31.65 38.0599 31.55" stroke="#194066" stroke-width="1.75" stroke-miterlimit="10" stroke-linecap="round"/>
<path d="M40.6 44.88C40.6 43.25 39.58 42.13 38.16 41.22" stroke="#194066" stroke-width="1.75" stroke-miterlimit="10" stroke-linecap="round"/>
<path d="M37.14 35.12H34.09" stroke="#194066" stroke-width="1.75" stroke-miterlimit="10" stroke-linecap="round"/>
<path d="M36.63 26.97H34.19" stroke="#194066" stroke-width="1.75" stroke-miterlimit="10" stroke-linecap="round"/>
<path d="M37.14 43.77H34.09" stroke="#194066" stroke-width="1.75" stroke-miterlimit="10" stroke-linecap="round"/>
</svg>
