<svg width="81" height="80" viewBox="0 0 81 80" fill="none" xmlns="http://www.w3.org/2000/svg">
<path d="M45.51 31.33C48.41 30.52 52.37 30.37 56.12 33.31C65.57 40.73 59.48 67.74 40.51 60.89H40.5C21.53 67.74 15.44 40.73 24.89 33.31C32.02 27.72 39.88 33.31 39.88 33.31" stroke="#9BCA6E" stroke-width="1.75" stroke-miterlimit="10" stroke-linecap="round" stroke-linejoin="round"/>
<path d="M30.5 23.25C39.25 23.25 40.5 28.01 40.5 36.15" stroke="#9BCA6E" stroke-width="1.75" stroke-miterlimit="10" stroke-linecap="round"/>
<path d="M47.93 24.6C45.24 27.35 40.52 26.99 40.52 26.99C40.52 26.99 40.16 22.16 42.85 19.41C45.54 16.66 50.26 17.02 50.26 17.02C50.26 17.02 50.62 21.84 47.93 24.6Z" stroke="#9BCA6E" stroke-width="1.75" stroke-miterlimit="10" stroke-linecap="round" stroke-linejoin="round"/>
</svg>
