<svg xmlns="http://www.w3.org/2000/svg" width="80" height="80" viewBox="0 0 80 80">
    <g fill="none" fill-rule="evenodd">
        <g>
            <g>
                <g>
                    <path d="M0 0H80V80H0z" transform="translate(-683 -2383) translate(1 2188) translate(682 195)"/>
                    <path fill="#F7E0A6" fill-rule="nonzero" d="M42.813 39.754c-.14 2.058-1.873 3.61-4.032 3.61-2.161 0-3.895-1.553-4.033-3.613l-.013-22.486h8.099V39.61l-.02.143z" transform="translate(-683 -2383) translate(1 2188) translate(682 195) rotate(32 38.785 30.315)"/>
                    <path fill="#80D1CA" d="M43 58c5.225 0 9.67 3.34 11.317 8H31.683c1.647-4.66 6.092-8 11.317-8z" transform="translate(-683 -2383) translate(1 2188) translate(682 195)"/>
                    <path fill="#000" fill-rule="nonzero" d="M39.19 12.164l.1.049 9.46 5.462c.418.242.561.777.32 1.195-.224.387-.697.538-1.097.37l-.099-.05-.819-.473-5.188 8.986.01.001c7.287.6 12.938 6.705 12.938 14.061 0 6.082-3.85 11.266-9.244 13.247 3.137 1.119 5.77 3.412 7.307 6.458.276.548-.082 1.189-.669 1.262l-.112.007h-21.85c-.651 0-1.074-.687-.78-1.27 1.464-2.9 3.922-5.12 6.864-6.29-3.558-1.16-6.55-3.706-8.256-7.124-.074-.15-.102-.31-.089-.465H22.06c-.484 0-.875-.391-.875-.874 0-.446.333-.814.765-.868l.11-.007h13.435c.483 0 .875.392.875.875 0 .446-.334.814-.766.868l-.11.007h-5.688c2.131 3.982 6.287 6.532 10.901 6.532 6.825 0 12.358-5.533 12.358-12.358 0-6.34-4.795-11.622-11.026-12.288l-.303-.029-.84-.066-7.058 12.23c-.242.418-.777.561-1.195.32l-1.399-.807c-.028.075-.063.149-.105.22-.39.676-1.226.933-1.92.615l-.13-.067-.945-.547c-.718-.414-.963-1.332-.548-2.049.041-.071.087-.137.137-.2l-1.398-.807c-.419-.242-.562-.777-.32-1.196l13.218-22.893-.819-.473c-.386-.223-.538-.696-.37-1.096l.05-.099c.223-.386.696-.538 1.097-.369zm1.983 43.838c-3.713 0-7.102 1.8-9.204 4.711l-.194.276H50.57c-2.085-3.072-5.568-4.987-9.396-4.987zm-.425-40.926l-12.78 22.136 4.792 2.767 12.78-22.136-4.792-2.767z" transform="translate(-683 -2383) translate(1 2188) translate(682 195)"/>
                </g>
            </g>
        </g>
    </g>
</svg>
