<svg width="81" height="80" viewBox="0 0 81 80" fill="none" xmlns="http://www.w3.org/2000/svg">
<path d="M48.2499 41.73C50.0899 39.63 51.9699 37.36 52.6599 34.59C53.5799 31.21 52.1299 27.9 50.6999 24.9C49.4999 22.38 47.8899 19.6801 45.2099 18.5301C43.7399 17.9001 41.5599 17.8 40.4999 17.8C39.4399 17.8 37.2599 17.9001 35.7899 18.5301C33.1099 19.6801 31.4999 22.38 30.2999 24.9C28.8799 27.9 27.4199 31.21 28.3399 34.59C29.0299 37.35 30.9099 39.63 32.7499 41.73L51.0199 62.2001L59.3099 54.43C55.6999 50.34 52.0999 46.25 48.4899 42.16C45.8999 39.22 43.3099 36.29 40.7399 33.34C38.5399 30.82 36.6899 28.3101 36.0099 24.9401C37.4799 24.4201 39.3899 24.21 40.5099 24.21C41.6299 24.21 43.5399 24.4201 45.0099 24.9401C44.3599 28.1701 42.6299 30.62 40.5399 33.05" stroke="#194066" stroke-width="1.75" stroke-miterlimit="10" stroke-linecap="round" stroke-linejoin="round"/>
<path d="M32.52 42.1602C28.91 46.2502 25.31 50.3402 21.7 54.4302L29.99 62.2002L40.3699 50.5602" stroke="#194066" stroke-width="1.75" stroke-miterlimit="10" stroke-linecap="round" stroke-linejoin="round"/>
</svg>
