<svg xmlns="http://www.w3.org/2000/svg" width="81" height="80" viewBox="0 0 81 80">
    <g fill="none" fill-rule="evenodd">
        <g>
            <g>
                <g>
                    <g>
                        <path d="M0 0H81V80H0z" transform="translate(-551 -1488) translate(-2 1265) translate(481 223) translate(72.5)"/>
                        <path fill="#80D1CA" d="M30.692 46.695c3.539-2.33 6.479-2.667 7.364-6.362.885-3.695-6.211-9.425-6.211-11.384C31.845 26.99 37.62 25 40 25c2.38 0 7.654 2.517 7.654 4.584 0 2.067-4.764 8.734-4.764 10.75 0 2.015 3.57 5.095 6.481 6.361 1.941.845-.612 3.28-7.66 7.305-9.705-3.316-13.378-5.75-11.019-7.305z" transform="translate(-551 -1488) translate(-2 1265) translate(481 223) translate(72.5)"/>
                        <path fill="#F7E0A6" d="M40 17c7.18 0 13 5.82 13 13 0 2.518-.716 4.87-1.956 6.86l-.08-.003h-1.476c.064-.443.097-.896.097-1.357 0-5.247-4.28-9.5-9.56-9.5-5.281 0-9.562 4.253-9.562 9.5 0 .461.033.914.097 1.358h-1.606C27.715 34.868 27 32.518 27 30c0-7.18 5.82-13 13-13z" transform="translate(-551 -1488) translate(-2 1265) translate(481 223) translate(72.5)"/>
                        <path fill="#000" d="M48.978 53.456c.02.297-.074.585-.27.81-.195.225-.465.361-.763.381-.285.018-.585-.074-.81-.269-.225-.195-.361-.466-.382-.764-.044-.612.42-1.147 1.034-1.191.026-.002.053-.003.08-.003.268 0 .525.095.729.272.226.196.36.466.382.764zm9.299 3.583c0 1.15-.936 2.086-2.086 2.086H23.905c-1.202 0-2.181-.979-2.181-2.181v-5.04c0-3.147 2.41-4.407 3.689-4.634 1.5-.269 2.974-.67 4.324-1.123-.046.331-.07.671-.072 1.022-.931.597-1.66 1.456-2.078 2.507-.527 1.328-.506 2.784.058 4.099l1.934 4.509c.09.214.263.382.479.468.104.042.214.062.324.062.117 0 .236-.023.346-.071l.94-.403c.166.201.414.318.673.318.116 0 .233-.022.346-.071.443-.191.649-.705.458-1.15l-.476-1.107c-.19-.444-.703-.649-1.15-.458-.345.148-.54.494-.52.851l-.158.067-1.59-3.704c-.378-.888-.392-1.869-.037-2.764.355-.893 1.035-1.594 1.917-1.972 1.82-.779 3.942.073 4.727 1.903l1.588 3.704-.158.067c-.245-.259-.631-.358-.976-.208-.444.191-.65.705-.46 1.149l.477 1.108c.14.332.464.53.803.53.116 0 .233-.022.345-.071.364-.156.555-.529.51-.904l.953-.408c.444-.191.649-.704.459-1.149l-1.934-4.508c-1.02-2.38-3.567-3.646-6.004-3.141.047-.35.119-.685.23-.996.725-.293 1.384-.587 1.958-.869.877 1.897 3.35 3.233 6.35 3.233 2.996 0 5.466-1.33 6.349-3.222.433.211.923.431 1.443.651.719 1.769.713 3.922.31 5.47-.144-.012-.291-.022-.44-.012-1.576.114-2.766 1.487-2.654 3.062.055.764.404 1.46.982 1.961.525.456 1.183.7 1.873.7.068 0 .137-.002.208-.006.763-.055 1.46-.404 1.96-.982.502-.578.748-1.317.694-2.081-.055-.764-.403-1.46-.981-1.961l-.012-.009c.419-1.46.558-3.443.133-5.348 1.456.505 3.07.96 4.723 1.257 1.276.227 3.69 1.487 3.69 4.634v5.135zm-14.111-13.77c.14.127.357.283.629.455-.532 1.308-2.504 2.316-4.795 2.316-2.298 0-4.28-1.016-4.802-2.333.259-.165.466-.314.6-.438l.286-.26v-2.092c1.063.728 2.35 1.202 3.918 1.202 1.55 0 2.825-.462 3.878-1.173v2.063l.286.26zm-10.553-9.226c-.033.007-.067.011-.1.011-.53 0-1.15-.875-1.596-2.361-.497-1.646-.594-3.408-.032-3.618.044-.015.088-.024.136-.024.17 0 .362.106.557.295-.03-.4 6.848-1.016 10.612-5.977 1.945 1.836 3.235 3.333 4.224 6.163.199-.195.393-.306.568-.306.048 0 .094.009.139.026.56.211.462 1.973-.032 3.617-.45 1.489-1.068 2.369-1.598 2.369-.052 0-.101-.009-.15-.024-1.204 3.793-3.29 6.155-6.34 6.155-3.092 0-5.193-2.433-6.388-6.326zm-4.414 2.204c-1.354-1.722-1.837-4.167-1.437-7.266.803-6.233 5.413-12.962 11.46-12.963.922 0 1.866.157 2.809.467l.288.095.286-.104c.502-.184 1.01-.277 1.51-.277 4.744 0 7.52 7.84 8.157 12.782.399 3.099-.084 5.544-1.437 7.266-1.1 1.398-2.732 2.279-4.85 2.635.767-1.049 1.32-2.205 1.708-3.229.736-.437 1.5-1.383 2.072-3.279.437-1.452 1.21-4.918-1.028-5.761-.078-.027-.155-.051-.23-.069-.996-2.232-2.274-3.71-4.117-5.447l-1.417-1.337-1.178 1.551c-2.487 3.279-6.627 4.412-8.615 4.957-.156.042-.321.087-.488.138-.254-.08-.484-.105-.671-.105-.251 0-.5.044-.737.132-2.26.841-1.481 4.312-1.042 5.766.548 1.821 1.275 2.763 1.986 3.22.397 1.093.977 2.339 1.794 3.459-2.105-.36-3.73-1.238-4.823-2.631zm25.696 9.301c-4.335-.78-8.113-2.609-9.265-3.363v-1.479c2.873-.343 5.087-1.479 6.58-3.377 1.655-2.105 2.26-4.989 1.798-8.571-.637-4.949-3.525-14.309-9.893-14.309-.607 0-1.218.096-1.821.284-1.025-.308-2.058-.465-3.073-.465-6.997.001-12.297 7.522-13.195 14.489-.463 3.583.142 6.467 1.798 8.572 1.482 1.885 3.674 3.018 6.51 3.369v1.488c-1.15.755-4.92 2.587-9.23 3.362-1.774.314-5.13 2.049-5.13 6.356v5.04c0 2.167 1.764 3.931 3.93 3.931h32.287c2.115 0 3.836-1.721 3.836-3.836v-5.135c0-4.308-3.36-6.042-5.132-6.356z" transform="translate(-551 -1488) translate(-2 1265) translate(481 223) translate(72.5)"/>
                    </g>
                </g>
            </g>
        </g>
    </g>
</svg>
