<svg xmlns="http://www.w3.org/2000/svg" width="80" height="80" viewBox="0 0 80 80">
    <g fill="none" fill-rule="evenodd">
        <g>
            <g>
                <g>
                    <g>
                        <path fill="#F7E0A6" d="M25.017 37.201c-.842 0-1.637.318-2.25.898-.635.603-.997 1.416-1.02 2.29-.024.874.295 1.705.896 2.339l13.798 14.56c.61.644 1.467 1.017 2.352 1.023h.023c.878 0 1.731-.36 2.343-.99l29.656-30.45c.61-.627.942-1.452.93-2.327-.011-.875-.362-1.693-.987-2.303-.616-.602-1.427-.93-2.284-.93h-.044c-.874.012-1.69.363-2.3.988L39.514 49.628c-.174.178-.433.267-.663.277-.25-.002-.487-.106-.659-.286L27.393 38.224c-.602-.636-1.412-.999-2.286-1.022h-.09" transform="translate(-681 -3498) translate(0 3231) translate(566 267) translate(115)"/>
                        <path fill="#000" d="M19.971 37.98c-.804 0-1.563.303-2.148.857-.607.574-.953 1.35-.975 2.184-.023.834.282 1.627.856 2.233L30.88 57.15c.582.614 1.401.97 2.246.976h.022c.838 0 1.653-.344 2.237-.944l28.32-29.06c.582-.6.898-1.387.887-2.223-.01-.835-.346-1.614-.943-2.197-.588-.575-1.362-.888-2.18-.888h-.043c-.834.012-1.614.346-2.196.944l-25.416 26.08c-.166.17-.413.255-.633.265-.238-.002-.465-.1-.629-.273L22.24 38.956c-.575-.608-1.349-.954-2.183-.976h-.086m13.177 21.896h-.028c-1.325-.01-2.602-.564-3.509-1.523L16.435 44.459c-.897-.944-1.37-2.181-1.336-3.483.034-1.303.574-2.513 1.52-3.407.944-.898 2.19-1.367 3.485-1.337 1.302.035 2.512.575 3.406 1.52l9.686 10.215 24.78-25.428c.908-.933 2.126-1.456 3.428-1.474 1.301-.012 2.533.477 3.466 1.386.932.907 1.455 2.125 1.473 3.427.016 1.302-.476 2.534-1.385 3.465L36.64 58.401c-.912.937-2.185 1.474-3.49 1.474" transform="translate(-681 -3498) translate(0 3231) translate(566 267) translate(115)"/>
                    </g>
                </g>
            </g>
        </g>
    </g>
</svg>
