<svg width="80" height="80" viewBox="0 0 80 80" fill="none" xmlns="http://www.w3.org/2000/svg">
<path d="M42.1 42.0652L34.23 49.9302C31.12 53.0402 31.12 58.1302 34.23 61.2402L34.41 61.4202C37.52 64.5302 42.61 64.5302 45.73 61.4202L53.595 53.5552M42.1 42.0652L49.97 34.2002C53.08 31.0902 58.17 31.0902 61.28 34.2002L61.46 34.3802C64.57 37.4902 64.57 42.5802 61.46 45.6902L53.595 53.5552M42.1 42.0652L53.595 53.5552" stroke="#194066" stroke-width="1.75" stroke-miterlimit="10" stroke-linejoin="round"/>
<path d="M42 29.9301C42 36.3311 36.7931 41.5201 30.37 41.5201C23.9469 41.5201 18.74 36.3311 18.74 29.9301M42 29.9301C42 23.5291 36.7931 18.3401 30.37 18.3401C23.9469 18.3401 18.74 23.5291 18.74 29.9301M42 29.9301H18.74" stroke="#194066" stroke-width="1.75" stroke-miterlimit="10" stroke-linejoin="round"/>
</svg>
