<svg width="81" height="80" viewBox="0 0 81 80" fill="none" xmlns="http://www.w3.org/2000/svg">
<path d="M19.9365 47.4548C19.5636 47.1473 19.0122 47.2004 18.7048 47.5733C18.3973 47.9461 18.4504 48.4976 18.8233 48.805L19.9365 47.4548ZM61.1986 51.0012C61.6191 51.2394 62.153 51.0916 62.3912 50.6712C62.6294 50.2507 62.4816 49.7167 62.0612 49.4785L61.1986 51.0012ZM48.3767 47.5171C47.8941 47.5416 47.5227 47.9527 47.5471 48.4353C47.5716 48.9179 47.9826 49.2894 48.4653 49.2649L48.3767 47.5171ZM31.558 50.8073C32.0402 50.7751 32.4051 50.3582 32.373 49.8761C32.3408 49.3939 31.9239 49.029 31.4418 49.0611L31.558 50.8073ZM48.4653 49.2649C53.6865 49.0004 58.2192 49.3135 61.1986 51.0012L62.0612 49.4785C58.5992 47.5175 53.5996 47.2525 48.3767 47.5171L48.4653 49.2649ZM18.8233 48.805C20.194 49.9351 22.1003 50.5039 24.2422 50.7634C26.3978 51.0245 28.9005 50.9842 31.558 50.8073L31.4418 49.0611C28.8219 49.2356 26.4466 49.2677 24.4527 49.0261C22.445 48.7829 20.93 48.2738 19.9365 47.4548L18.8233 48.805Z" fill="#194066"/>
<path d="M19.9365 38.0148C19.5636 37.7074 19.0122 37.7605 18.7048 38.1333C18.3973 38.5062 18.4504 39.0577 18.8233 39.3651L19.9365 38.0148ZM61.1986 41.5613C61.6191 41.7995 62.153 41.6517 62.3912 41.2312C62.6294 40.8107 62.4816 40.2768 62.0612 40.0386L61.1986 41.5613ZM32.3085 41.3141C32.7904 41.278 33.1518 40.8581 33.1157 40.3762C33.0796 39.8943 32.6597 39.5329 32.1778 39.569L32.3085 41.3141ZM46.8608 38.1677C46.3787 38.2006 46.0145 38.618 46.0473 39.1002C46.0801 39.5823 46.4976 39.9465 46.9797 39.9137L46.8608 38.1677ZM18.8233 39.3651C20.2567 40.5468 22.2774 41.1161 24.5472 41.3582C26.8335 41.602 29.4934 41.5251 32.3085 41.3141L32.1778 39.569C29.3945 39.7776 26.8599 39.8449 24.7328 39.618C22.5892 39.3894 20.9776 38.8731 19.9365 38.0148L18.8233 39.3651ZM46.9797 39.9137C49.8606 39.7174 52.6025 39.661 55.0454 39.894C57.4945 40.1275 59.5848 40.6471 61.1986 41.5613L62.0612 40.0386C60.1482 38.955 57.7849 38.3973 55.2116 38.1519C52.632 37.9059 49.7825 37.9687 46.8608 38.1677L46.9797 39.9137Z" fill="#194066"/>
<path d="M19.3799 57.5601C26.3299 63.2901 51.5499 53.9601 61.6299 59.6701" stroke="#194066" stroke-width="1.75" stroke-miterlimit="10" stroke-linecap="round" stroke-linejoin="round"/>
<path d="M45.86 24.7401C42.04 29.0901 39.19 34.0801 37.67 39.6101C37.04 41.9101 36.56 44.2901 36.53 46.7001C36.5 49.0401 36.86 51.7601 39.36 52.5001C41.21 53.0401 43.27 52.0101 43.45 49.9001C43.6 48.1501 42.85 46.4201 42.35 44.7801C42.28 44.5501 42.21 44.3301 42.16 44.0901C42.13 43.9801 42.11 43.8701 42.09 43.7601C40.25 33.9101 47.52 24.0901 55.93 16.0701C51.28 19.2801 48.15 22.1301 45.86 24.7401Z" stroke="#194066" stroke-width="1.75" stroke-miterlimit="10" stroke-linecap="round" stroke-linejoin="round"/>
</svg>
