<svg xmlns="http://www.w3.org/2000/svg" width="120" height="120" viewBox="0 0 120 120">
    <g fill="none" fill-rule="evenodd">
        <g>
            <g>
                <g>
                    <g transform="translate(-273 -793) translate(-1 492) translate(226 301) translate(48)">
                        <path d="M0 0H120V120H0z"/>
                        <ellipse cx="67.5" cy="72.5" fill="#80D1CA" rx="22.5" ry="26.5" transform="rotate(-26 67.5 72.5)"/>
                        <path fill="#000" d="M81.03 83.519c-.185.4-.366.804-.548 1.213-.318.712-.637 1.417-.977 2.097-6.8-4.51-11.89-9.832-15.104-15.85-.122-.23-.254-.483-.39-.757.134.014.265.038.396.038.431 0 .862-.073 1.274-.244.665-.28.982-1.05.707-1.72-.277-.671-1.044-.984-1.706-.712-.397.173-1.204-.108-2.002-.555-.733-2.131-1.285-4.684-1.146-7.326 1.105.724 2.402 1.175 3.679 1.611.625.212 1.233.421 1.81.651.181.958.278 2.223 0 2.84-.298.66-.008 1.44.65 1.74.174.08.358.118.537.118.496 0 .972-.286 1.19-.773.298-.663.395-1.452.4-2.216.93.946 1.57 2.29 1.767 4.374.065.681.633 1.191 1.298 1.191.042 0 .084-.002.126-.006.717-.07 1.244-.711 1.175-1.434-.604-6.42-4.77-7.839-8.118-8.978-1.719-.584-3.218-1.104-4.019-2.174.561-1.98 1.614-3.934 3.397-5.721.488-.488 1.03-.94 1.593-1.372.358-.018.713-.026 1.067-.03.297-.003.592.004.886.013l.306.008c.255.012.508.031.76.054.14.01.28.022.421.037.225.026.45.056.673.09.164.023.327.05.486.079.205.037.406.078.606.123.179.04.356.086.532.132.18.048.358.098.534.154.194.061.385.132.575.202.155.058.309.112.46.175.216.09.426.195.636.3.118.06.239.11.354.173.32.176.634.369.935.58.35.247.668.546.982.845.268.259.513.544.751.833.09.108.178.215.262.326.19.253.366.519.532.79.13.214.246.437.36.662.108.212.22.421.311.642.199.478.372.967.494 1.475.08.342.105.718.114 1.105-1.15.384-2.247 1.232-2.959 2.358-1.038 1.646-1.2 3.707-.458 5.804.191.536.693.872 1.23.872.146 0 .293-.026.44-.077.678-.245 1.03-.998.789-1.682-.473-1.333-.403-2.545.203-3.506.256-.405.59-.729.93-.962.221 1.04.737 2.054 1.203 2.95.215.413.425.816.59 1.202 2.47 5.72 1.215 13.462-.994 18.238m-14.138 8.49c-7.936-1.374-14.268-3.681-19.127-6.967.046-.128.82-2.04 4.884-3.14.695-.188 1.11-.911.922-1.61-.186-.704-.913-1.119-1.6-.93-4.015 1.087-5.67 2.95-6.336 4.112-2.268-1.848-4.15-3.956-5.657-6.339-1.445-2.29-2.587-4.383-3.368-6.55l.016.005c2.75-7.678 5.282-10.56 13.69-8.36-.756 4.697-.213 9.85 4.144 14.07.254.246.58.368.906.368.341 0 .684-.134.94-.403.5-.525.484-1.358-.036-1.86-1.231-1.193-2.089-2.487-2.663-3.837.027.007.049.018.076.022.103.026.207.038.309.038.589 0 1.121-.404 1.268-1.006.168-.705-.261-1.417-.963-1.589-.73-.178-1.244-.52-1.539-.756-.58-4.846 1.47-9.937 2.904-13.466.308-.758.572-1.415.784-1.998.16-.444.293-.846.376-1.197.01-.045.001-.088.007-.135.01-.068.013-.135.012-.207-.003-.089-.018-.172-.039-.256-.012-.054-.006-.108-.025-.162-.594-1.627-.758-4.352-.196-6.668 2.8.778 5.761 1.267 8.823.678.684-.133 1.369-.268 2.054-.4.225.777.368 1.593.458 2.393-.62.347-1.237.699-1.807 1.099-.914.639-1.762 1.339-2.524 2.104-.337.337-.619.7-.92 1.055-3.686 4.36-4.704 10.034-2.95 16.248-.274.225-1.105.878-2.15 1.356-.655.3-.945 1.082-.648 1.742.22.485.694.771 1.19.771.18 0 .364-.038.539-.117.774-.355 1.444-.777 1.95-1.132.423 1.07.923 2.152 1.506 3.24 3.433 6.428 8.837 12.088 16.038 16.847-1.896 2.498-4.888 4.039-11.248 2.937M36.061 57.346c.768-3.953 1.117-7.66 1.248-10.814 1.377-.209 2.877-.415 4.273-.577.23 2.78.495 4.99.837 5.959.45 1.27 1.24 2.158 2.348 2.638 1.051.455 2.26.455 3.483.239.844 1.264 1.781 2.343 2.695 3.22.094.091.208.147.318.204-.144.47-.28.953-.407 1.444-8.572-2.21-12.444.48-15.286 6.595-.32-2.566-.186-5.418.49-8.908M32.77 44.65c-.048-.32-.08-.751-.105-1.077l-.006-.08c.42-.247 1.16-.498 2.102-.737.749-.19 1.626-.37 2.614-.533 1.18-.193 2.506-.353 3.9-.47.85-.074 1.717-.131 2.605-.166.592-.023 1.19-.032 1.787-.035-.01.054-.027.1-.034.157-.075.442-.128.875-.175 1.301-.444.011-.936.034-1.478.074-.795.059-1.68.146-2.597.253-1.322.151-2.705.338-4.004.533-.944.142-1.836.284-2.622.417-.791.135-1.48.26-1.987.363m6.548-8.222c.666-.083 1.265.01 1.626.224.047.57.102 1.461.167 2.516-1.33.106-2.62.256-3.821.447-.054-1.028-.12-1.816-.166-2.286.39-.388 1.244-.794 2.194-.9m7.563 15.87c-.4.004-.775-.03-1.081-.164-.269-.116-.656-.357-.92-1.105-.264-.746-.503-2.92-.702-5.33.436-.033.825-.053 1.176-.065.069 2.567.67 4.77 1.527 6.663m19.413-11.284c-.46.087-.92.18-1.379.268-2.439.472-4.912.1-7.291-.532.14-.206.271-.423.438-.599 1.3-1.366 3.307-1.621 5.961-.763.974.315 1.711.891 2.27 1.626m-18.085 1.132c.032-.194.079-.353.116-.535.204-.998.474-1.83.79-2.522.875-1.903 2.079-2.841 3.112-3.624.972-.732 1.973-1.49 2.281-2.814.455-1.959-.544-3.716-1.532-5.282.099-.103.246-.224.436-.322.294-.152.49-.15.562-.093.097.141.346.67.545 1.096 1.059 2.262 2.38 5.083 4.497 4.568 1.865-.445 2.335-2.901 2.71-4.872.071-.376.158-.825.228-1.08.222-.061.619-.047.896-.008-.027.287-.071.652-.11.951-.222 1.789-.454 3.64.485 4.705.39.442.94.687 1.547.687h.016c2.096-.017 3.05-2.17 3.682-3.594.13-.296.32-.722.441-.922.261-.048.792.065 1.13.202-.121.258-.297.58-.43.822-.715 1.31-1.6 2.939-.407 4.051.114.107.32.256.602.445.96.645 3.033 2.056 4.416 5.458.3.744.564 1.581.781 2.527.093.406.175.83.247 1.274.13.81.235 1.673.285 2.63.04.744.04 1.55.019 2.388-1.314-.582-2.71-.982-4.175-1.192-.248-.036-.503-.048-.755-.072-.042-.728-.121-1.523-.252-2.34-.091-.566-.212-1.138-.367-1.71-.233-.858-.55-1.701-.976-2.489-.864-1.593-2.176-2.94-4.207-3.595-4.593-1.489-7.235-.033-8.644 1.447-.463.487-.833 1.058-1.158 1.66-.415.762-.728 1.591-.949 2.463-.696 2.738-.522 5.787.12 7.87-.187.62-.537 1.489-.943 2.49l-.121.298c-.295.732-.62 1.54-.944 2.406-.428-.452-.857-.935-1.267-1.485-.51-.684-.992-1.444-1.414-2.286-1.24-2.477-1.956-5.65-1.293-9.6m30.93-.52c.074.127-.082.578-.45.82-.252.165-.559.273-.899.356-.075-.44-.157-.873-.254-1.294 1.066-.169 1.522-.02 1.603.119m5.282 22.605c-.19-.44-.427-.901-.671-1.37-.421-.814-.857-1.655-.988-2.359-.085-.461-.085-.98-.083-1.53 0-.719.001-1.532-.197-2.37-.652-2.742-2.251-5.212-4.401-6.856.085-1.511.109-2.97.018-4.328.68-.137 1.374-.347 2.02-.771 1.329-.88 2.19-2.8 1.262-4.37-.782-1.32-2.34-1.757-4.607-1.317-1.13-2.992-2.925-5.378-5.434-7.087.141-.332.39-.79.56-1.099.638-1.17 1.242-2.279.66-3.272-.518-.885-1.7-1.39-2.636-1.57-1.062-.204-1.999-.041-2.631.46-.533.417-.831 1.09-1.209 1.94-.192.44-.577 1.304-.932 1.752-.009-.645.112-1.608.179-2.15.185-1.478.297-2.371-.31-3.019-.743-.797-2.348-1.055-3.472-.85-.953.177-1.65.69-1.96 1.445-.177.43-.286 1.006-.426 1.736-.126.66-.4 2.09-.643 2.63-.545-.614-1.324-2.272-1.64-2.95-.313-.672-.541-1.156-.762-1.476-.946-1.37-2.724-1.57-4.326-.491-1.398.939-1.919 2.403-1.235 3.475 1.14 1.793 1.612 2.74 1.41 3.615-.087.374-.553.741-1.304 1.31-1.324 1-3.175 2.442-4.316 5.627-.873-.009-1.751-.003-2.629.029-.094-1.528-.165-2.65-.225-3.156-.031-.246-.128-.48-.283-.671-.871-1.077-2.4-1.579-4.182-1.376-1.538.175-3.619.955-4.421 2.586-.114.231-.158.49-.125.744.003.031.13 1.136.213 2.979-2.326.559-4.017 1.3-4.52 2.181-.134.234-.193.508-.167.779l.055.688c.106 1.405.266 3.53 2.223 3.633.134.01.27-.007.401-.043.377-.1 1.087-.242 1.984-.399-.143 2.931-.476 6.31-1.168 9.879-1.865 9.608.064 15.042 4.275 21.705 5.296 8.38 14.675 13.633 28.675 16.056 1.58.273 2.994.398 4.263.398 8.057 0 10.3-5.034 12.149-9.192.179-.395.354-.79.533-1.177 2.531-5.47 3.829-13.9 1.023-20.398"/>
                    </g>
                </g>
            </g>
        </g>
    </g>
</svg>
