<svg width="80" height="80" viewBox="0 0 80 80" fill="none" xmlns="http://www.w3.org/2000/svg">
<ellipse cx="40.7025" cy="50.6778" rx="3.3601" ry="2" transform="rotate(22.001 40.7025 50.6778)" fill="#80D1CA"/>
<ellipse cx="44.0467" cy="45.2909" rx="5.07981" ry="3.06497" transform="rotate(35.0725 44.0467 45.2909)" fill="#F7E0A6"/>
<ellipse cx="60.149" cy="46.9454" rx="2.5" ry="2" transform="rotate(-29.6958 60.149 46.9454)" fill="#80D1CA"/>
<path d="M44.4525 25.4845C41.4325 28.5045 42.0525 32.5745 42.0525 32.5745C42.0525 32.5745 46.1125 33.1945 49.1425 30.1745C52.3125 27.0045 51.5425 23.0845 51.5425 23.0845C51.5425 23.0845 47.6225 22.3045 44.4525 25.4845Z" fill="#80D1CA"/>
<path d="M28.355 27.6874C32.4331 31.7665 37.9291 30.929 37.9291 30.929C37.9291 30.929 38.7663 25.4453 34.6882 21.3528C30.4075 17.0712 25.1141 18.1112 25.1141 18.1112C25.1141 18.1112 24.0608 23.4058 28.355 27.6874Z" fill="#80D1CA"/>
<path d="M53 18.5C53 17.1363 54.783 17.672 55.7274 16.7276C56.6718 15.7832 56.1363 14 57.5 14C58.8637 14 58.4196 15.7832 59.364 16.7276C60.3084 17.672 62 17.1363 62 18.5C62 19.8637 60.3084 19.4198 59.364 20.3642C58.4196 21.3086 58.8637 23 57.5 23C56.1363 23 56.6718 21.3086 55.7274 20.3642C54.783 19.4198 53 19.8637 53 18.5Z" fill="#F7E0A6"/>
<circle cx="49.5" cy="13.5" r="1.5" fill="#F7E0A6"/>
<path d="M40 28.15V38.63" stroke="#161616" stroke-width="1.75" stroke-miterlimit="10"/>
<path d="M18.58 43.99C18.58 43.99 27.66 41.24 28.91 41.24C30.16 41.24 43.07 47.24 44.24 47.91C46.57 49.24 45.07 54.49 41.16 52.83L32.66 49.5" stroke="#161616" stroke-width="1.75" stroke-miterlimit="10" stroke-linecap="round"/>
<path d="M18.58 57.07L26.75 53.99C26.75 53.99 37.6 58.69 39.13 59.39C41.13 60.31 43.32 60.31 45.38 59.06C48.09 57.42 61.09 48.25 61.09 48.25C64.1 46.03 60.94 41.44 57.17 43.75C53.89 45.76 45.13 51.44 45.13 51.44" stroke="#161616" stroke-width="1.75" stroke-miterlimit="10" stroke-linecap="round" stroke-linejoin="round"/>
<path d="M56.36 44.25C58.16 42.65 56.19 39.88 53.92 41.21C53.14 41.67 51.62 42.59 50 43.59" stroke="#161616" stroke-width="1.75" stroke-miterlimit="10" stroke-linecap="round" stroke-linejoin="round"/>
<path d="M51.5 42.66C52.69 41.68 51.21 39.05 49.08 40.28C48.7 40.5 48.11 40.86 47.41 41.29" stroke="#161616" stroke-width="1.75" stroke-miterlimit="10" stroke-linecap="round" stroke-linejoin="round"/>
<path d="M36.06 19.94C39.84 23.72 39.06 28.8 39.06 28.8C39.06 28.8 33.98 29.58 30.2 25.8C26.23 21.83 27.2 16.94 27.2 16.94C27.2 16.94 32.09 15.98 36.06 19.94Z" stroke="#161616" stroke-width="1.75" stroke-miterlimit="10"/>
<path d="M42.83 24.37C39.81 27.39 40.43 31.46 40.43 31.46C40.43 31.46 44.49 32.08 47.52 29.06C50.69 25.89 49.92 21.97 49.92 21.97C49.92 21.97 46 21.19 42.83 24.37Z" stroke="#161616" stroke-width="1.75" stroke-miterlimit="10"/>
<path d="M30.98 42.49C32.79 40.35 36.57 38.63 39.81 38.63C45.64 38.63 50.38 44.12 51.21 47.38" stroke="#161616" stroke-width="1.75" stroke-miterlimit="10"/>
</svg>
