<svg width="80" height="80" viewBox="0 0 80 80" fill="none" xmlns="http://www.w3.org/2000/svg">
<path d="M15 50.2004V39.5211L36 31.9999L49 36.4999V52.4999L35 58.4999L15 50.2004Z" fill="#F7E0A6"/>
<path d="M63.976 56.7114C63.8205 59.1559 61.8941 61 59.4954 61C57.0945 61 55.1681 59.1547 55.0149 56.7079L55 31.9999H63.9989L64 56.5412L63.976 56.7114Z" fill="#80D1CA"/>
<path d="M52.5412 27.3912V56.7821C52.5412 56.8362 52.5502 56.8903 52.5592 56.9444C52.7034 59.2336 54.5781 61.0001 56.8764 61.0001C59.1747 61.0001 61.0493 59.2336 61.1935 56.9444C61.2025 56.8903 61.2116 56.8362 61.2116 56.7821V27.3912" stroke="#161616" stroke-width="1.75" stroke-miterlimit="10"/>
<path d="M62.1038 19H51.6669C51.2974 19 51 19.2974 51 19.667V26.9043C51 27.2738 51.2974 27.5712 51.6669 27.5712H62.0948C62.4643 27.5712 62.7618 27.2738 62.7618 26.9043V19.667C62.7708 19.2974 62.4734 19 62.1038 19Z" stroke="#161616" stroke-width="1.75" stroke-miterlimit="10"/>
<path d="M52.5682 35.4575H61.2206" stroke="#161616" stroke-width="1.75" stroke-miterlimit="10" stroke-linecap="round" stroke-linejoin="round"/>
<path d="M35 44.9594L13 36.5212M35 44.9594V55M35 44.9594L52.5 38.2472M13 36.5212V46.2006L35 55M13 36.5212C20.3333 34.0141 27.6667 31.5071 35 29L52.5 34.9828M35 55L52.5 48.0005" stroke="#161616" stroke-width="1.75" stroke-miterlimit="10" stroke-linecap="round" stroke-linejoin="round"/>
</svg>
