<svg width="80" height="80" viewBox="0 0 80 80" fill="none" xmlns="http://www.w3.org/2000/svg">
<path d="M52.6064 53.6059C53.4081 53.7878 53.9468 51.8521 55 52.1326L55 56C53.6596 55.8156 53.5638 54.2487 52.7021 54.2487C51.8404 54.2487 51.8404 55.9078 50.5 55.9078C49.3511 55.8156 48.947 54.433 48.6703 54.433C48.3936 54.433 48.2021 55.2626 47.6277 55.6313C47.0532 56 46 56 46 56L46 52.0024C46 52.0024 46.9574 51.9443 47.6277 52.4052C48.2979 52.8661 48.2021 53.3269 48.6703 53.6059C49.1385 53.8848 49.0638 52.0023 50.5 52.0023C51.9362 52.0023 51.8047 53.424 52.6064 53.6059Z" fill="#80D1CA"/>
<path d="M35.7765 34.3822C35.8029 34.3822 35.8382 34.3822 35.8646 34.3733C36.64 36.9127 37.8414 38.7509 39.5 39.5526V43.5C39.5 44.5 37.5 46 36.5 46.5C41 47.5 44.5 46 45.5 44.5V37.8318C46.1525 36.9532 46.6828 35.8342 47.0943 34.5244C47.1385 34.5333 47.1826 34.5422 47.2267 34.5422C47.6942 34.5422 48.2411 33.76 48.6381 32.4356C49.0704 30.9689 49.494 29.2533 49 29.0667L48.5 28C47 26 46.5 25.5 44.3156 24C41.8073 27.3342 37.7249 28.4621 35.8951 28.9676C35.3053 29.1306 34.9496 29.2289 34.956 29.3156C34.7796 29.1467 34.612 29.0489 34.462 29.0489C34.4179 29.0489 34.3738 29.0489 34.3385 29.0667C33.8445 29.2533 33.9239 30.8178 34.365 32.2844C34.762 33.6089 35.3089 34.3822 35.7765 34.3822Z" fill="#F7E0A6"/>
<path d="M27.3395 34.5815C25.3395 23.7815 32.6729 16.0815 36.3395 15.5815C42.3395 14.0815 46.1729 15.7482 48.3395 17.5815C53.1122 24.4754 53.5625 32.553 51.8395 35.5815C50.9633 37.1218 46.3396 39.5815 44.8395 39.0815C45.8395 35.5815 52.7538 30.5815 45.8395 23.5815C41.1866 18.8709 43.1667 20.1667 42 22C42 22 36 28 31.5 27C30.1824 26.7072 28.8395 31.5815 34.8395 38.5815C33.3395 40.0815 27.7099 36.5815 27.3395 34.5815Z" fill="#80D1CA"/>
<path d="M47.03 43.7C47.03 47.1 43.88 49.86 40 49.86C36.12 49.86 32.97 47.1 32.97 43.7" stroke="#161616" stroke-width="1.75" stroke-miterlimit="10"/>
<path d="M20.85 51.9099V56.9499C20.85 58.6399 22.22 60.0099 23.91 60.0099H56.2C57.84 60.0099 59.16 58.6799 59.16 57.0499V51.9199C59.16 48.1899 56.27 46.6999 54.75 46.4199C49.83 45.5299 45.52 43.3199 44.76 42.6299V39.9199C45 39.8999 45.22 39.8799 45.41 39.8599C48.11 39.5599 50.16 38.5299 51.53 36.7999C53.03 34.8899 53.58 32.2199 53.15 28.8799C52.45 23.4299 49.47 15.3399 44.12 15.3399C43.51 15.3399 42.91 15.4499 42.31 15.6699C41.28 15.3299 40.25 15.1599 39.23 15.1599C32.71 15.1599 27.75 22.2899 26.9 28.8899C26.47 32.2299 27.01 34.8899 28.52 36.8099C29.88 38.5499 31.94 39.5799 34.64 39.8699C34.81 39.8899 35.01 39.9099 35.22 39.9199V42.6399C34.47 43.3199 30.2 45.5399 25.27 46.4299C23.73 46.6799 20.85 48.1699 20.85 51.9099Z" stroke="#161616" stroke-width="1.75" stroke-miterlimit="10"/>
<path d="M47.98 27.3451C47.9528 27.3451 47.926 27.3459 47.8995 27.3475C46.8957 24.8926 45.5863 23.4282 43.7905 21.7337L43.0816 21.0647L42.4927 21.8415C40.7549 24.134 38.2698 25.4534 36.1548 26.2515C35.1026 26.6485 34.1617 26.9096 33.465 27.1007C33.4427 27.1068 33.4205 27.1129 33.3984 27.1189C33.1169 27.1961 32.8555 27.2677 32.6542 27.3326C32.4703 27.2403 32.2575 27.1751 32.02 27.1751C32.0189 27.1751 32.0175 27.1751 32.0159 27.1751C31.9941 27.175 31.9267 27.1748 31.8546 27.1824C31.7825 27.19 31.6672 27.2085 31.5388 27.2641C31.0235 27.4746 30.8197 27.9595 30.7363 28.2535C30.6403 28.5921 30.6143 28.9808 30.6227 29.3596C30.6399 30.1279 30.8049 31.0602 31.0725 31.9434C31.3129 32.7394 31.6129 33.4211 31.9589 33.9245C32.1761 34.2405 32.5015 34.6156 32.9361 34.8041C34.1982 38.5574 36.4626 41.2451 40 41.2451C43.4675 41.2451 45.72 38.6441 46.9954 35.0104C47.1598 34.9478 47.3051 34.8604 47.4286 34.7669C47.6671 34.5863 47.8701 34.3499 48.0425 34.0974C48.3876 33.5922 48.6873 32.9087 48.9276 32.1131L48.9288 32.1092C49.1903 31.2287 49.355 30.2982 49.3735 29.5313C49.3826 29.1533 49.3579 28.7648 49.263 28.4263C49.1789 28.1261 48.9695 27.6242 48.4272 27.4208L48.361 27.396L48.2916 27.3821C48.2913 27.3821 48.2906 27.3819 48.2895 27.3816C48.2702 27.3772 48.1303 27.3451 47.98 27.3451Z" stroke="#161616" stroke-width="1.75" stroke-miterlimit="10"/>
<path d="M54.82 55.7299C52.55 55.7299 52.62 51.9499 50.68 51.9399C50.16 51.9399 49.78 52.1699 49.47 52.4999" stroke="#161616" stroke-miterlimit="10" stroke-linecap="round"/>
<path d="M54.82 51.9399C54.23 51.9399 53.8 52.1899 53.45 52.5499" stroke="#161616" stroke-miterlimit="10" stroke-linecap="round"/>
<path d="M46.54 51.9299C48.81 51.9299 48.74 55.7099 50.68 55.7199C51.2 55.7199 51.57 55.4899 51.88 55.1699" stroke="#161616" stroke-miterlimit="10" stroke-linecap="round"/>
<path d="M46.53 55.72C47.15 55.72 47.6 55.44 47.96 55.03" stroke="#161616" stroke-miterlimit="10" stroke-linecap="round"/>
<path d="M54.31 54.22L54.29 53.53" stroke="#161616" stroke-miterlimit="10" stroke-linecap="round"/>
<path d="M50.64 54.17L50.63 53.48" stroke="#161616" stroke-miterlimit="10" stroke-linecap="round"/>
<path d="M46.97 54.1199L46.96 53.4299" stroke="#161616" stroke-miterlimit="10" stroke-linecap="round"/>
</svg>
