<svg width="80" height="80" viewBox="0 0 80 80" fill="none" xmlns="http://www.w3.org/2000/svg">
<path fill-rule="evenodd" clip-rule="evenodd" d="M32 21C32 19.3431 33.3431 18 35 18H51C52.6569 18 54 19.3431 54 21V62C54 63.6569 52.6569 65 51 65H35C33.3431 65 32 63.6569 32 62V21ZM33 34.3478C33.375 33.4964 36 30.0906 39 29.2391H33V34.3478ZM43.9565 29.2391V35.8804H33.9131C35.3478 33.837 39.6522 29.2391 43.9565 29.2391Z" fill="#F7E0A6"/>
<path fill-rule="evenodd" clip-rule="evenodd" d="M27.2288 16.4902C26.6513 17.1687 26.375 17.9738 26.375 18.5C26.375 18.9832 25.9833 19.375 25.5 19.375C25.0168 19.375 24.625 18.9833 24.625 18.5C24.625 17.4877 25.0987 16.2928 25.8962 15.3559C26.7107 14.399 27.9386 13.625 29.5 13.625C29.9832 13.625 30.375 14.0168 30.375 14.5C30.375 14.9832 29.9832 15.375 29.5 15.375C28.5614 15.375 27.7893 15.8318 27.2288 16.4902Z" fill="#80D1CA"/>
<path fill-rule="evenodd" clip-rule="evenodd" d="M24.7913 14.4133C23.5263 15.8995 22.875 17.7046 22.875 19C22.875 19.4832 22.4833 19.875 22 19.875C21.5168 19.875 21.125 19.4833 21.125 19C21.125 17.2185 21.9737 15.0236 23.4587 13.279C24.9607 11.5144 27.1886 10.125 30 10.125C30.4832 10.125 30.875 10.5168 30.875 11C30.875 11.4832 30.4832 11.875 30 11.875C27.8114 11.875 26.0393 12.9472 24.7913 14.4133Z" fill="#80D1CA"/>
<path d="M47.12 62.4401H32.88C30.68 62.4401 28.88 60.6401 28.88 58.4401V21.5601C28.88 19.3601 30.68 17.5601 32.88 17.5601H47.12C49.32 17.5601 51.12 19.3601 51.12 21.5601V58.4301C51.12 60.6401 49.32 62.4401 47.12 62.4401Z" stroke="#161616" stroke-width="1.75" stroke-miterlimit="10" stroke-linecap="round" stroke-linejoin="round"/>
<path d="M42.38 35.9201H34.46C33.64 35.9201 32.97 35.2501 32.97 34.4301V29.8201C32.97 29.0001 33.64 28.3301 34.46 28.3301H42.38C43.2 28.3301 43.87 29.0001 43.87 29.8201V34.4301C43.87 35.2501 43.2 35.9201 42.38 35.9201Z" stroke="#161616" stroke-width="1.75" stroke-miterlimit="10"/>
<path fill-rule="evenodd" clip-rule="evenodd" d="M35.265 44.4199C35.265 43.9367 35.6567 43.5449 36.14 43.5449H47.04C47.5232 43.5449 47.915 43.9367 47.915 44.4199C47.915 44.9032 47.5232 45.2949 47.04 45.2949H36.14C35.6567 45.2949 35.265 44.9032 35.265 44.4199Z" fill="#161616"/>
<path fill-rule="evenodd" clip-rule="evenodd" d="M35.265 48.74C35.265 48.2567 35.6567 47.865 36.14 47.865H47.04C47.5232 47.865 47.915 48.2567 47.915 48.74C47.915 49.2232 47.5232 49.615 47.04 49.615H36.14C35.6567 49.615 35.265 49.2232 35.265 48.74Z" fill="#161616"/>
<path fill-rule="evenodd" clip-rule="evenodd" d="M35.265 53.0599C35.265 52.5767 35.6567 52.1849 36.14 52.1849H47.04C47.5232 52.1849 47.915 52.5767 47.915 53.0599C47.915 53.5432 47.5232 53.9349 47.04 53.9349H36.14C35.6567 53.9349 35.265 53.5432 35.265 53.0599Z" fill="#161616"/>
<path fill-rule="evenodd" clip-rule="evenodd" d="M37.275 21.1299C37.275 20.6466 37.6667 20.2549 38.15 20.2549H41.85C42.3332 20.2549 42.725 20.6466 42.725 21.1299C42.725 21.6131 42.3332 22.0049 41.85 22.0049H38.15C37.6667 22.0049 37.275 21.6131 37.275 21.1299Z" fill="#161616"/>
<path d="M34 43.53H32.21V45.32H34V43.53Z" fill="#161616"/>
<path d="M34 47.8401H32.21V49.6301H34V47.8401Z" fill="#161616"/>
<path d="M34 52.1599H32.21V53.9499H34V52.1599Z" fill="#161616"/>
</svg>
