<svg width="80" height="80" viewBox="0 0 80 80" fill="none" xmlns="http://www.w3.org/2000/svg">
<path d="M33.8325 54.365C30.7225 57.475 30.5225 61.365 33.18 64.0225C35.8375 66.68 40.5 67 43.5 64.0225L51.865 55.6575L42.2025 46L33.8325 54.365Z" fill="#F7E0A6"/>
<circle cx="34" cy="30" r="11" fill="#80D1CA"/>
<path d="M64.0588 42.7778C67.1619 39.6609 67.3532 35.7704 64.6897 33.1189C62.0263 30.4674 57.363 30.1578 54.3697 33.1421L46.0235 41.5258L55.7076 51.1616L64.0588 42.7778Z" fill="#80D1CA"/>
<path d="M42.1 42.0649L34.23 49.9299C31.12 53.0399 31.12 58.1299 34.23 61.2399L34.41 61.4199C37.52 64.5299 42.61 64.5299 45.73 61.4199L53.595 53.5549M42.1 42.0649L49.97 34.1999C53.08 31.0899 58.17 31.0899 61.28 34.1999L61.46 34.3799C64.57 37.4899 64.57 42.5799 61.46 45.6899L53.595 53.5549M42.1 42.0649L53.595 53.5549" stroke="#161616" stroke-width="1.75" stroke-miterlimit="10" stroke-linejoin="round"/>
<path d="M42 29.93C42 36.3309 36.7931 41.52 30.37 41.52C23.9469 41.52 18.74 36.3309 18.74 29.93M42 29.93C42 23.529 36.7931 18.34 30.37 18.34C23.9469 18.34 18.74 23.529 18.74 29.93M42 29.93H18.74" stroke="#161616" stroke-width="1.75" stroke-miterlimit="10" stroke-linejoin="round"/>
</svg>
