<svg width="80" height="80" viewBox="0 0 80 80" fill="none" xmlns="http://www.w3.org/2000/svg">
<path fill-rule="evenodd" clip-rule="evenodd" d="M42 24.9991C42 24.9991 41.9099 19 50 19C50 19 49.3046 22.002 47.0858 23.6517C45.1615 25.0824 42 24.9991 42 24.9991Z" fill="#F7E0A6"/>
<path d="M32.9316 32.7816C39.5175 30.2123 45.1964 36.0892 45.1964 36.0892C45.1964 36.0892 49.5926 31.9786 55.3425 32.7816C60.7307 33.534 64 38.5551 64 43.9656C64 50.2458 60.0271 57.7131 53.5464 59.6807C50.4194 60.63 44.751 58.7569 44.751 58.7569C44.751 58.7569 34.6223 62.3112 28.9692 54.4984C23.316 46.6857 26.3458 35.3509 32.9316 32.7816Z" fill="#80D1CA"/>
<path d="M45.01 31.33C47.91 30.52 51.87 30.37 55.62 33.31C65.07 40.73 58.98 67.74 40.01 60.89H40C21.03 67.74 14.94 40.73 24.39 33.31C31.52 27.72 39.38 33.31 39.38 33.31" stroke="#161616" stroke-width="1.75" stroke-miterlimit="10" stroke-linecap="round" stroke-linejoin="round"/>
<path d="M30 23.25C38.75 23.25 40 28.01 40 36.15" stroke="#161616" stroke-width="1.75" stroke-miterlimit="10" stroke-linecap="round"/>
<path d="M47.43 24.6C44.74 27.35 40.02 26.99 40.02 26.99C40.02 26.99 39.66 22.16 42.35 19.41C45.04 16.66 49.76 17.02 49.76 17.02C49.76 17.02 50.12 21.84 47.43 24.6Z" stroke="#161616" stroke-width="1.75" stroke-miterlimit="10" stroke-linecap="round" stroke-linejoin="round"/>
</svg>
