<svg xmlns="http://www.w3.org/2000/svg" width="80" height="80" viewBox="0 0 80 80">
    <g fill="none" fill-rule="evenodd">
        <g>
            <g>
                <g>
                    <g>
                        <path fill="#80D1CA" d="M38.153 46.867c.385 0 .771.094 1.152.313 1.816 1.048 1.206 3.637.842 5.184-.53 2.262-1.804 4.14-3.035 5.956-1.016 1.498-1.976 2.913-2.532 4.509-.617 1.768-.688 4.228 1.147 5.341 1.023.619 1.991.76 2.962.425 1.942-.667 3.956-3.324 5.392-7.105.316-.832.585-1.676.776-2.441.781-3.112 1.144-8.076-.407-11.824-.104-.252-.085-.537.051-.772.135-.235.374-.395.643-.43 4.022-.531 8.14-3.327 10.444-5.559.568-.55 1.165-1.204 1.725-1.892 2.557-3.135 3.85-6.208 3.457-8.223-.196-1.008-.802-1.778-1.849-2.352-1.879-1.034-3.976.258-5.199 1.677-1.104 1.28-1.85 2.82-2.64 4.449-.957 1.973-1.946 4.015-3.638 5.605-1.16 1.088-3.1 2.905-4.91 1.863-1.816-1.048-1.206-3.637-.842-5.184.531-2.262 1.804-4.14 3.035-5.956 1.016-1.498 1.976-2.913 2.532-4.509.618-1.768.688-4.228-1.147-5.341-1.022-.619-1.99-.759-2.962-.424-1.94.667-3.956 3.323-5.392 7.104-.316.832-.584 1.676-.776 2.441-.78 3.112-1.143 8.076.407 11.824.104.252.085.537-.05.772-.136.236-.374.395-.644.43-4.02.531-8.139 3.327-10.443 5.559-.569.55-1.165 1.205-1.726 1.892-2.557 3.135-3.85 6.208-3.457 8.223.196 1.008.802 1.778 1.85 2.352 1.877 1.033 3.975-.259 5.198-1.677 1.104-1.28 1.85-2.82 2.64-4.449.958-1.973 1.946-4.014 3.638-5.605.915-.86 2.317-2.176 3.758-2.176" transform="translate(-343 -3498) translate(0 3231) translate(265 267) translate(78)"/>
                        <path fill="#000" d="M37.233 42.481c.385 0 .771.094 1.152.313 1.816 1.048 1.206 3.637.842 5.184-.53 2.262-1.804 4.14-3.035 5.956-1.016 1.498-1.976 2.913-2.532 4.51-.617 1.767-.688 4.227 1.147 5.34 1.023.62 1.991.76 2.962.425 1.942-.667 3.956-3.324 5.392-7.105.316-.832.585-1.676.776-2.44.781-3.113 1.144-8.077-.407-11.825-.104-.252-.085-.537.051-.772.135-.235.374-.395.643-.43 4.022-.53 8.14-3.327 10.444-5.559.568-.55 1.165-1.204 1.725-1.892 2.557-3.135 3.85-6.208 3.457-8.223-.196-1.008-.802-1.778-1.849-2.352-1.879-1.034-3.976.258-5.199 1.677-1.104 1.28-1.85 2.82-2.64 4.45-.957 1.972-1.946 4.014-3.638 5.604-1.16 1.088-3.1 2.905-4.91 1.863-1.816-1.048-1.206-3.637-.842-5.184.531-2.262 1.804-4.14 3.035-5.956 1.016-1.498 1.976-2.913 2.532-4.509.618-1.768.688-4.228-1.147-5.34-1.022-.62-1.99-.76-2.962-.425-1.94.667-3.956 3.323-5.392 7.104-.316.832-.584 1.676-.776 2.441-.78 3.112-1.143 8.076.407 11.824.104.252.085.537-.05.772-.136.236-.374.395-.644.43-4.02.531-8.139 3.327-10.443 5.56-.569.55-1.165 1.204-1.726 1.891-2.557 3.135-3.85 6.208-3.457 8.223.196 1.008.802 1.778 1.85 2.352 1.877 1.033 3.975-.259 5.198-1.677 1.104-1.28 1.85-2.82 2.64-4.449.958-1.973 1.946-4.014 3.638-5.605.915-.86 2.317-2.176 3.758-2.176m-.494 23.656c-.947 0-1.898-.286-2.84-.857-2.245-1.362-2.988-4.272-1.892-7.413.633-1.813 1.703-3.39 2.737-4.915 1.194-1.762 2.323-3.427 2.78-5.374.235-1.003.675-2.87-.014-3.268-.685-.4-2.085.916-2.837 1.622-1.456 1.37-2.333 3.178-3.26 5.093-.805 1.66-1.637 3.375-2.89 4.83-2.174 2.52-5.064 3.331-7.366 2.067-1.51-.828-2.428-2.023-2.726-3.55-.707-3.632 2.436-7.969 3.82-9.664.602-.74 1.247-1.447 1.864-2.044 2.404-2.33 6.3-4.984 10.363-5.852-1.28-3.953-.929-8.653-.113-11.9.208-.83.497-1.743.837-2.638.777-2.046 2.961-6.936 6.46-8.139 1.472-.506 2.965-.309 4.438.584 2.245 1.362 2.988 4.272 1.892 7.413-.633 1.813-1.702 3.39-2.737 4.915-1.194 1.762-2.323 3.427-2.78 5.374-.235 1.003-.675 2.871.014 3.268.685.4 2.085-.917 2.837-1.622 1.456-1.369 2.333-3.178 3.261-5.093.804-1.659 1.636-3.375 2.89-4.829 2.173-2.52 5.064-3.332 7.365-2.068 1.511.828 2.428 2.023 2.726 3.551.707 3.631-2.436 7.968-3.819 9.664-.603.74-1.247 1.446-1.865 2.043-2.404 2.331-6.299 4.984-10.363 5.852 1.28 3.953.93 8.653.113 11.901-.208.831-.497 1.743-.837 2.637-.777 2.046-2.96 6.936-6.459 8.14-.53.181-1.065.272-1.599.272" transform="translate(-343 -3498) translate(0 3231) translate(265 267) translate(78)"/>
                    </g>
                </g>
            </g>
        </g>
    </g>
</svg>
